<?xml version="1.0" encoding="UTF-8"?>
<svg xmlns="http://www.w3.org/2000/svg" xmlns:xlink="http://www.w3.org/1999/xlink" width="288pt" height="216pt" viewBox="0 0 288 216" version="1.1">
<defs>
<clipPath id="clip1">
  <path d="M 14.398438 171 L 273.597656 171 L 273.597656 173 L 14.398438 173 Z M 14.398438 171 "/>
</clipPath>
<clipPath id="clip2">
  <path d="M 14.398438 118 L 273.597656 118 L 273.597656 120 L 14.398438 120 Z M 14.398438 118 "/>
</clipPath>
<clipPath id="clip3">
  <path d="M 14.398438 64 L 273.597656 64 L 273.597656 66 L 14.398438 66 Z M 14.398438 64 "/>
</clipPath>
<clipPath id="clip4">
  <path d="M 64 14.398438 L 66 14.398438 L 66 201.597656 L 64 201.597656 Z M 64 14.398438 "/>
</clipPath>
<clipPath id="clip5">
  <path d="M 143 14.398438 L 145 14.398438 L 145 201.597656 L 143 201.597656 Z M 143 14.398438 "/>
</clipPath>
<clipPath id="clip6">
  <path d="M 222 14.398438 L 224 14.398438 L 224 201.597656 L 222 201.597656 Z M 222 14.398438 "/>
</clipPath>
</defs>
<g id="surface66">
<rect x="0" y="0" width="288" height="216" style="fill:rgb(100%,100%,100%);fill-opacity:1;stroke:none;"/>
<rect x="0" y="0" width="288" height="216" style="fill:rgb(99.215686%,96.470588%,89.019608%);fill-opacity:1;stroke:none;"/>
<path style="fill:none;stroke-width:1.066978;stroke-linecap:round;stroke-linejoin:round;stroke:rgb(99.215686%,96.470588%,89.019608%);stroke-opacity:1;stroke-miterlimit:10;" d="M 0 216 L 288 216 L 288 0 L 0 0 Z M 0 216 "/>
<g clip-path="url(#clip1)" clip-rule="nonzero">
<path style="fill:none;stroke-width:1.066978;stroke-linecap:butt;stroke-linejoin:round;stroke:rgb(80%,80%,80%);stroke-opacity:1;stroke-miterlimit:10;" d="M 14.398438 171.816406 L 273.601562 171.816406 "/>
</g>
<g clip-path="url(#clip2)" clip-rule="nonzero">
<path style="fill:none;stroke-width:1.066978;stroke-linecap:butt;stroke-linejoin:round;stroke:rgb(80%,80%,80%);stroke-opacity:1;stroke-miterlimit:10;" d="M 14.398438 118.636719 L 273.601562 118.636719 "/>
</g>
<g clip-path="url(#clip3)" clip-rule="nonzero">
<path style="fill:none;stroke-width:1.066978;stroke-linecap:butt;stroke-linejoin:round;stroke:rgb(80%,80%,80%);stroke-opacity:1;stroke-miterlimit:10;" d="M 14.398438 65.453125 L 273.601562 65.453125 "/>
</g>
<g clip-path="url(#clip4)" clip-rule="nonzero">
<path style="fill:none;stroke-width:1.066978;stroke-linecap:butt;stroke-linejoin:round;stroke:rgb(80%,80%,80%);stroke-opacity:1;stroke-miterlimit:10;" d="M 65.453125 201.601562 L 65.453125 14.398438 "/>
</g>
<g clip-path="url(#clip5)" clip-rule="nonzero">
<path style="fill:none;stroke-width:1.066978;stroke-linecap:butt;stroke-linejoin:round;stroke:rgb(80%,80%,80%);stroke-opacity:1;stroke-miterlimit:10;" d="M 144 201.601562 L 144 14.398438 "/>
</g>
<g clip-path="url(#clip6)" clip-rule="nonzero">
<path style="fill:none;stroke-width:1.066978;stroke-linecap:butt;stroke-linejoin:round;stroke:rgb(80%,80%,80%);stroke-opacity:1;stroke-miterlimit:10;" d="M 222.546875 201.601562 L 222.546875 14.398438 "/>
</g>
<path style="fill:none;stroke-width:2.133957;stroke-linecap:butt;stroke-linejoin:round;stroke:rgb(0%,0%,100%);stroke-opacity:1;stroke-miterlimit:10;" d="M 26.183594 65.453125 L 28.5625 62.914062 L 30.941406 60.453125 L 33.324219 58.070312 L 35.703125 55.765625 L 38.082031 53.539062 L 40.460938 51.390625 L 42.84375 49.320312 L 45.222656 47.328125 L 47.601562 45.414062 L 49.984375 43.578125 L 52.363281 41.816406 L 54.742188 40.136719 L 57.125 38.535156 L 59.503906 37.011719 L 61.882812 35.566406 L 64.265625 34.199219 L 66.644531 32.910156 L 69.023438 31.699219 L 71.40625 30.566406 L 73.785156 29.511719 L 76.164062 28.535156 L 78.546875 27.636719 L 80.925781 26.816406 L 83.304688 26.074219 L 85.6875 25.410156 L 88.066406 24.824219 L 90.445312 24.316406 L 92.828125 23.886719 L 95.207031 23.535156 L 97.585938 23.261719 L 99.96875 23.066406 L 102.347656 22.949219 L 104.726562 22.910156 L 107.109375 22.949219 L 109.488281 23.066406 L 111.867188 23.261719 L 114.246094 23.535156 L 116.628906 23.886719 L 119.007812 24.316406 L 121.386719 24.824219 L 123.769531 25.410156 L 126.148438 26.074219 L 128.527344 26.816406 L 130.910156 27.636719 L 133.289062 28.535156 L 135.667969 29.511719 L 138.050781 30.566406 L 140.429688 31.699219 L 142.808594 32.910156 L 145.191406 34.199219 L 147.570312 35.566406 L 149.949219 37.011719 L 152.332031 38.535156 L 154.710938 40.136719 L 157.089844 41.816406 L 159.472656 43.578125 L 161.851562 45.414062 L 164.230469 47.328125 L 166.613281 49.320312 L 168.992188 51.390625 L 171.371094 53.539062 L 173.753906 55.765625 L 176.132812 58.070312 L 178.511719 60.453125 L 180.890625 62.914062 L 183.273438 65.453125 L 185.652344 68.070312 L 188.03125 70.769531 L 190.414062 73.542969 L 192.792969 76.394531 L 195.171875 79.324219 L 197.554688 82.332031 L 199.933594 85.417969 L 202.3125 88.582031 L 204.695312 91.824219 L 207.074219 95.148438 L 209.453125 98.546875 L 211.835938 102.023438 L 214.214844 105.578125 L 216.59375 109.210938 L 218.976562 112.921875 L 221.355469 116.710938 L 223.734375 120.578125 L 226.117188 124.527344 L 228.496094 128.550781 L 230.875 132.652344 L 233.257812 136.832031 L 235.636719 141.089844 L 238.015625 145.425781 L 240.398438 149.84375 L 242.777344 154.335938 L 245.15625 158.90625 L 247.539062 163.554688 L 249.917969 168.28125 L 252.296875 173.089844 L 254.675781 177.972656 L 257.058594 182.933594 L 259.4375 187.972656 L 261.816406 193.089844 "/>
<path style="fill:none;stroke-width:1.066978;stroke-linecap:butt;stroke-linejoin:round;stroke:rgb(0%,0%,0%);stroke-opacity:1;stroke-miterlimit:10;" d="M 26.183594 193.089844 L 85.089844 193.089844 "/>
<path style="fill-rule:nonzero;fill:rgb(0%,0%,0%);fill-opacity:1;stroke-width:1.066978;stroke-linecap:butt;stroke-linejoin:round;stroke:rgb(0%,0%,0%);stroke-opacity:1;stroke-miterlimit:10;" d="M 32.417969 189.492188 L 26.183594 193.089844 L 32.417969 196.691406 Z M 32.417969 189.492188 "/>
<path style="fill-rule:nonzero;fill:rgb(0%,0%,0%);fill-opacity:1;stroke-width:1.066978;stroke-linecap:butt;stroke-linejoin:round;stroke:rgb(0%,0%,0%);stroke-opacity:1;stroke-miterlimit:10;" d="M 78.855469 196.691406 L 85.089844 193.089844 L 78.855469 189.492188 Z M 78.855469 196.691406 "/>
<path style="fill:none;stroke-width:1.066978;stroke-linecap:butt;stroke-linejoin:round;stroke:rgb(0%,0%,0%);stroke-opacity:1;stroke-miterlimit:10;" d="M 85.089844 193.089844 L 144 193.089844 "/>
<path style="fill-rule:nonzero;fill:rgb(0%,0%,0%);fill-opacity:1;stroke-width:1.066978;stroke-linecap:butt;stroke-linejoin:round;stroke:rgb(0%,0%,0%);stroke-opacity:1;stroke-miterlimit:10;" d="M 91.328125 189.492188 L 85.089844 193.089844 L 91.328125 196.691406 Z M 91.328125 189.492188 "/>
<path style="fill-rule:nonzero;fill:rgb(0%,0%,0%);fill-opacity:1;stroke-width:1.066978;stroke-linecap:butt;stroke-linejoin:round;stroke:rgb(0%,0%,0%);stroke-opacity:1;stroke-miterlimit:10;" d="M 137.765625 196.691406 L 144 193.089844 L 137.765625 189.492188 Z M 137.765625 196.691406 "/>
<path style="fill:none;stroke-width:1.066978;stroke-linecap:butt;stroke-linejoin:round;stroke:rgb(0%,0%,0%);stroke-opacity:1;stroke-miterlimit:10;" d="M 144 193.089844 L 202.910156 193.089844 "/>
<path style="fill-rule:nonzero;fill:rgb(0%,0%,0%);fill-opacity:1;stroke-width:1.066978;stroke-linecap:butt;stroke-linejoin:round;stroke:rgb(0%,0%,0%);stroke-opacity:1;stroke-miterlimit:10;" d="M 150.234375 189.492188 L 144 193.089844 L 150.234375 196.691406 Z M 150.234375 189.492188 "/>
<path style="fill-rule:nonzero;fill:rgb(0%,0%,0%);fill-opacity:1;stroke-width:1.066978;stroke-linecap:butt;stroke-linejoin:round;stroke:rgb(0%,0%,0%);stroke-opacity:1;stroke-miterlimit:10;" d="M 196.671875 196.691406 L 202.910156 193.089844 L 196.671875 189.492188 Z M 196.671875 196.691406 "/>
<path style="fill:none;stroke-width:1.066978;stroke-linecap:butt;stroke-linejoin:round;stroke:rgb(0%,0%,0%);stroke-opacity:1;stroke-miterlimit:10;" d="M 202.910156 193.089844 L 261.816406 193.089844 "/>
<path style="fill-rule:nonzero;fill:rgb(0%,0%,0%);fill-opacity:1;stroke-width:1.066978;stroke-linecap:butt;stroke-linejoin:round;stroke:rgb(0%,0%,0%);stroke-opacity:1;stroke-miterlimit:10;" d="M 209.144531 189.492188 L 202.910156 193.089844 L 209.144531 196.691406 Z M 209.144531 189.492188 "/>
<path style="fill-rule:nonzero;fill:rgb(0%,0%,0%);fill-opacity:1;stroke-width:1.066978;stroke-linecap:butt;stroke-linejoin:round;stroke:rgb(0%,0%,0%);stroke-opacity:1;stroke-miterlimit:10;" d="M 255.582031 196.691406 L 261.816406 193.089844 L 255.582031 189.492188 Z M 255.582031 196.691406 "/>
<path style=" stroke:none;fill-rule:nonzero;fill:rgb(0%,0%,0%);fill-opacity:1;" d="M 49.730469 191.105469 L 52.214844 183.832031 L 53.207031 183.832031 L 55.703125 191.113281 L 55.703125 191.714844 L 49.730469 191.714844 Z M 52.703125 184.910156 L 52.648438 185.121094 L 52.59375 185.328125 L 52.539062 185.523438 L 52.488281 185.710938 L 52.4375 185.894531 L 52.386719 186.066406 L 52.335938 186.234375 L 52.289062 186.394531 L 52.242188 186.546875 L 52.195312 186.6875 L 50.792969 190.839844 L 54.609375 190.839844 L 53.230469 186.730469 L 53.160156 186.519531 L 53.09375 186.3125 L 53.03125 186.113281 L 52.972656 185.921875 L 52.917969 185.734375 L 52.867188 185.554688 L 52.820312 185.382812 L 52.777344 185.21875 L 52.738281 185.0625 Z M 52.703125 184.910156 "/>
<path style=" stroke:none;fill-rule:nonzero;fill:rgb(0%,0%,0%);fill-opacity:1;" d="M 58.265625 188.6875 L 56.222656 185.792969 L 57.328125 185.792969 L 58.851562 188.027344 L 60.359375 185.792969 L 61.457031 185.792969 L 59.414062 188.6875 L 61.570312 191.714844 L 60.464844 191.714844 L 58.851562 189.351562 L 57.21875 191.714844 L 56.125 191.714844 Z M 58.265625 188.6875 "/>
<path style=" stroke:none;fill-rule:nonzero;fill:rgb(0%,0%,0%);fill-opacity:1;" d="M 108.640625 191.105469 L 111.125 183.832031 L 112.117188 183.832031 L 114.613281 191.113281 L 114.613281 191.714844 L 108.640625 191.714844 Z M 111.609375 184.910156 L 111.554688 185.121094 L 111.503906 185.328125 L 111.449219 185.523438 L 111.398438 185.710938 L 111.347656 185.894531 L 111.296875 186.066406 L 111.246094 186.234375 L 111.199219 186.394531 L 111.152344 186.546875 L 111.105469 186.6875 L 109.703125 190.839844 L 113.519531 190.839844 L 112.136719 186.730469 L 112.066406 186.519531 L 112 186.3125 L 111.9375 186.113281 L 111.878906 185.921875 L 111.824219 185.734375 L 111.773438 185.554688 L 111.726562 185.382812 L 111.683594 185.21875 L 111.644531 185.0625 Z M 111.609375 184.910156 "/>
<path style=" stroke:none;fill-rule:nonzero;fill:rgb(0%,0%,0%);fill-opacity:1;" d="M 117.171875 188.6875 L 115.128906 185.792969 L 116.234375 185.792969 L 117.761719 188.027344 L 119.269531 185.792969 L 120.363281 185.792969 L 118.320312 188.6875 L 120.476562 191.714844 L 119.371094 191.714844 L 117.761719 189.351562 L 116.128906 191.714844 L 115.035156 191.714844 Z M 117.171875 188.6875 "/>
<path style=" stroke:none;fill-rule:nonzero;fill:rgb(0%,0%,0%);fill-opacity:1;" d="M 167.550781 191.105469 L 170.035156 183.832031 L 171.027344 183.832031 L 173.523438 191.113281 L 173.523438 191.714844 L 167.550781 191.714844 Z M 170.519531 184.910156 L 170.464844 185.121094 L 170.410156 185.328125 L 170.359375 185.523438 L 170.304688 185.710938 L 170.253906 185.894531 L 170.203125 186.066406 L 170.15625 186.234375 L 170.105469 186.394531 L 170.058594 186.546875 L 170.011719 186.6875 L 168.609375 190.839844 L 172.425781 190.839844 L 171.046875 186.730469 L 170.976562 186.519531 L 170.910156 186.3125 L 170.847656 186.113281 L 170.789062 185.921875 L 170.734375 185.734375 L 170.683594 185.554688 L 170.636719 185.382812 L 170.59375 185.21875 L 170.554688 185.0625 Z M 170.519531 184.910156 "/>
<path style=" stroke:none;fill-rule:nonzero;fill:rgb(0%,0%,0%);fill-opacity:1;" d="M 176.082031 188.6875 L 174.039062 185.792969 L 175.144531 185.792969 L 176.671875 188.027344 L 178.179688 185.792969 L 179.273438 185.792969 L 177.230469 188.6875 L 179.386719 191.714844 L 178.28125 191.714844 L 176.671875 189.351562 L 175.035156 191.714844 L 173.941406 191.714844 Z M 176.082031 188.6875 "/>
<path style=" stroke:none;fill-rule:nonzero;fill:rgb(0%,0%,0%);fill-opacity:1;" d="M 226.457031 191.105469 L 228.945312 183.832031 L 229.933594 183.832031 L 232.429688 191.113281 L 232.429688 191.714844 L 226.457031 191.714844 Z M 229.429688 184.910156 L 229.375 185.121094 L 229.320312 185.328125 L 229.265625 185.523438 L 229.214844 185.710938 L 229.164062 185.894531 L 229.113281 186.066406 L 229.066406 186.234375 L 229.015625 186.394531 L 228.96875 186.546875 L 228.921875 186.6875 L 227.519531 190.839844 L 231.335938 190.839844 L 229.957031 186.730469 L 229.886719 186.519531 L 229.820312 186.3125 L 229.757812 186.113281 L 229.699219 185.921875 L 229.644531 185.734375 L 229.59375 185.554688 L 229.546875 185.382812 L 229.503906 185.21875 L 229.464844 185.0625 Z M 229.429688 184.910156 "/>
<path style=" stroke:none;fill-rule:nonzero;fill:rgb(0%,0%,0%);fill-opacity:1;" d="M 234.992188 188.6875 L 232.949219 185.792969 L 234.054688 185.792969 L 235.578125 188.027344 L 237.089844 185.792969 L 238.183594 185.792969 L 236.140625 188.6875 L 238.296875 191.714844 L 237.191406 191.714844 L 235.578125 189.351562 L 233.945312 191.714844 L 232.851562 191.714844 Z M 234.992188 188.6875 "/>
<path style="fill:none;stroke-width:2.133957;stroke-linecap:butt;stroke-linejoin:round;stroke:rgb(0%,0%,0%);stroke-opacity:1;stroke-miterlimit:10;" d="M 26.183594 65.453125 L 85.089844 25.566406 "/>
<path style="fill:none;stroke-width:2.133957;stroke-linecap:butt;stroke-linejoin:round;stroke:rgb(0%,0%,0%);stroke-opacity:1;stroke-miterlimit:10;" d="M 85.089844 25.566406 L 144 33.546875 "/>
<path style="fill:none;stroke-width:2.133957;stroke-linecap:butt;stroke-linejoin:round;stroke:rgb(0%,0%,0%);stroke-opacity:1;stroke-miterlimit:10;" d="M 144 33.546875 L 202.910156 89.386719 "/>
<path style="fill:none;stroke-width:2.133957;stroke-linecap:butt;stroke-linejoin:round;stroke:rgb(0%,0%,0%);stroke-opacity:1;stroke-miterlimit:10;" d="M 202.910156 89.386719 L 261.816406 193.089844 "/>
</g>
</svg>
