<?xml version="1.0" encoding="UTF-8"?>
<svg xmlns="http://www.w3.org/2000/svg" xmlns:xlink="http://www.w3.org/1999/xlink" width="216pt" height="216pt" viewBox="0 0 216 216" version="1.1">
<defs>
<clipPath id="clip1">
  <path d="M 40.648438 155 L 210.519531 155 L 210.519531 157 L 40.648438 157 Z M 40.648438 155 "/>
</clipPath>
<clipPath id="clip2">
  <path d="M 40.648438 33 L 210.519531 33 L 210.519531 35 L 40.648438 35 Z M 40.648438 33 "/>
</clipPath>
<clipPath id="clip3">
  <path d="M 67 5.480469 L 69 5.480469 L 69 184.6875 L 67 184.6875 Z M 67 5.480469 "/>
</clipPath>
<clipPath id="clip4">
  <path d="M 182 5.480469 L 185 5.480469 L 185 184.6875 L 182 184.6875 Z M 182 5.480469 "/>
</clipPath>
<clipPath id="clip5">
  <path d="M 67 155 L 69 155 L 69 184.6875 L 67 184.6875 Z M 67 155 "/>
</clipPath>
<clipPath id="clip6">
  <path d="M 182 33 L 185 33 L 185 184.6875 L 182 184.6875 Z M 182 33 "/>
</clipPath>
<clipPath id="clip7">
  <path d="M 40.648438 33 L 185 33 L 185 35 L 40.648438 35 Z M 40.648438 33 "/>
</clipPath>
<clipPath id="clip8">
  <path d="M 40.648438 155 L 69 155 L 69 157 L 40.648438 157 Z M 40.648438 155 "/>
</clipPath>
</defs>
<g id="surface46">
<rect x="0" y="0" width="216" height="216" style="fill:rgb(100%,100%,100%);fill-opacity:1;stroke:none;"/>
<rect x="0" y="0" width="216" height="216" style="fill:rgb(99.215686%,96.470588%,89.019608%);fill-opacity:1;stroke:none;"/>
<path style="fill:none;stroke-width:1.066978;stroke-linecap:round;stroke-linejoin:round;stroke:rgb(99.215686%,96.470588%,89.019608%);stroke-opacity:1;stroke-miterlimit:10;" d="M 0 216 L 216 216 L 216 0 L 0 0 Z M 0 216 "/>
<g clip-path="url(#clip1)" clip-rule="nonzero">
<path style="fill:none;stroke-width:1.066978;stroke-linecap:butt;stroke-linejoin:round;stroke:rgb(80%,80%,80%);stroke-opacity:1;stroke-miterlimit:10;" d="M 40.648438 156.175781 L 210.519531 156.175781 "/>
</g>
<g clip-path="url(#clip2)" clip-rule="nonzero">
<path style="fill:none;stroke-width:1.066978;stroke-linecap:butt;stroke-linejoin:round;stroke:rgb(80%,80%,80%);stroke-opacity:1;stroke-miterlimit:10;" d="M 40.648438 33.988281 L 210.519531 33.988281 "/>
</g>
<g clip-path="url(#clip3)" clip-rule="nonzero">
<path style="fill:none;stroke-width:1.066978;stroke-linecap:butt;stroke-linejoin:round;stroke:rgb(80%,80%,80%);stroke-opacity:1;stroke-miterlimit:10;" d="M 67.675781 184.6875 L 67.675781 5.480469 "/>
</g>
<g clip-path="url(#clip4)" clip-rule="nonzero">
<path style="fill:none;stroke-width:1.066978;stroke-linecap:butt;stroke-linejoin:round;stroke:rgb(80%,80%,80%);stroke-opacity:1;stroke-miterlimit:10;" d="M 183.496094 184.6875 L 183.496094 5.480469 "/>
</g>
<path style="fill:none;stroke-width:1.066978;stroke-linecap:butt;stroke-linejoin:round;stroke:rgb(0%,0%,0%);stroke-opacity:1;stroke-miterlimit:10;" d="M 48.371094 176.542969 L 49.929688 174.894531 L 51.492188 173.25 L 53.050781 171.605469 L 54.609375 169.957031 L 56.171875 168.3125 L 59.289062 165.023438 L 60.851562 163.375 L 63.96875 160.085938 L 65.53125 158.441406 L 67.089844 156.792969 L 68.648438 155.148438 L 70.210938 153.503906 L 71.769531 151.855469 L 73.328125 150.210938 L 74.890625 148.566406 L 76.449219 146.921875 L 78.007812 145.273438 L 79.570312 143.628906 L 81.128906 141.984375 L 82.6875 140.335938 L 84.25 138.691406 L 87.367188 135.402344 L 88.929688 133.753906 L 92.046875 130.464844 L 93.609375 128.820312 L 95.167969 127.171875 L 96.726562 125.527344 L 98.289062 123.882812 L 99.847656 122.234375 L 101.40625 120.589844 L 102.96875 118.945312 L 104.527344 117.300781 L 106.085938 115.652344 L 107.648438 114.007812 L 109.207031 112.363281 L 110.765625 110.714844 L 112.328125 109.070312 L 115.445312 105.78125 L 117.007812 104.132812 L 121.683594 99.199219 L 123.246094 97.550781 L 126.363281 94.261719 L 127.925781 92.613281 L 131.042969 89.324219 L 132.605469 87.679688 L 134.164062 86.03125 L 135.722656 84.386719 L 137.285156 82.742188 L 138.84375 81.09375 L 140.402344 79.449219 L 141.964844 77.804688 L 143.523438 76.160156 L 145.082031 74.511719 L 146.644531 72.867188 L 149.761719 69.578125 L 151.324219 67.929688 L 154.441406 64.640625 L 156.003906 62.992188 L 159.121094 59.703125 L 160.683594 58.058594 L 162.242188 56.410156 L 163.800781 54.765625 L 165.363281 53.121094 L 166.921875 51.472656 L 168.480469 49.828125 L 170.042969 48.183594 L 171.601562 46.539062 L 173.160156 44.890625 L 174.722656 43.246094 L 177.839844 39.957031 L 179.402344 38.308594 L 182.519531 35.019531 L 184.082031 33.371094 L 187.199219 30.082031 L 188.761719 28.4375 L 190.320312 26.789062 L 191.878906 25.144531 L 193.441406 23.5 L 195 21.851562 L 196.558594 20.207031 L 198.121094 18.5625 L 199.679688 16.917969 L 201.238281 15.269531 L 202.800781 13.625 "/>
<path style="fill-rule:nonzero;fill:rgb(0%,0%,0%);fill-opacity:1;stroke-width:0.708661;stroke-linecap:round;stroke-linejoin:round;stroke:rgb(0%,0%,0%);stroke-opacity:1;stroke-miterlimit:10;" d="M 69.628906 156.175781 C 69.628906 158.785156 65.71875 158.785156 65.71875 156.175781 C 65.71875 153.570312 69.628906 153.570312 69.628906 156.175781 "/>
<path style="fill-rule:nonzero;fill:rgb(0%,0%,0%);fill-opacity:1;stroke-width:0.708661;stroke-linecap:round;stroke-linejoin:round;stroke:rgb(0%,0%,0%);stroke-opacity:1;stroke-miterlimit:10;" d="M 185.449219 33.988281 C 185.449219 36.597656 181.539062 36.597656 181.539062 33.988281 C 181.539062 31.382812 185.449219 31.382812 185.449219 33.988281 "/>
<g clip-path="url(#clip5)" clip-rule="nonzero">
<path style="fill:none;stroke-width:1.066978;stroke-linecap:butt;stroke-linejoin:round;stroke:rgb(39.607843%,48.235294%,51.372549%);stroke-opacity:1;stroke-dasharray:1.066978,3.200935;stroke-miterlimit:10;" d="M 67.675781 258 L 67.675781 156.175781 "/>
</g>
<g clip-path="url(#clip6)" clip-rule="nonzero">
<path style="fill:none;stroke-width:1.066978;stroke-linecap:butt;stroke-linejoin:round;stroke:rgb(39.607843%,48.235294%,51.372549%);stroke-opacity:1;stroke-dasharray:1.066978,3.200935;stroke-miterlimit:10;" d="M 183.496094 258 L 183.496094 33.988281 "/>
</g>
<g clip-path="url(#clip7)" clip-rule="nonzero">
<path style="fill:none;stroke-width:1.066978;stroke-linecap:butt;stroke-linejoin:round;stroke:rgb(39.607843%,48.235294%,51.372549%);stroke-opacity:1;stroke-dasharray:1.066978,3.200935;stroke-miterlimit:10;" d="M -9.539062 33.988281 L 183.496094 33.988281 "/>
</g>
<g clip-path="url(#clip8)" clip-rule="nonzero">
<path style="fill:none;stroke-width:1.066978;stroke-linecap:butt;stroke-linejoin:round;stroke:rgb(39.607843%,48.235294%,51.372549%);stroke-opacity:1;stroke-dasharray:1.066978,3.200935;stroke-miterlimit:10;" d="M -9.539062 156.175781 L 67.675781 156.175781 "/>
</g>
<path style="fill:none;stroke-width:1.066978;stroke-linecap:butt;stroke-linejoin:round;stroke:rgb(100%,0%,0%);stroke-opacity:1;stroke-miterlimit:10;" d="M 67.675781 33.988281 L 183.496094 33.988281 "/>
<path style="fill-rule:nonzero;fill:rgb(100%,0%,0%);fill-opacity:1;stroke-width:1.066978;stroke-linecap:butt;stroke-linejoin:round;stroke:rgb(100%,0%,0%);stroke-opacity:1;stroke-miterlimit:10;" d="M 73.910156 30.390625 L 67.675781 33.988281 L 73.910156 37.589844 Z M 73.910156 30.390625 "/>
<path style="fill-rule:nonzero;fill:rgb(100%,0%,0%);fill-opacity:1;stroke-width:1.066978;stroke-linecap:butt;stroke-linejoin:round;stroke:rgb(100%,0%,0%);stroke-opacity:1;stroke-miterlimit:10;" d="M 177.261719 37.589844 L 183.496094 33.988281 L 177.261719 30.390625 Z M 177.261719 37.589844 "/>
<path style="fill:none;stroke-width:1.066978;stroke-linecap:butt;stroke-linejoin:round;stroke:rgb(0%,0%,100%);stroke-opacity:1;stroke-miterlimit:10;" d="M 183.496094 156.175781 L 183.496094 33.988281 "/>
<path style="fill-rule:nonzero;fill:rgb(0%,0%,100%);fill-opacity:1;stroke-width:1.066978;stroke-linecap:butt;stroke-linejoin:round;stroke:rgb(0%,0%,100%);stroke-opacity:1;stroke-miterlimit:10;" d="M 179.894531 149.941406 L 183.496094 156.175781 L 187.09375 149.941406 Z M 179.894531 149.941406 "/>
<path style="fill-rule:nonzero;fill:rgb(0%,0%,100%);fill-opacity:1;stroke-width:1.066978;stroke-linecap:butt;stroke-linejoin:round;stroke:rgb(0%,0%,100%);stroke-opacity:1;stroke-miterlimit:10;" d="M 187.09375 40.226562 L 183.496094 33.988281 L 179.894531 40.226562 Z M 187.09375 40.226562 "/>
<path style=" stroke:none;fill-rule:nonzero;fill:rgb(100%,0%,0%);fill-opacity:1;" d="M 119.679688 16.957031 L 122.164062 9.683594 L 123.15625 9.683594 L 125.652344 16.96875 L 125.652344 17.566406 L 119.679688 17.566406 Z M 122.648438 10.761719 L 122.59375 10.976562 L 122.542969 11.179688 L 122.488281 11.375 L 122.4375 11.566406 L 122.386719 11.746094 L 122.335938 11.921875 L 122.285156 12.085938 L 122.238281 12.246094 L 122.191406 12.398438 L 122.144531 12.542969 L 120.742188 16.691406 L 124.558594 16.691406 L 123.179688 12.585938 L 123.109375 12.371094 L 123.042969 12.164062 L 122.980469 11.964844 L 122.921875 11.773438 L 122.867188 11.585938 L 122.816406 11.410156 L 122.769531 11.238281 L 122.726562 11.070312 L 122.683594 10.914062 Z M 122.648438 10.761719 "/>
<path style=" stroke:none;fill-rule:nonzero;fill:rgb(100%,0%,0%);fill-opacity:1;" d="M 128.214844 14.542969 L 126.171875 11.648438 L 127.273438 11.648438 L 128.800781 13.878906 L 130.308594 11.648438 L 131.402344 11.648438 L 129.359375 14.542969 L 131.515625 17.566406 L 130.414062 17.566406 L 128.800781 15.203125 L 127.167969 17.566406 L 126.074219 17.566406 Z M 128.214844 14.542969 "/>
<path style=" stroke:none;fill-rule:nonzero;fill:rgb(0%,0%,100%);fill-opacity:1;" d="M 197 98.414062 L 199.484375 91.144531 L 200.476562 91.144531 L 202.972656 98.425781 L 202.972656 99.023438 L 197 99.023438 Z M 199.96875 92.222656 L 199.914062 92.433594 L 199.859375 92.636719 L 199.808594 92.832031 L 199.757812 93.023438 L 199.703125 93.203125 L 199.65625 93.378906 L 199.605469 93.546875 L 199.558594 93.703125 L 199.507812 93.855469 L 199.460938 94 L 198.0625 98.152344 L 201.878906 98.152344 L 200.496094 94.042969 L 200.425781 93.828125 L 200.359375 93.625 L 200.296875 93.425781 L 200.238281 93.230469 L 200.183594 93.046875 L 200.132812 92.867188 L 200.085938 92.695312 L 200.042969 92.53125 L 200.003906 92.371094 Z M 199.96875 92.222656 "/>
<path style=" stroke:none;fill-rule:nonzero;fill:rgb(0%,0%,100%);fill-opacity:1;" d="M 203.203125 93.105469 L 204.242188 93.105469 L 205.519531 96.472656 L 205.597656 96.6875 L 205.671875 96.890625 L 205.734375 97.082031 L 205.792969 97.261719 L 205.847656 97.425781 L 205.894531 97.582031 L 205.933594 97.726562 L 205.96875 97.859375 L 205.996094 97.976562 L 206.015625 98.085938 L 206.058594 98.085938 L 206.070312 98.042969 L 206.085938 97.992188 L 206.101562 97.933594 L 206.117188 97.871094 L 206.140625 97.800781 L 206.164062 97.722656 L 206.1875 97.636719 L 206.21875 97.546875 L 206.25 97.449219 L 206.28125 97.34375 L 206.316406 97.234375 L 206.347656 97.128906 L 206.378906 97.03125 L 206.410156 96.9375 L 206.441406 96.847656 L 206.46875 96.761719 L 206.496094 96.679688 L 206.523438 96.605469 L 206.546875 96.53125 L 206.574219 96.464844 L 207.773438 93.105469 L 208.820312 93.105469 L 206.269531 99.84375 L 206.195312 100.035156 L 206.117188 100.214844 L 206.035156 100.382812 L 205.949219 100.539062 L 205.863281 100.683594 L 205.773438 100.820312 L 205.679688 100.945312 L 205.585938 101.058594 L 205.488281 101.160156 L 205.386719 101.25 L 205.28125 101.332031 L 205.171875 101.402344 L 205.058594 101.46875 L 204.9375 101.523438 L 204.8125 101.570312 L 204.683594 101.609375 L 204.550781 101.636719 L 204.410156 101.660156 L 204.269531 101.671875 L 204.121094 101.675781 L 204.039062 101.675781 L 203.957031 101.671875 L 203.878906 101.667969 L 203.796875 101.660156 L 203.71875 101.652344 L 203.636719 101.644531 L 203.554688 101.632812 L 203.476562 101.617188 L 203.394531 101.601562 L 203.316406 101.585938 L 203.316406 100.8125 L 203.371094 100.824219 L 203.488281 100.847656 L 203.613281 100.863281 L 203.746094 100.871094 L 203.816406 100.875 L 203.890625 100.878906 L 203.964844 100.878906 L 204.054688 100.875 L 204.144531 100.867188 L 204.230469 100.855469 L 204.3125 100.835938 L 204.390625 100.8125 L 204.46875 100.785156 L 204.542969 100.75 L 204.617188 100.710938 L 204.683594 100.667969 L 204.75 100.621094 L 204.8125 100.566406 L 204.875 100.507812 L 204.933594 100.441406 L 204.992188 100.371094 L 205.042969 100.296875 L 205.097656 100.214844 L 205.144531 100.128906 L 205.191406 100.035156 L 205.238281 99.9375 L 205.277344 99.832031 L 205.585938 99.046875 Z M 203.203125 93.105469 "/>
<path style="fill:none;stroke-width:0.853583;stroke-linecap:butt;stroke-linejoin:round;stroke:rgb(0%,0%,0%);stroke-opacity:1;stroke-miterlimit:10;" d="M 40.648438 184.6875 L 40.648438 5.480469 "/>
<path style=" stroke:none;fill-rule:nonzero;fill:rgb(0%,0%,0%);fill-opacity:1;" d="M 18.675781 154.402344 L 19.429688 154.402344 L 20.355469 156.84375 L 20.414062 157 L 20.464844 157.148438 L 20.511719 157.285156 L 20.554688 157.414062 L 20.59375 157.535156 L 20.625 157.648438 L 20.65625 157.75 L 20.679688 157.847656 L 20.699219 157.933594 L 20.714844 158.011719 L 20.746094 158.011719 L 20.753906 157.980469 L 20.765625 157.945312 L 20.777344 157.902344 L 20.789062 157.855469 L 20.804688 157.804688 L 20.820312 157.75 L 20.839844 157.6875 L 20.859375 157.621094 L 20.882812 157.550781 L 20.90625 157.472656 L 20.933594 157.394531 L 20.957031 157.320312 L 20.980469 157.25 L 21 157.179688 L 21.023438 157.117188 L 21.042969 157.054688 L 21.082031 156.9375 L 21.101562 156.886719 L 21.117188 156.835938 L 21.988281 154.402344 L 22.746094 154.402344 L 20.898438 159.285156 L 20.84375 159.425781 L 20.789062 159.554688 L 20.730469 159.675781 L 20.667969 159.789062 L 20.605469 159.898438 L 20.539062 159.996094 L 20.472656 160.085938 L 20.402344 160.167969 L 20.332031 160.238281 L 20.257812 160.304688 L 20.183594 160.363281 L 20.105469 160.417969 L 20.019531 160.464844 L 19.933594 160.503906 L 19.84375 160.539062 L 19.75 160.566406 L 19.652344 160.585938 L 19.554688 160.601562 L 19.449219 160.609375 L 19.339844 160.613281 L 19.222656 160.613281 L 19.105469 160.605469 L 19.050781 160.597656 L 18.933594 160.582031 L 18.875 160.570312 L 18.816406 160.5625 L 18.757812 160.546875 L 18.757812 159.988281 L 18.800781 160 L 18.839844 160.007812 L 18.882812 160.011719 L 18.929688 160.019531 L 18.972656 160.023438 L 19.023438 160.027344 L 19.070312 160.03125 L 19.121094 160.035156 L 19.292969 160.035156 L 19.359375 160.027344 L 19.421875 160.019531 L 19.480469 160.007812 L 19.539062 159.988281 L 19.59375 159.96875 L 19.648438 159.945312 L 19.699219 159.917969 L 19.75 159.882812 L 19.796875 159.847656 L 19.84375 159.808594 L 19.886719 159.765625 L 19.929688 159.71875 L 19.972656 159.667969 L 20.011719 159.613281 L 20.046875 159.554688 L 20.085938 159.492188 L 20.117188 159.425781 L 20.148438 159.355469 L 20.179688 159.277344 L 20.402344 158.707031 Z M 18.675781 154.402344 "/>
<path style=" stroke:none;fill-rule:nonzero;fill:rgb(0%,0%,0%);fill-opacity:1;" d="M 23.292969 155.992188 L 23.292969 155.882812 L 23.296875 155.769531 L 23.304688 155.550781 L 23.3125 155.441406 L 23.316406 155.332031 L 23.328125 155.222656 L 23.335938 155.113281 L 23.347656 155.007812 L 23.359375 154.898438 L 23.390625 154.6875 L 23.429688 154.476562 L 23.449219 154.375 L 23.46875 154.269531 L 23.492188 154.167969 L 23.519531 154.066406 L 23.542969 153.964844 L 23.570312 153.863281 L 23.632812 153.667969 L 23.664062 153.566406 L 23.699219 153.472656 L 23.734375 153.375 L 23.769531 153.28125 L 23.808594 153.183594 L 23.847656 153.09375 L 23.886719 153 L 23.929688 152.90625 L 24.117188 152.546875 L 24.171875 152.460938 L 24.222656 152.375 L 24.332031 152.203125 L 24.449219 152.039062 L 25.097656 152.039062 L 25.046875 152.125 L 24.992188 152.210938 L 24.941406 152.300781 L 24.894531 152.386719 L 24.84375 152.476562 L 24.75 152.65625 L 24.707031 152.75 L 24.660156 152.839844 L 24.617188 152.933594 L 24.578125 153.027344 L 24.535156 153.125 L 24.496094 153.21875 L 24.355469 153.609375 L 24.324219 153.710938 L 24.292969 153.808594 L 24.261719 153.910156 L 24.207031 154.113281 L 24.183594 154.21875 L 24.160156 154.320312 L 24.136719 154.425781 L 24.117188 154.527344 L 24.097656 154.632812 L 24.078125 154.734375 L 24.046875 154.945312 L 24.011719 155.261719 L 23.988281 155.578125 L 23.976562 155.894531 L 23.976562 156 L 23.980469 156.21875 L 23.988281 156.433594 L 24.003906 156.648438 L 24.023438 156.863281 L 24.050781 157.078125 L 24.082031 157.289062 L 24.117188 157.5 L 24.160156 157.707031 L 24.207031 157.914062 L 24.261719 158.121094 L 24.386719 158.527344 L 24.457031 158.722656 L 24.535156 158.917969 L 24.617188 159.109375 L 24.703125 159.296875 L 24.796875 159.480469 L 24.894531 159.660156 L 24.996094 159.839844 L 25.105469 160.011719 L 24.449219 160.011719 L 24.390625 159.929688 L 24.332031 159.84375 L 24.222656 159.671875 L 24.171875 159.585938 L 24.117188 159.496094 L 24.070312 159.40625 L 23.929688 159.125 L 23.886719 159.03125 L 23.847656 158.9375 L 23.808594 158.839844 L 23.769531 158.746094 L 23.734375 158.648438 L 23.699219 158.546875 L 23.664062 158.449219 L 23.570312 158.144531 L 23.542969 158.042969 L 23.519531 157.9375 L 23.492188 157.835938 L 23.46875 157.730469 L 23.410156 157.414062 L 23.390625 157.304688 L 23.375 157.199219 L 23.359375 157.089844 L 23.347656 156.980469 L 23.335938 156.875 L 23.328125 156.765625 L 23.316406 156.65625 L 23.3125 156.546875 L 23.304688 156.433594 L 23.292969 156.105469 Z M 24.515625 153.714844 Z M 24.496094 151.519531 Z M 24.617188 160.832031 Z M 24.617188 160.832031 "/>
<path style=" stroke:none;fill-rule:nonzero;fill:rgb(0%,0%,0%);fill-opacity:1;" d="M 27.269531 156.5 L 25.789062 154.402344 L 26.589844 154.402344 L 27.695312 156.019531 L 28.789062 154.402344 L 29.582031 154.402344 L 28.101562 156.5 L 29.664062 158.691406 L 28.863281 158.691406 L 27.695312 156.980469 L 26.511719 158.691406 L 25.71875 158.691406 Z M 27.269531 156.5 "/>
<path style=" stroke:none;fill-rule:nonzero;fill:rgb(0%,0%,0%);fill-opacity:1;" d="M 31.75 160.195312 L 31.269531 160.195312 L 31.269531 157.339844 L 31.273438 157.3125 L 31.273438 157.152344 L 31.277344 157.128906 L 31.277344 157.050781 L 31.28125 157.023438 L 31.28125 156.925781 L 31.285156 156.902344 L 31.285156 156.832031 L 31.289062 156.8125 L 31.289062 156.710938 L 31.28125 156.71875 L 31.273438 156.730469 L 31.265625 156.738281 L 31.253906 156.746094 L 31.246094 156.757812 L 31.214844 156.789062 L 31.207031 156.792969 L 31.203125 156.800781 L 31.179688 156.824219 L 31.171875 156.828125 L 31.148438 156.851562 L 31.140625 156.855469 L 31.136719 156.863281 L 31.128906 156.871094 L 31.121094 156.875 L 31.089844 156.90625 L 31.082031 156.910156 L 31.042969 156.949219 L 31.03125 156.957031 L 31.023438 156.964844 L 31.011719 156.972656 L 30.992188 156.992188 L 30.980469 157 L 30.960938 157.019531 L 30.554688 157.351562 L 30.292969 157.011719 L 31.339844 156.195312 L 31.75 156.195312 Z M 31.75 160.195312 "/>
<path style=" stroke:none;fill-rule:nonzero;fill:rgb(0%,0%,0%);fill-opacity:1;" d="M 35.171875 156.058594 L 35.171875 156.171875 L 35.167969 156.28125 L 35.164062 156.394531 L 35.160156 156.503906 L 35.136719 156.832031 L 35.125 156.9375 L 35.113281 157.046875 L 35.101562 157.152344 L 35.085938 157.261719 L 35.054688 157.472656 L 35.035156 157.574219 L 35.015625 157.679688 L 34.992188 157.78125 L 34.96875 157.886719 L 34.945312 157.988281 L 34.917969 158.089844 L 34.890625 158.1875 L 34.863281 158.289062 L 34.800781 158.484375 L 34.730469 158.679688 L 34.695312 158.773438 L 34.617188 158.960938 L 34.574219 159.054688 L 34.53125 159.144531 L 34.488281 159.238281 L 34.394531 159.417969 L 34.34375 159.503906 L 34.292969 159.59375 L 34.242188 159.679688 L 34.1875 159.765625 L 34.132812 159.847656 L 34.015625 160.011719 L 33.367188 160.011719 L 33.421875 159.925781 L 33.523438 159.753906 L 33.574219 159.664062 L 33.621094 159.578125 L 33.667969 159.488281 L 33.714844 159.394531 L 33.761719 159.304688 L 33.890625 159.023438 L 33.929688 158.929688 L 33.96875 158.832031 L 34.003906 158.738281 L 34.042969 158.640625 L 34.078125 158.542969 L 34.109375 158.441406 L 34.140625 158.34375 L 34.203125 158.140625 L 34.257812 157.9375 L 34.304688 157.734375 L 34.328125 157.628906 L 34.347656 157.527344 L 34.367188 157.421875 L 34.386719 157.320312 L 34.417969 157.109375 L 34.453125 156.792969 L 34.476562 156.476562 L 34.484375 156.265625 L 34.488281 156.15625 L 34.488281 156.050781 L 34.484375 155.835938 L 34.476562 155.617188 L 34.460938 155.402344 L 34.441406 155.191406 L 34.417969 154.976562 L 34.386719 154.765625 L 34.347656 154.558594 L 34.304688 154.347656 L 34.257812 154.140625 L 34.203125 153.933594 L 34.144531 153.730469 L 34.078125 153.527344 L 34.007812 153.332031 L 33.929688 153.136719 L 33.847656 152.945312 L 33.761719 152.757812 L 33.667969 152.574219 L 33.570312 152.390625 L 33.46875 152.214844 L 33.359375 152.039062 L 34.015625 152.039062 L 34.074219 152.125 L 34.132812 152.207031 L 34.242188 152.378906 L 34.394531 152.648438 L 34.441406 152.738281 L 34.488281 152.832031 L 34.574219 153.019531 L 34.617188 153.117188 L 34.65625 153.210938 L 34.695312 153.308594 L 34.730469 153.40625 L 34.765625 153.507812 L 34.800781 153.605469 L 34.863281 153.808594 L 34.890625 153.910156 L 34.917969 154.015625 L 34.945312 154.117188 L 34.96875 154.222656 L 34.992188 154.324219 L 35.015625 154.429688 L 35.035156 154.535156 L 35.054688 154.644531 L 35.070312 154.75 L 35.085938 154.859375 L 35.101562 154.964844 L 35.125 155.183594 L 35.136719 155.289062 L 35.160156 155.617188 L 35.164062 155.726562 L 35.167969 155.839844 L 35.171875 155.949219 Z M 33.878906 153.714844 Z M 33.859375 151.519531 Z M 34.761719 160.832031 Z M 34.761719 160.832031 "/>
<path style=" stroke:none;fill-rule:nonzero;fill:rgb(0%,0%,0%);fill-opacity:1;" d="M 18.675781 32.214844 L 19.429688 32.214844 L 20.355469 34.65625 L 20.414062 34.8125 L 20.464844 34.960938 L 20.511719 35.097656 L 20.554688 35.226562 L 20.59375 35.347656 L 20.625 35.460938 L 20.65625 35.566406 L 20.679688 35.660156 L 20.699219 35.746094 L 20.714844 35.824219 L 20.746094 35.824219 L 20.753906 35.792969 L 20.765625 35.757812 L 20.789062 35.671875 L 20.820312 35.5625 L 20.839844 35.5 L 20.859375 35.433594 L 20.882812 35.363281 L 20.90625 35.285156 L 20.933594 35.207031 L 20.957031 35.132812 L 20.980469 35.0625 L 21 34.992188 L 21.023438 34.929688 L 21.042969 34.867188 L 21.082031 34.75 L 21.101562 34.699219 L 21.117188 34.648438 L 21.988281 32.214844 L 22.746094 32.214844 L 20.898438 37.097656 L 20.84375 37.238281 L 20.789062 37.367188 L 20.730469 37.488281 L 20.667969 37.605469 L 20.605469 37.710938 L 20.539062 37.808594 L 20.472656 37.898438 L 20.402344 37.980469 L 20.332031 38.054688 L 20.257812 38.117188 L 20.183594 38.175781 L 20.105469 38.230469 L 20.019531 38.277344 L 19.933594 38.316406 L 19.84375 38.351562 L 19.75 38.378906 L 19.652344 38.398438 L 19.554688 38.414062 L 19.449219 38.425781 L 19.222656 38.425781 L 19.105469 38.417969 L 19.050781 38.410156 L 18.875 38.386719 L 18.816406 38.375 L 18.757812 38.359375 L 18.757812 37.800781 L 18.800781 37.8125 L 18.839844 37.820312 L 18.882812 37.828125 L 18.929688 37.832031 L 18.972656 37.835938 L 19.023438 37.839844 L 19.070312 37.84375 L 19.121094 37.847656 L 19.292969 37.847656 L 19.359375 37.839844 L 19.421875 37.832031 L 19.480469 37.820312 L 19.539062 37.800781 L 19.59375 37.78125 L 19.648438 37.757812 L 19.699219 37.730469 L 19.75 37.699219 L 19.84375 37.621094 L 19.886719 37.582031 L 19.929688 37.535156 L 19.972656 37.480469 L 20.011719 37.425781 L 20.046875 37.367188 L 20.085938 37.304688 L 20.117188 37.238281 L 20.148438 37.167969 L 20.179688 37.089844 L 20.402344 36.519531 Z M 18.675781 32.214844 "/>
<path style=" stroke:none;fill-rule:nonzero;fill:rgb(0%,0%,0%);fill-opacity:1;" d="M 23.292969 33.804688 L 23.292969 33.695312 L 23.296875 33.582031 L 23.304688 33.363281 L 23.3125 33.253906 L 23.316406 33.144531 L 23.328125 33.035156 L 23.335938 32.925781 L 23.347656 32.820312 L 23.359375 32.710938 L 23.390625 32.5 L 23.429688 32.289062 L 23.449219 32.1875 L 23.46875 32.082031 L 23.492188 31.980469 L 23.519531 31.878906 L 23.542969 31.777344 L 23.570312 31.675781 L 23.664062 31.382812 L 23.734375 31.1875 L 23.769531 31.09375 L 23.886719 30.8125 L 23.929688 30.71875 L 24.117188 30.359375 L 24.171875 30.273438 L 24.222656 30.1875 L 24.277344 30.101562 L 24.332031 30.019531 L 24.390625 29.933594 L 24.449219 29.851562 L 25.097656 29.851562 L 25.046875 29.9375 L 24.992188 30.023438 L 24.941406 30.113281 L 24.894531 30.199219 L 24.84375 30.289062 L 24.75 30.46875 L 24.707031 30.5625 L 24.660156 30.652344 L 24.617188 30.746094 L 24.578125 30.839844 L 24.535156 30.9375 L 24.496094 31.03125 L 24.355469 31.421875 L 24.324219 31.523438 L 24.292969 31.621094 L 24.261719 31.722656 L 24.234375 31.824219 L 24.207031 31.929688 L 24.160156 32.132812 L 24.136719 32.238281 L 24.117188 32.339844 L 24.078125 32.550781 L 24.0625 32.652344 L 24.046875 32.757812 L 24.011719 33.074219 L 23.988281 33.390625 L 23.976562 33.707031 L 23.976562 33.8125 L 23.980469 34.03125 L 23.988281 34.246094 L 24.003906 34.460938 L 24.023438 34.675781 L 24.050781 34.890625 L 24.082031 35.101562 L 24.117188 35.3125 L 24.160156 35.519531 L 24.207031 35.726562 L 24.261719 35.933594 L 24.324219 36.140625 L 24.386719 36.339844 L 24.457031 36.535156 L 24.535156 36.730469 L 24.617188 36.921875 L 24.703125 37.109375 L 24.796875 37.292969 L 24.894531 37.472656 L 24.996094 37.652344 L 25.105469 37.824219 L 24.449219 37.824219 L 24.390625 37.742188 L 24.332031 37.65625 L 24.222656 37.484375 L 24.171875 37.398438 L 24.117188 37.308594 L 24.070312 37.21875 L 23.929688 36.9375 L 23.886719 36.84375 L 23.847656 36.75 L 23.808594 36.652344 L 23.769531 36.558594 L 23.734375 36.460938 L 23.699219 36.359375 L 23.664062 36.261719 L 23.570312 35.957031 L 23.542969 35.855469 L 23.519531 35.75 L 23.492188 35.648438 L 23.46875 35.542969 L 23.410156 35.226562 L 23.390625 35.117188 L 23.375 35.011719 L 23.359375 34.902344 L 23.347656 34.796875 L 23.335938 34.6875 L 23.328125 34.578125 L 23.316406 34.46875 L 23.3125 34.359375 L 23.304688 34.25 L 23.300781 34.136719 L 23.292969 33.917969 Z M 24.515625 31.527344 Z M 24.496094 29.332031 Z M 24.617188 38.644531 Z M 24.617188 38.644531 "/>
<path style=" stroke:none;fill-rule:nonzero;fill:rgb(0%,0%,0%);fill-opacity:1;" d="M 27.269531 34.3125 L 25.789062 32.214844 L 26.589844 32.214844 L 27.695312 33.832031 L 28.789062 32.214844 L 29.582031 32.214844 L 28.101562 34.3125 L 29.664062 36.503906 L 28.863281 36.503906 L 27.695312 34.792969 L 26.511719 36.503906 L 25.71875 36.503906 Z M 27.269531 34.3125 "/>
<path style=" stroke:none;fill-rule:nonzero;fill:rgb(0%,0%,0%);fill-opacity:1;" d="M 32.5625 38.007812 L 30.070312 38.007812 L 30.070312 37.578125 L 31.027344 36.539062 L 31.066406 36.496094 L 31.105469 36.449219 L 31.144531 36.410156 L 31.183594 36.367188 L 31.21875 36.328125 L 31.253906 36.285156 L 31.292969 36.246094 L 31.324219 36.207031 L 31.359375 36.171875 L 31.390625 36.132812 L 31.453125 36.0625 L 31.484375 36.023438 L 31.59375 35.882812 L 31.617188 35.84375 L 31.664062 35.773438 L 31.6875 35.742188 L 31.710938 35.707031 L 31.75 35.636719 L 31.765625 35.601562 L 31.785156 35.566406 L 31.800781 35.53125 L 31.8125 35.496094 L 31.828125 35.460938 L 31.851562 35.390625 L 31.863281 35.351562 L 31.871094 35.316406 L 31.886719 35.238281 L 31.890625 35.203125 L 31.894531 35.160156 L 31.898438 35.121094 L 31.898438 35.082031 L 31.902344 35.039062 L 31.898438 35.007812 L 31.898438 34.976562 L 31.894531 34.945312 L 31.894531 34.917969 L 31.890625 34.886719 L 31.882812 34.859375 L 31.878906 34.832031 L 31.871094 34.804688 L 31.863281 34.78125 L 31.855469 34.753906 L 31.832031 34.707031 L 31.824219 34.683594 L 31.808594 34.664062 L 31.796875 34.640625 L 31.785156 34.621094 L 31.753906 34.582031 L 31.703125 34.53125 L 31.683594 34.515625 L 31.667969 34.5 L 31.648438 34.484375 L 31.628906 34.472656 L 31.605469 34.457031 L 31.585938 34.445312 L 31.5625 34.4375 L 31.539062 34.425781 L 31.519531 34.417969 L 31.492188 34.40625 L 31.46875 34.402344 L 31.445312 34.394531 L 31.417969 34.386719 L 31.394531 34.382812 L 31.339844 34.375 L 31.3125 34.375 L 31.285156 34.371094 L 31.253906 34.371094 L 31.203125 34.375 L 31.152344 34.375 L 31.105469 34.382812 L 31.054688 34.390625 L 31.007812 34.398438 L 30.960938 34.410156 L 30.914062 34.425781 L 30.828125 34.457031 L 30.785156 34.480469 L 30.742188 34.5 L 30.703125 34.523438 L 30.660156 34.546875 L 30.621094 34.570312 L 30.503906 34.652344 L 30.386719 34.746094 L 30.109375 34.421875 L 30.132812 34.402344 L 30.152344 34.382812 L 30.199219 34.34375 L 30.222656 34.328125 L 30.269531 34.289062 L 30.292969 34.273438 L 30.320312 34.253906 L 30.34375 34.238281 L 30.371094 34.222656 L 30.394531 34.203125 L 30.503906 34.140625 L 30.53125 34.128906 L 30.558594 34.113281 L 30.585938 34.101562 L 30.617188 34.089844 L 30.644531 34.074219 L 30.675781 34.0625 L 30.703125 34.054688 L 30.765625 34.03125 L 30.796875 34.023438 L 30.828125 34.011719 L 30.921875 33.988281 L 30.953125 33.984375 L 30.988281 33.976562 L 31.019531 33.96875 L 31.054688 33.964844 L 31.085938 33.960938 L 31.15625 33.953125 L 31.363281 33.953125 L 31.414062 33.957031 L 31.460938 33.964844 L 31.511719 33.96875 L 31.558594 33.976562 L 31.601562 33.988281 L 31.648438 34 L 31.734375 34.023438 L 31.777344 34.039062 L 31.816406 34.058594 L 31.855469 34.074219 L 31.894531 34.09375 L 31.929688 34.117188 L 31.964844 34.136719 L 32 34.160156 L 32.03125 34.183594 L 32.125 34.265625 L 32.152344 34.296875 L 32.175781 34.328125 L 32.203125 34.359375 L 32.226562 34.390625 L 32.246094 34.425781 L 32.269531 34.460938 L 32.285156 34.496094 L 32.304688 34.535156 L 32.335938 34.613281 L 32.351562 34.65625 L 32.375 34.742188 L 32.390625 34.828125 L 32.398438 34.921875 L 32.402344 34.972656 L 32.402344 35.113281 L 32.398438 35.15625 L 32.390625 35.203125 L 32.386719 35.246094 L 32.378906 35.292969 L 32.34375 35.421875 L 32.328125 35.464844 L 32.316406 35.503906 L 32.300781 35.546875 L 32.261719 35.632812 L 32.246094 35.671875 L 32.222656 35.714844 L 32.203125 35.753906 L 32.15625 35.839844 L 32.128906 35.878906 L 32.105469 35.917969 L 32.078125 35.960938 L 32.050781 36 L 32.019531 36.042969 L 31.992188 36.082031 L 31.960938 36.121094 L 31.929688 36.164062 L 31.894531 36.203125 L 31.863281 36.246094 L 31.828125 36.285156 L 31.792969 36.328125 L 31.753906 36.371094 L 31.71875 36.410156 L 31.683594 36.453125 L 31.488281 36.667969 L 31.445312 36.714844 L 30.679688 37.53125 L 30.679688 37.550781 L 32.5625 37.550781 Z M 32.5625 38.007812 "/>
<path style=" stroke:none;fill-rule:nonzero;fill:rgb(0%,0%,0%);fill-opacity:1;" d="M 35.171875 33.871094 L 35.171875 33.984375 L 35.167969 34.09375 L 35.164062 34.207031 L 35.160156 34.316406 L 35.136719 34.644531 L 35.125 34.75 L 35.113281 34.859375 L 35.101562 34.964844 L 35.085938 35.074219 L 35.054688 35.285156 L 35.035156 35.390625 L 35.015625 35.492188 L 34.992188 35.597656 L 34.945312 35.800781 L 34.917969 35.902344 L 34.890625 36 L 34.863281 36.101562 L 34.800781 36.296875 L 34.730469 36.492188 L 34.695312 36.585938 L 34.617188 36.773438 L 34.574219 36.867188 L 34.53125 36.957031 L 34.488281 37.050781 L 34.394531 37.230469 L 34.34375 37.320312 L 34.242188 37.492188 L 34.1875 37.578125 L 34.132812 37.660156 L 34.015625 37.824219 L 33.367188 37.824219 L 33.421875 37.738281 L 33.523438 37.566406 L 33.574219 37.476562 L 33.621094 37.390625 L 33.667969 37.300781 L 33.714844 37.207031 L 33.761719 37.117188 L 33.890625 36.835938 L 33.929688 36.742188 L 33.96875 36.644531 L 34.003906 36.550781 L 34.042969 36.453125 L 34.078125 36.355469 L 34.109375 36.253906 L 34.140625 36.15625 L 34.203125 35.953125 L 34.257812 35.75 L 34.304688 35.546875 L 34.328125 35.441406 L 34.347656 35.339844 L 34.367188 35.234375 L 34.386719 35.132812 L 34.417969 34.921875 L 34.453125 34.605469 L 34.476562 34.289062 L 34.488281 33.972656 L 34.488281 33.863281 L 34.484375 33.648438 L 34.476562 33.429688 L 34.460938 33.214844 L 34.441406 33.003906 L 34.417969 32.789062 L 34.386719 32.578125 L 34.347656 32.371094 L 34.304688 32.160156 L 34.257812 31.953125 L 34.203125 31.746094 L 34.144531 31.542969 L 34.078125 31.34375 L 34.007812 31.144531 L 33.929688 30.949219 L 33.847656 30.757812 L 33.761719 30.570312 L 33.667969 30.386719 L 33.570312 30.207031 L 33.46875 30.027344 L 33.359375 29.851562 L 34.015625 29.851562 L 34.074219 29.9375 L 34.132812 30.019531 L 34.1875 30.105469 L 34.242188 30.195312 L 34.292969 30.28125 L 34.394531 30.460938 L 34.441406 30.554688 L 34.488281 30.644531 L 34.53125 30.738281 L 34.574219 30.835938 L 34.617188 30.929688 L 34.65625 31.023438 L 34.695312 31.121094 L 34.730469 31.21875 L 34.765625 31.320312 L 34.800781 31.417969 L 34.863281 31.621094 L 34.890625 31.722656 L 34.917969 31.828125 L 34.945312 31.929688 L 34.96875 32.035156 L 34.992188 32.136719 L 35.015625 32.242188 L 35.035156 32.347656 L 35.054688 32.457031 L 35.070312 32.5625 L 35.085938 32.671875 L 35.101562 32.777344 L 35.136719 33.105469 L 35.144531 33.210938 L 35.160156 33.429688 L 35.164062 33.542969 L 35.171875 33.761719 Z M 33.878906 31.527344 Z M 33.859375 29.332031 Z M 34.761719 38.644531 Z M 34.761719 38.644531 "/>
<path style="fill:none;stroke-width:1.066978;stroke-linecap:butt;stroke-linejoin:round;stroke:rgb(87.45098%,86.666667%,81.568627%);stroke-opacity:1;stroke-miterlimit:10;" d="M 37.910156 156.175781 L 40.648438 156.175781 "/>
<path style="fill:none;stroke-width:1.066978;stroke-linecap:butt;stroke-linejoin:round;stroke:rgb(87.45098%,86.666667%,81.568627%);stroke-opacity:1;stroke-miterlimit:10;" d="M 37.910156 33.988281 L 40.648438 33.988281 "/>
<path style="fill:none;stroke-width:0.853583;stroke-linecap:butt;stroke-linejoin:round;stroke:rgb(0%,0%,0%);stroke-opacity:1;stroke-miterlimit:10;" d="M 40.648438 184.6875 L 210.519531 184.6875 "/>
<path style="fill:none;stroke-width:1.066978;stroke-linecap:butt;stroke-linejoin:round;stroke:rgb(87.45098%,86.666667%,81.568627%);stroke-opacity:1;stroke-miterlimit:10;" d="M 67.675781 187.425781 L 67.675781 184.6875 "/>
<path style="fill:none;stroke-width:1.066978;stroke-linecap:butt;stroke-linejoin:round;stroke:rgb(87.45098%,86.666667%,81.568627%);stroke-opacity:1;stroke-miterlimit:10;" d="M 183.496094 187.425781 L 183.496094 184.6875 "/>
<path style=" stroke:none;fill-rule:nonzero;fill:rgb(0%,0%,0%);fill-opacity:1;" d="M 65.710938 191.714844 L 64.230469 189.617188 L 65.03125 189.617188 L 66.136719 191.234375 L 67.230469 189.617188 L 68.023438 189.617188 L 66.542969 191.714844 L 68.105469 193.90625 L 67.304688 193.90625 L 66.136719 192.195312 L 64.953125 193.90625 L 64.160156 193.90625 Z M 65.710938 191.714844 "/>
<path style=" stroke:none;fill-rule:nonzero;fill:rgb(0%,0%,0%);fill-opacity:1;" d="M 70.191406 195.410156 L 69.710938 195.410156 L 69.710938 192.582031 L 69.714844 192.554688 L 69.714844 192.394531 L 69.71875 192.367188 L 69.71875 192.289062 L 69.722656 192.265625 L 69.722656 192.140625 L 69.726562 192.117188 L 69.726562 192.046875 L 69.730469 192.027344 L 69.730469 191.945312 L 69.734375 191.925781 L 69.722656 191.933594 L 69.714844 191.945312 L 69.707031 191.953125 L 69.695312 191.960938 L 69.6875 191.972656 L 69.65625 192.003906 L 69.652344 192.011719 L 69.644531 192.015625 L 69.613281 192.046875 L 69.605469 192.050781 L 69.597656 192.058594 L 69.59375 192.066406 L 69.585938 192.070312 L 69.5625 192.09375 L 69.554688 192.097656 L 69.523438 192.128906 L 69.515625 192.132812 L 69.484375 192.164062 L 69.472656 192.171875 L 69.464844 192.179688 L 69.453125 192.1875 L 69.414062 192.226562 L 69.402344 192.234375 L 68.996094 192.566406 L 68.734375 192.230469 L 69.78125 191.410156 L 70.191406 191.410156 Z M 70.191406 195.410156 "/>
<path style=" stroke:none;fill-rule:nonzero;fill:rgb(0%,0%,0%);fill-opacity:1;" d="M 181.535156 191.714844 L 180.054688 189.617188 L 180.855469 189.617188 L 181.960938 191.234375 L 183.054688 189.617188 L 183.847656 189.617188 L 182.367188 191.714844 L 183.929688 193.90625 L 183.128906 193.90625 L 181.960938 192.195312 L 180.777344 193.90625 L 179.984375 193.90625 Z M 181.535156 191.714844 "/>
<path style=" stroke:none;fill-rule:nonzero;fill:rgb(0%,0%,0%);fill-opacity:1;" d="M 186.824219 195.410156 L 184.332031 195.410156 L 184.332031 194.980469 L 185.289062 193.941406 L 185.445312 193.769531 L 185.480469 193.730469 L 185.519531 193.6875 L 185.589844 193.609375 L 185.621094 193.574219 L 185.65625 193.535156 L 185.71875 193.464844 L 185.746094 193.425781 L 185.777344 193.390625 L 185.832031 193.320312 L 185.855469 193.285156 L 185.882812 193.246094 L 185.929688 193.175781 L 185.949219 193.144531 L 185.972656 193.109375 L 186.011719 193.039062 L 186.027344 193.003906 L 186.046875 192.96875 L 186.078125 192.898438 L 186.113281 192.792969 L 186.125 192.753906 L 186.132812 192.71875 L 186.148438 192.640625 L 186.152344 192.605469 L 186.15625 192.5625 L 186.164062 192.484375 L 186.164062 192.410156 L 186.160156 192.378906 L 186.160156 192.347656 L 186.15625 192.320312 L 186.152344 192.289062 L 186.148438 192.261719 L 186.132812 192.207031 L 186.125 192.183594 L 186.117188 192.15625 L 186.105469 192.132812 L 186.097656 192.109375 L 186.085938 192.085938 L 186.074219 192.066406 L 186.058594 192.042969 L 186.046875 192.023438 L 186.015625 191.984375 L 186 191.96875 L 185.984375 191.949219 L 185.964844 191.933594 L 185.949219 191.917969 L 185.910156 191.886719 L 185.890625 191.875 L 185.871094 191.859375 L 185.847656 191.847656 L 185.824219 191.839844 L 185.804688 191.828125 L 185.78125 191.820312 L 185.757812 191.808594 L 185.730469 191.804688 L 185.683594 191.789062 L 185.601562 191.777344 L 185.546875 191.777344 L 185.519531 191.773438 L 185.464844 191.777344 L 185.414062 191.777344 L 185.367188 191.785156 L 185.316406 191.792969 L 185.269531 191.800781 L 185.222656 191.8125 L 185.179688 191.828125 L 185.132812 191.84375 L 185.046875 191.882812 L 185.007812 191.902344 L 184.964844 191.925781 L 184.925781 191.949219 L 184.882812 191.972656 L 184.765625 192.054688 L 184.6875 192.117188 L 184.652344 192.148438 L 184.371094 191.824219 L 184.417969 191.785156 L 184.4375 191.765625 L 184.460938 191.746094 L 184.484375 191.730469 L 184.507812 191.710938 L 184.535156 191.691406 L 184.558594 191.675781 L 184.582031 191.65625 L 184.605469 191.640625 L 184.632812 191.625 L 184.660156 191.605469 L 184.683594 191.589844 L 184.765625 191.542969 L 184.792969 191.53125 L 184.820312 191.515625 L 184.847656 191.503906 L 184.878906 191.492188 L 184.90625 191.476562 L 184.9375 191.464844 L 184.964844 191.457031 L 185.027344 191.433594 L 185.058594 191.425781 L 185.089844 191.414062 L 185.183594 191.390625 L 185.214844 191.386719 L 185.25 191.378906 L 185.28125 191.371094 L 185.351562 191.363281 L 185.382812 191.359375 L 185.417969 191.355469 L 185.625 191.355469 L 185.675781 191.359375 L 185.726562 191.367188 L 185.773438 191.371094 L 185.820312 191.378906 L 185.867188 191.390625 L 185.996094 191.425781 L 186.039062 191.441406 L 186.078125 191.460938 L 186.117188 191.476562 L 186.15625 191.496094 L 186.191406 191.519531 L 186.230469 191.539062 L 186.261719 191.5625 L 186.296875 191.585938 L 186.328125 191.613281 L 186.355469 191.640625 L 186.386719 191.667969 L 186.441406 191.730469 L 186.488281 191.792969 L 186.511719 191.828125 L 186.550781 191.898438 L 186.566406 191.9375 L 186.585938 191.976562 L 186.601562 192.015625 L 186.636719 192.144531 L 186.652344 192.230469 L 186.660156 192.277344 L 186.664062 192.324219 L 186.664062 192.375 L 186.667969 192.421875 L 186.664062 192.46875 L 186.664062 192.515625 L 186.660156 192.558594 L 186.65625 192.605469 L 186.648438 192.648438 L 186.640625 192.695312 L 186.59375 192.867188 L 186.578125 192.90625 L 186.5625 192.949219 L 186.542969 192.992188 L 186.527344 193.035156 L 186.507812 193.074219 L 186.488281 193.117188 L 186.464844 193.15625 L 186.417969 193.242188 L 186.394531 193.28125 L 186.367188 193.320312 L 186.339844 193.363281 L 186.3125 193.402344 L 186.285156 193.445312 L 186.253906 193.484375 L 186.222656 193.527344 L 186.160156 193.605469 L 186.125 193.648438 L 186.089844 193.6875 L 186.019531 193.773438 L 185.980469 193.8125 L 185.945312 193.855469 L 185.75 194.070312 L 185.710938 194.117188 L 184.941406 194.933594 L 184.941406 194.953125 L 186.824219 194.953125 Z M 186.824219 195.410156 "/>
<path style=" stroke:none;fill-rule:nonzero;fill:rgb(86.27451%,19.607843%,18.431373%);fill-opacity:1;" d="M 123.097656 207.769531 L 124.980469 205.085938 L 123.144531 202.378906 L 124.253906 202.378906 L 125.605469 204.515625 L 126.851562 202.378906 L 128.003906 202.378906 L 126.234375 205 L 128.070312 207.769531 L 126.960938 207.769531 L 125.597656 205.648438 L 124.210938 207.769531 Z M 123.097656 207.769531 "/>
<path style=" stroke:none;fill-rule:nonzero;fill:rgb(86.27451%,19.607843%,18.431373%);fill-opacity:1;" d="M 15.839844 96.78125 L 12.9375 95.539062 L 7.789062 97.785156 L 7.789062 96.683594 L 11.792969 95 L 7.789062 93.484375 L 7.789062 92.382812 L 15.839844 95.683594 Z M 15.839844 96.78125 "/>
</g>
</svg>
