<?xml version="1.0" encoding="UTF-8"?>
<svg xmlns="http://www.w3.org/2000/svg" xmlns:xlink="http://www.w3.org/1999/xlink" width="345pt" height="381pt" viewBox="0 0 345 381" version="1.1">
<defs>
<clipPath id="clip1">
  <path d="M 59.039062 298 L 314.757812 298 L 314.757812 300 L 59.039062 300 Z M 59.039062 298 "/>
</clipPath>
<clipPath id="clip2">
  <path d="M 186 59.039062 L 188 59.039062 L 188 307.558594 L 186 307.558594 Z M 186 59.039062 "/>
</clipPath>
</defs>
<g id="surface36">
<rect x="0" y="0" width="345" height="381" style="fill:rgb(99.215686%,96.470588%,89.019608%);fill-opacity:1;stroke:none;"/>
<path style="fill:none;stroke-width:2.25;stroke-linecap:round;stroke-linejoin:round;stroke:rgb(0%,0%,100%);stroke-opacity:1;stroke-miterlimit:10;" d="M 68.511719 298.355469 L 72.457031 298.296875 L 76.402344 298.230469 L 80.351562 298.15625 L 84.296875 298.074219 L 88.242188 297.984375 L 92.1875 297.886719 L 96.136719 297.777344 L 100.082031 297.65625 L 104.027344 297.519531 L 107.972656 297.371094 L 111.921875 297.210938 L 115.867188 297.027344 L 119.8125 296.828125 L 123.757812 296.609375 L 127.707031 296.363281 L 131.652344 296.09375 L 135.597656 295.796875 L 139.542969 295.46875 L 143.492188 295.105469 L 147.4375 294.703125 L 151.382812 294.257812 L 155.328125 293.765625 L 159.277344 293.222656 L 163.222656 292.625 L 167.167969 291.960938 L 171.113281 291.230469 L 175.0625 290.417969 L 179.007812 289.523438 L 182.953125 288.535156 L 186.898438 287.441406 L 190.847656 286.234375 L 194.792969 284.898438 L 198.738281 283.425781 L 202.683594 281.792969 L 206.632812 279.992188 L 210.578125 278 L 214.523438 275.800781 L 218.46875 273.367188 L 222.417969 270.679688 L 226.363281 267.707031 L 230.308594 264.425781 L 234.253906 260.796875 L 238.203125 256.785156 L 242.148438 252.351562 L 246.09375 247.453125 L 250.039062 242.042969 L 253.988281 236.058594 L 257.933594 229.445312 L 261.878906 222.140625 L 265.824219 214.0625 L 269.773438 205.140625 L 273.71875 195.273438 L 277.664062 184.375 L 281.609375 172.324219 L 285.558594 159.011719 L 289.503906 144.296875 L 293.449219 128.035156 L 297.394531 110.058594 L 301.34375 90.195312 L 305.289062 68.246094 "/>
<path style="fill:none;stroke-width:0.75;stroke-linecap:round;stroke-linejoin:round;stroke:rgb(0%,0%,0%);stroke-opacity:1;stroke-miterlimit:10;" d="M 68.511719 307.558594 L 305.289062 307.558594 "/>
<path style="fill:none;stroke-width:0.75;stroke-linecap:round;stroke-linejoin:round;stroke:rgb(0%,0%,0%);stroke-opacity:1;stroke-miterlimit:10;" d="M 68.511719 307.558594 L 68.511719 314.761719 "/>
<path style="fill:none;stroke-width:0.75;stroke-linecap:round;stroke-linejoin:round;stroke:rgb(0%,0%,0%);stroke-opacity:1;stroke-miterlimit:10;" d="M 107.972656 307.558594 L 107.972656 314.761719 "/>
<path style="fill:none;stroke-width:0.75;stroke-linecap:round;stroke-linejoin:round;stroke:rgb(0%,0%,0%);stroke-opacity:1;stroke-miterlimit:10;" d="M 147.4375 307.558594 L 147.4375 314.761719 "/>
<path style="fill:none;stroke-width:0.75;stroke-linecap:round;stroke-linejoin:round;stroke:rgb(0%,0%,0%);stroke-opacity:1;stroke-miterlimit:10;" d="M 186.898438 307.558594 L 186.898438 314.761719 "/>
<path style="fill:none;stroke-width:0.75;stroke-linecap:round;stroke-linejoin:round;stroke:rgb(0%,0%,0%);stroke-opacity:1;stroke-miterlimit:10;" d="M 226.363281 307.558594 L 226.363281 314.761719 "/>
<path style="fill:none;stroke-width:0.75;stroke-linecap:round;stroke-linejoin:round;stroke:rgb(0%,0%,0%);stroke-opacity:1;stroke-miterlimit:10;" d="M 265.824219 307.558594 L 265.824219 314.761719 "/>
<path style="fill:none;stroke-width:0.75;stroke-linecap:round;stroke-linejoin:round;stroke:rgb(0%,0%,0%);stroke-opacity:1;stroke-miterlimit:10;" d="M 305.289062 307.558594 L 305.289062 314.761719 "/>
<path style=" stroke:none;fill-rule:nonzero;fill:rgb(0%,0%,0%);fill-opacity:1;" d="M 63.710938 330.761719 L 63.710938 329.824219 L 66.640625 329.824219 L 66.640625 330.761719 Z M 63.710938 330.761719 "/>
<path style=" stroke:none;fill-rule:nonzero;fill:rgb(0%,0%,0%);fill-opacity:1;" d="M 73.320312 331.199219 L 73.316406 331.3125 L 73.3125 331.421875 L 73.300781 331.53125 L 73.289062 331.636719 L 73.273438 331.738281 L 73.25 331.839844 L 73.226562 331.9375 L 73.199219 332.03125 L 73.167969 332.125 L 73.132812 332.214844 L 73.09375 332.300781 L 73.050781 332.386719 L 73.007812 332.46875 L 72.957031 332.550781 L 72.90625 332.625 L 72.851562 332.699219 L 72.789062 332.773438 L 72.726562 332.839844 L 72.660156 332.90625 L 72.59375 332.96875 L 72.519531 333.03125 L 72.445312 333.085938 L 72.367188 333.140625 L 72.28125 333.191406 L 72.195312 333.238281 L 72.105469 333.285156 L 72.015625 333.328125 L 71.917969 333.367188 L 71.816406 333.40625 L 71.714844 333.4375 L 71.609375 333.46875 L 71.5 333.496094 L 71.386719 333.519531 L 71.273438 333.539062 L 71.152344 333.558594 L 70.910156 333.582031 L 70.78125 333.589844 L 70.652344 333.59375 L 70.519531 333.597656 L 70.367188 333.59375 L 70.21875 333.589844 L 70.078125 333.582031 L 69.941406 333.566406 L 69.808594 333.550781 L 69.683594 333.53125 L 69.5625 333.503906 L 69.445312 333.476562 L 69.332031 333.445312 L 69.222656 333.410156 L 69.121094 333.371094 L 69.023438 333.328125 L 68.925781 333.28125 L 68.746094 333.1875 L 68.664062 333.136719 L 68.582031 333.082031 L 68.503906 333.023438 L 68.429688 332.964844 L 68.363281 332.90625 L 68.234375 332.777344 L 68.171875 332.707031 L 68.117188 332.640625 L 68.0625 332.570312 L 67.96875 332.421875 L 67.925781 332.347656 L 67.886719 332.269531 L 67.851562 332.191406 L 67.789062 332.027344 L 67.734375 331.863281 L 67.710938 331.78125 L 67.691406 331.699219 L 67.671875 331.613281 L 67.65625 331.527344 L 67.640625 331.445312 L 67.628906 331.359375 L 68.71875 331.257812 L 68.730469 331.324219 L 68.753906 331.449219 L 68.785156 331.574219 L 68.804688 331.632812 L 68.820312 331.691406 L 68.84375 331.746094 L 68.863281 331.800781 L 68.890625 331.855469 L 68.914062 331.910156 L 68.945312 331.960938 L 68.972656 332.011719 L 69.007812 332.058594 L 69.039062 332.109375 L 69.074219 332.152344 L 69.191406 332.28125 L 69.277344 332.359375 L 69.324219 332.394531 L 69.375 332.429688 L 69.476562 332.492188 L 69.585938 332.546875 L 69.644531 332.574219 L 69.707031 332.597656 L 69.769531 332.617188 L 69.832031 332.640625 L 69.898438 332.65625 L 70.039062 332.6875 L 70.113281 332.699219 L 70.269531 332.714844 L 70.347656 332.71875 L 70.433594 332.722656 L 70.519531 332.722656 L 70.675781 332.71875 L 70.824219 332.707031 L 70.964844 332.6875 L 71.101562 332.660156 L 71.226562 332.625 L 71.351562 332.582031 L 71.464844 332.53125 L 71.570312 332.472656 L 71.671875 332.40625 L 71.765625 332.332031 L 71.851562 332.25 L 71.929688 332.160156 L 72 332.0625 L 72.058594 331.957031 L 72.109375 331.84375 L 72.148438 331.722656 L 72.183594 331.59375 L 72.203125 331.460938 L 72.21875 331.316406 L 72.222656 331.164062 L 72.222656 331.074219 L 72.214844 330.988281 L 72.203125 330.90625 L 72.191406 330.828125 L 72.171875 330.753906 L 72.148438 330.683594 L 72.121094 330.613281 L 72.058594 330.488281 L 72.019531 330.433594 L 71.933594 330.324219 L 71.890625 330.277344 L 71.839844 330.230469 L 71.792969 330.183594 L 71.742188 330.140625 L 71.6875 330.101562 L 71.632812 330.066406 L 71.574219 330.03125 L 71.515625 330 L 71.453125 329.96875 L 71.328125 329.914062 L 71.265625 329.890625 L 71.199219 329.867188 L 71.066406 329.828125 L 71 329.8125 L 70.789062 329.777344 L 70.71875 329.769531 L 70.585938 329.753906 L 70.453125 329.746094 L 70.328125 329.738281 L 70.269531 329.738281 L 70.207031 329.734375 L 69.609375 329.734375 L 69.609375 328.820312 L 70.304688 328.820312 L 70.367188 328.816406 L 70.425781 328.8125 L 70.488281 328.808594 L 70.675781 328.785156 L 70.742188 328.773438 L 70.867188 328.75 L 70.929688 328.734375 L 71.054688 328.695312 L 71.113281 328.675781 L 71.171875 328.652344 L 71.226562 328.628906 L 71.28125 328.601562 L 71.445312 328.507812 L 71.496094 328.46875 L 71.542969 328.433594 L 71.636719 328.347656 L 71.679688 328.304688 L 71.71875 328.257812 L 71.796875 328.15625 L 71.832031 328.101562 L 71.894531 327.984375 L 71.921875 327.921875 L 71.960938 327.789062 L 71.992188 327.640625 L 72 327.5625 L 72.007812 327.398438 L 72.003906 327.269531 L 71.992188 327.144531 L 71.972656 327.027344 L 71.945312 326.914062 L 71.90625 326.804688 L 71.863281 326.703125 L 71.8125 326.609375 L 71.753906 326.519531 L 71.6875 326.433594 L 71.613281 326.355469 L 71.53125 326.28125 L 71.445312 326.214844 L 71.347656 326.15625 L 71.242188 326.109375 L 71.132812 326.066406 L 71.011719 326.03125 L 70.886719 326.003906 L 70.75 325.984375 L 70.609375 325.972656 L 70.460938 325.96875 L 70.324219 325.972656 L 70.191406 325.984375 L 70.066406 326 L 69.945312 326.027344 L 69.828125 326.058594 L 69.71875 326.097656 L 69.613281 326.144531 L 69.511719 326.195312 L 69.417969 326.257812 L 69.328125 326.324219 L 69.246094 326.398438 L 69.171875 326.480469 L 69.105469 326.566406 L 69.042969 326.660156 L 68.988281 326.757812 L 68.945312 326.859375 L 68.90625 326.96875 L 68.871094 327.085938 L 68.847656 327.207031 L 68.832031 327.332031 L 67.769531 327.25 L 67.800781 327.039062 L 67.824219 326.9375 L 67.847656 326.839844 L 67.875 326.742188 L 67.910156 326.648438 L 67.980469 326.46875 L 68.023438 326.382812 L 68.070312 326.300781 L 68.117188 326.222656 L 68.167969 326.144531 L 68.21875 326.074219 L 68.277344 326 L 68.332031 325.933594 L 68.394531 325.867188 L 68.457031 325.804688 L 68.589844 325.6875 L 68.660156 325.632812 L 68.808594 325.53125 L 68.886719 325.484375 L 68.96875 325.441406 L 69.046875 325.398438 L 69.132812 325.363281 L 69.21875 325.324219 L 69.304688 325.292969 L 69.394531 325.261719 L 69.488281 325.234375 L 69.578125 325.210938 L 69.675781 325.1875 L 69.769531 325.167969 L 69.867188 325.148438 L 69.964844 325.136719 L 70.0625 325.121094 L 70.265625 325.105469 L 70.367188 325.101562 L 70.605469 325.101562 L 70.738281 325.109375 L 70.867188 325.117188 L 70.992188 325.128906 L 71.113281 325.144531 L 71.230469 325.164062 L 71.34375 325.1875 L 71.453125 325.214844 L 71.558594 325.242188 L 71.660156 325.277344 L 71.757812 325.3125 L 71.851562 325.351562 L 71.941406 325.390625 L 72.03125 325.433594 L 72.113281 325.480469 L 72.191406 325.527344 L 72.269531 325.578125 L 72.410156 325.6875 L 72.476562 325.746094 L 72.535156 325.804688 L 72.59375 325.867188 L 72.648438 325.929688 L 72.699219 325.996094 L 72.75 326.066406 L 72.835938 326.207031 L 72.871094 326.28125 L 72.90625 326.359375 L 72.96875 326.515625 L 73.015625 326.679688 L 73.035156 326.765625 L 73.050781 326.847656 L 73.066406 326.933594 L 73.078125 327.019531 L 73.085938 327.109375 L 73.089844 327.195312 L 73.089844 327.359375 L 73.082031 327.5 L 73.074219 327.570312 L 73.066406 327.636719 L 73.054688 327.707031 L 73.042969 327.773438 L 73.027344 327.839844 L 73.007812 327.902344 L 72.992188 327.964844 L 72.945312 328.089844 L 72.921875 328.148438 L 72.894531 328.210938 L 72.863281 328.265625 L 72.832031 328.324219 L 72.796875 328.378906 L 72.761719 328.429688 L 72.722656 328.484375 L 72.636719 328.585938 L 72.542969 328.679688 L 72.492188 328.726562 L 72.441406 328.769531 L 72.382812 328.8125 L 72.328125 328.851562 L 72.265625 328.894531 L 72.207031 328.929688 L 72.140625 328.96875 L 72.007812 329.039062 L 71.933594 329.070312 L 71.863281 329.097656 L 71.785156 329.128906 L 71.707031 329.15625 L 71.625 329.179688 L 71.539062 329.203125 L 71.453125 329.222656 L 71.363281 329.242188 L 71.363281 329.265625 L 71.460938 329.277344 L 71.648438 329.308594 L 71.738281 329.328125 L 71.828125 329.351562 L 71.914062 329.375 L 71.996094 329.402344 L 72.074219 329.429688 L 72.152344 329.460938 L 72.230469 329.496094 L 72.371094 329.566406 L 72.503906 329.644531 L 72.566406 329.6875 L 72.625 329.730469 L 72.683594 329.777344 L 72.738281 329.824219 L 72.789062 329.871094 L 72.839844 329.921875 L 72.886719 329.976562 L 72.972656 330.085938 L 73.011719 330.140625 L 73.082031 330.257812 L 73.144531 330.382812 L 73.171875 330.445312 L 73.195312 330.507812 L 73.21875 330.574219 L 73.238281 330.640625 L 73.257812 330.710938 L 73.273438 330.777344 L 73.289062 330.847656 L 73.300781 330.914062 L 73.308594 330.984375 L 73.3125 331.058594 Z M 73.320312 331.199219 "/>
<path style=" stroke:none;fill-rule:nonzero;fill:rgb(0%,0%,0%);fill-opacity:1;" d="M 103.171875 330.761719 L 103.171875 329.824219 L 106.101562 329.824219 L 106.101562 330.761719 Z M 103.171875 330.761719 "/>
<path style=" stroke:none;fill-rule:nonzero;fill:rgb(0%,0%,0%);fill-opacity:1;" d="M 107.238281 333.480469 L 107.238281 332.734375 L 107.363281 332.46875 L 107.429688 332.339844 L 107.570312 332.089844 L 107.71875 331.855469 L 107.800781 331.742188 L 107.882812 331.636719 L 107.964844 331.527344 L 108.050781 331.425781 L 108.140625 331.320312 L 108.410156 331.027344 L 108.5 330.933594 L 108.59375 330.84375 L 108.683594 330.753906 L 108.777344 330.664062 L 108.875 330.578125 L 108.96875 330.496094 L 109.0625 330.410156 L 109.25 330.246094 L 109.53125 330.011719 L 109.8125 329.789062 L 109.902344 329.714844 L 109.996094 329.644531 L 110.082031 329.570312 L 110.171875 329.496094 L 110.257812 329.425781 L 110.339844 329.351562 L 110.421875 329.28125 L 110.578125 329.132812 L 110.65625 329.0625 L 110.726562 328.988281 L 110.800781 328.914062 L 110.867188 328.839844 L 110.992188 328.691406 L 111.109375 328.535156 L 111.210938 328.378906 L 111.257812 328.300781 L 111.304688 328.21875 L 111.34375 328.136719 L 111.378906 328.050781 L 111.410156 327.964844 L 111.457031 327.785156 L 111.472656 327.691406 L 111.484375 327.59375 L 111.492188 327.496094 L 111.492188 327.328125 L 111.484375 327.195312 L 111.476562 327.128906 L 111.464844 327.070312 L 111.453125 327.007812 L 111.441406 326.949219 L 111.425781 326.890625 L 111.386719 326.78125 L 111.316406 326.628906 L 111.289062 326.582031 L 111.257812 326.535156 L 111.195312 326.449219 L 111.160156 326.40625 L 111.121094 326.367188 L 111.042969 326.296875 L 111 326.261719 L 110.957031 326.230469 L 110.910156 326.203125 L 110.863281 326.171875 L 110.710938 326.101562 L 110.546875 326.042969 L 110.488281 326.027344 L 110.371094 326.003906 L 110.308594 325.992188 L 110.25 325.984375 L 110.183594 325.976562 L 110.121094 325.972656 L 110.054688 325.96875 L 109.925781 325.96875 L 109.738281 325.980469 L 109.679688 325.992188 L 109.621094 326 L 109.503906 326.023438 L 109.445312 326.039062 L 109.390625 326.054688 L 109.28125 326.09375 L 109.179688 326.140625 L 109.128906 326.167969 L 109.078125 326.191406 L 108.984375 326.253906 L 108.941406 326.285156 L 108.855469 326.355469 L 108.8125 326.394531 L 108.734375 326.472656 L 108.699219 326.519531 L 108.664062 326.5625 L 108.628906 326.609375 L 108.597656 326.65625 L 108.570312 326.707031 L 108.539062 326.757812 L 108.511719 326.8125 L 108.488281 326.867188 L 108.46875 326.921875 L 108.445312 326.980469 L 108.429688 327.039062 L 108.410156 327.101562 L 108.398438 327.164062 L 108.382812 327.226562 L 108.371094 327.292969 L 108.363281 327.363281 L 107.285156 327.261719 L 107.296875 327.175781 L 107.3125 327.085938 L 107.328125 327 L 107.351562 326.914062 L 107.375 326.832031 L 107.398438 326.746094 L 107.429688 326.664062 L 107.460938 326.585938 L 107.496094 326.503906 L 107.53125 326.425781 L 107.570312 326.347656 L 107.613281 326.273438 L 107.660156 326.199219 L 107.761719 326.058594 L 107.816406 325.988281 L 107.875 325.925781 L 107.933594 325.859375 L 108 325.800781 L 108.066406 325.738281 L 108.132812 325.679688 L 108.28125 325.570312 L 108.359375 325.519531 L 108.4375 325.472656 L 108.519531 325.425781 L 108.605469 325.382812 L 108.785156 325.304688 L 108.878906 325.269531 L 108.976562 325.238281 L 109.179688 325.183594 L 109.289062 325.164062 L 109.394531 325.144531 L 109.507812 325.128906 L 109.625 325.117188 L 109.742188 325.109375 L 109.863281 325.101562 L 110.109375 325.101562 L 110.226562 325.105469 L 110.34375 325.113281 L 110.457031 325.125 L 110.566406 325.136719 L 110.675781 325.152344 L 110.78125 325.171875 L 110.886719 325.195312 L 110.984375 325.21875 L 111.082031 325.246094 L 111.175781 325.277344 L 111.269531 325.3125 L 111.355469 325.347656 L 111.441406 325.386719 L 111.605469 325.472656 L 111.679688 325.523438 L 111.753906 325.570312 L 111.824219 325.625 L 111.890625 325.679688 L 111.957031 325.738281 L 112.019531 325.800781 L 112.078125 325.867188 L 112.132812 325.933594 L 112.234375 326.074219 L 112.28125 326.148438 L 112.324219 326.226562 L 112.402344 326.390625 L 112.464844 326.5625 L 112.492188 326.65625 L 112.53125 326.84375 L 112.546875 326.941406 L 112.5625 327.042969 L 112.570312 327.148438 L 112.574219 327.253906 L 112.578125 327.363281 L 112.570312 327.527344 L 112.5625 327.609375 L 112.550781 327.6875 L 112.539062 327.769531 L 112.523438 327.847656 L 112.503906 327.925781 L 112.480469 328.003906 L 112.425781 328.152344 L 112.363281 328.300781 L 112.328125 328.375 L 112.289062 328.449219 L 112.210938 328.589844 L 112.167969 328.660156 L 112.074219 328.800781 L 112.027344 328.867188 L 111.976562 328.9375 L 111.925781 329.003906 L 111.816406 329.136719 L 111.699219 329.269531 L 111.640625 329.332031 L 111.578125 329.398438 L 111.386719 329.589844 L 111.253906 329.714844 L 111.183594 329.777344 L 111.117188 329.839844 L 111.046875 329.902344 L 110.976562 329.960938 L 110.835938 330.085938 L 110.765625 330.144531 L 110.695312 330.207031 L 110.621094 330.265625 L 110.550781 330.324219 L 110.480469 330.386719 L 110.40625 330.445312 L 110.335938 330.503906 L 110.261719 330.5625 L 110.191406 330.625 L 110.117188 330.683594 L 110.046875 330.742188 L 109.972656 330.800781 L 109.902344 330.859375 L 109.832031 330.921875 L 109.691406 331.039062 L 109.492188 331.214844 L 109.425781 331.277344 L 109.359375 331.335938 L 109.296875 331.394531 L 109.175781 331.515625 L 109.117188 331.578125 L 109.058594 331.636719 L 109.003906 331.699219 L 108.949219 331.757812 L 108.894531 331.820312 L 108.742188 332.007812 L 108.695312 332.066406 L 108.648438 332.128906 L 108.609375 332.191406 L 108.566406 332.257812 L 108.527344 332.320312 L 108.492188 332.386719 L 108.460938 332.449219 L 108.398438 332.582031 L 112.707031 332.582031 L 112.707031 333.480469 Z M 107.238281 333.480469 "/>
<path style=" stroke:none;fill-rule:nonzero;fill:rgb(0%,0%,0%);fill-opacity:1;" d="M 142.636719 330.761719 L 142.636719 329.824219 L 145.566406 329.824219 L 145.566406 330.761719 Z M 142.636719 330.761719 "/>
<path style=" stroke:none;fill-rule:nonzero;fill:rgb(0%,0%,0%);fill-opacity:1;" d="M 147.011719 333.480469 L 147.011719 332.582031 L 149.117188 332.582031 L 149.117188 326.230469 L 147.253906 327.5625 L 147.253906 326.566406 L 149.203125 325.222656 L 150.175781 325.222656 L 150.175781 332.582031 L 152.1875 332.582031 L 152.1875 333.480469 Z M 147.011719 333.480469 "/>
<path style=" stroke:none;fill-rule:nonzero;fill:rgb(0%,0%,0%);fill-opacity:1;" d="M 189.769531 329.347656 L 189.765625 329.582031 L 189.757812 329.808594 L 189.746094 330.027344 L 189.730469 330.242188 L 189.710938 330.445312 L 189.6875 330.640625 L 189.65625 330.832031 L 189.621094 331.011719 L 189.582031 331.1875 L 189.539062 331.351562 L 189.492188 331.511719 L 189.445312 331.664062 L 189.390625 331.8125 L 189.335938 331.953125 L 189.273438 332.085938 L 189.210938 332.214844 L 189.144531 332.335938 L 189.074219 332.453125 L 189 332.5625 L 188.925781 332.664062 L 188.84375 332.761719 L 188.765625 332.855469 L 188.59375 333.019531 L 188.503906 333.09375 L 188.410156 333.160156 L 188.3125 333.226562 L 188.214844 333.28125 L 188.113281 333.335938 L 188.011719 333.378906 L 187.902344 333.421875 L 187.796875 333.457031 L 187.6875 333.492188 L 187.578125 333.519531 L 187.464844 333.542969 L 187.351562 333.5625 L 187.238281 333.578125 L 187.121094 333.589844 L 186.886719 333.597656 L 186.765625 333.59375 L 186.648438 333.589844 L 186.53125 333.578125 L 186.414062 333.5625 L 186.300781 333.542969 L 186.191406 333.519531 L 186.082031 333.492188 L 185.972656 333.457031 L 185.867188 333.421875 L 185.65625 333.335938 L 185.460938 333.226562 L 185.363281 333.160156 L 185.273438 333.09375 L 185.183594 333.019531 L 185.011719 332.855469 L 184.929688 332.761719 L 184.851562 332.664062 L 184.777344 332.5625 L 184.707031 332.453125 L 184.636719 332.339844 L 184.574219 332.21875 L 184.511719 332.089844 L 184.453125 331.957031 L 184.394531 331.816406 L 184.34375 331.671875 L 184.292969 331.515625 L 184.25 331.359375 L 184.207031 331.191406 L 184.171875 331.019531 L 184.136719 330.835938 L 184.109375 330.644531 L 184.085938 330.449219 L 184.066406 330.246094 L 184.050781 330.03125 L 184.039062 329.8125 L 184.035156 329.585938 L 184.03125 329.347656 L 184.035156 329.105469 L 184.039062 328.867188 L 184.050781 328.640625 L 184.066406 328.421875 L 184.085938 328.210938 L 184.109375 328.007812 L 184.136719 327.8125 L 184.171875 327.628906 L 184.207031 327.453125 L 184.25 327.285156 L 184.292969 327.125 L 184.34375 326.972656 L 184.398438 326.824219 L 184.453125 326.683594 L 184.511719 326.550781 L 184.574219 326.421875 L 184.640625 326.300781 L 184.710938 326.1875 L 184.78125 326.082031 L 184.859375 325.980469 L 184.9375 325.886719 L 185.019531 325.796875 L 185.101562 325.714844 L 185.191406 325.636719 L 185.28125 325.566406 L 185.371094 325.5 L 185.46875 325.441406 L 185.566406 325.390625 L 185.667969 325.34375 L 185.773438 325.300781 L 185.878906 325.261719 L 186.097656 325.199219 L 186.207031 325.171875 L 186.324219 325.152344 L 186.4375 325.132812 L 186.554688 325.117188 L 186.796875 325.101562 L 187.039062 325.101562 L 187.152344 325.109375 L 187.269531 325.117188 L 187.382812 325.132812 L 187.601562 325.171875 L 187.710938 325.199219 L 187.820312 325.230469 L 187.925781 325.261719 L 188.027344 325.300781 L 188.132812 325.34375 L 188.230469 325.390625 L 188.328125 325.441406 L 188.421875 325.5 L 188.515625 325.566406 L 188.605469 325.636719 L 188.691406 325.714844 L 188.777344 325.796875 L 188.859375 325.886719 L 188.9375 325.980469 L 189.011719 326.082031 L 189.085938 326.1875 L 189.152344 326.300781 L 189.21875 326.421875 L 189.28125 326.550781 L 189.339844 326.683594 L 189.398438 326.824219 L 189.449219 326.972656 L 189.5 327.125 L 189.546875 327.285156 L 189.585938 327.453125 L 189.625 327.628906 L 189.660156 327.8125 L 189.6875 328.007812 L 189.710938 328.210938 L 189.734375 328.421875 L 189.75 328.640625 L 189.757812 328.867188 L 189.765625 329.105469 Z M 188.695312 329.347656 L 188.695312 329.15625 L 188.691406 328.96875 L 188.683594 328.789062 L 188.675781 328.613281 L 188.667969 328.449219 L 188.652344 328.289062 L 188.636719 328.132812 L 188.621094 327.988281 L 188.601562 327.847656 L 188.578125 327.714844 L 188.554688 327.585938 L 188.527344 327.460938 L 188.5 327.34375 L 188.46875 327.234375 L 188.433594 327.125 L 188.398438 327.023438 L 188.359375 326.925781 L 188.320312 326.835938 L 188.277344 326.75 L 188.234375 326.671875 L 188.1875 326.59375 L 188.136719 326.523438 L 188.085938 326.457031 L 188.035156 326.394531 L 187.976562 326.335938 L 187.921875 326.285156 L 187.863281 326.238281 L 187.800781 326.191406 L 187.734375 326.15625 L 187.671875 326.121094 L 187.605469 326.089844 L 187.464844 326.035156 L 187.394531 326.015625 L 187.320312 325.996094 L 187.164062 325.972656 L 187.085938 325.964844 L 187.003906 325.957031 L 186.832031 325.957031 L 186.746094 325.964844 L 186.664062 325.972656 L 186.5 325.996094 L 186.425781 326.015625 L 186.347656 326.035156 L 186.277344 326.0625 L 186.203125 326.089844 L 186.136719 326.121094 L 186.070312 326.15625 L 186.003906 326.195312 L 185.941406 326.238281 L 185.878906 326.289062 L 185.820312 326.34375 L 185.765625 326.398438 L 185.710938 326.460938 L 185.609375 326.601562 L 185.5625 326.675781 L 185.515625 326.757812 L 185.472656 326.84375 L 185.433594 326.933594 L 185.394531 327.03125 L 185.359375 327.132812 L 185.328125 327.238281 L 185.296875 327.351562 L 185.265625 327.46875 L 185.238281 327.589844 L 185.214844 327.71875 L 185.191406 327.855469 L 185.171875 327.992188 L 185.15625 328.140625 L 185.140625 328.292969 L 185.128906 328.453125 L 185.117188 328.617188 L 185.109375 328.792969 L 185.101562 328.972656 L 185.097656 329.15625 L 185.097656 329.535156 L 185.101562 329.71875 L 185.117188 330.0625 L 185.128906 330.222656 L 185.140625 330.378906 L 185.15625 330.53125 L 185.171875 330.675781 L 185.191406 330.816406 L 185.214844 330.949219 L 185.242188 331.078125 L 185.269531 331.199219 L 185.296875 331.316406 L 185.332031 331.429688 L 185.363281 331.535156 L 185.402344 331.636719 L 185.4375 331.734375 L 185.480469 331.828125 L 185.523438 331.914062 L 185.566406 331.996094 L 185.613281 332.074219 L 185.714844 332.214844 L 185.769531 332.277344 L 185.882812 332.390625 L 185.945312 332.441406 L 186.003906 332.488281 L 186.136719 332.566406 L 186.203125 332.597656 L 186.273438 332.628906 L 186.34375 332.652344 L 186.417969 332.675781 L 186.492188 332.695312 L 186.648438 332.71875 L 186.730469 332.730469 L 186.8125 332.734375 L 186.980469 332.734375 L 187.058594 332.730469 L 187.140625 332.71875 L 187.214844 332.707031 L 187.292969 332.695312 L 187.367188 332.675781 L 187.4375 332.652344 L 187.511719 332.628906 L 187.578125 332.597656 L 187.648438 332.566406 L 187.710938 332.527344 L 187.777344 332.488281 L 187.839844 332.441406 L 187.898438 332.390625 L 188.011719 332.277344 L 188.0625 332.214844 L 188.164062 332.074219 L 188.210938 331.996094 L 188.253906 331.914062 L 188.300781 331.828125 L 188.339844 331.734375 L 188.378906 331.636719 L 188.417969 331.535156 L 188.449219 331.429688 L 188.484375 331.316406 L 188.511719 331.199219 L 188.542969 331.078125 L 188.566406 330.949219 L 188.589844 330.816406 L 188.613281 330.675781 L 188.632812 330.53125 L 188.648438 330.378906 L 188.664062 330.222656 L 188.675781 330.0625 L 188.691406 329.71875 L 188.695312 329.535156 Z M 188.695312 329.347656 "/>
<path style=" stroke:none;fill-rule:nonzero;fill:rgb(0%,0%,0%);fill-opacity:1;" d="M 223.941406 333.480469 L 223.941406 332.582031 L 226.042969 332.582031 L 226.042969 326.230469 L 224.179688 327.5625 L 224.179688 326.566406 L 226.132812 325.222656 L 227.105469 325.222656 L 227.105469 332.582031 L 229.113281 332.582031 L 229.113281 333.480469 Z M 223.941406 333.480469 "/>
<path style=" stroke:none;fill-rule:nonzero;fill:rgb(0%,0%,0%);fill-opacity:1;" d="M 263.09375 333.480469 L 263.09375 332.734375 L 263.152344 332.601562 L 263.21875 332.46875 L 263.285156 332.339844 L 263.351562 332.214844 L 263.421875 332.089844 L 263.496094 331.972656 L 263.574219 331.855469 L 263.652344 331.742188 L 263.734375 331.636719 L 263.820312 331.527344 L 263.90625 331.425781 L 263.996094 331.320312 L 264.082031 331.222656 L 264.261719 331.027344 L 264.445312 330.84375 L 264.632812 330.664062 L 264.726562 330.578125 L 264.820312 330.496094 L 264.917969 330.410156 L 265.105469 330.246094 L 265.386719 330.011719 L 265.480469 329.9375 L 265.570312 329.863281 L 265.757812 329.714844 L 265.847656 329.644531 L 265.9375 329.570312 L 266.023438 329.496094 L 266.109375 329.425781 L 266.195312 329.351562 L 266.273438 329.28125 L 266.355469 329.207031 L 266.433594 329.132812 L 266.507812 329.0625 L 266.582031 328.988281 L 266.652344 328.914062 L 266.785156 328.765625 L 266.847656 328.691406 L 266.90625 328.613281 L 267.015625 328.457031 L 267.066406 328.378906 L 267.113281 328.300781 L 267.15625 328.21875 L 267.195312 328.136719 L 267.230469 328.050781 L 267.261719 327.964844 L 267.289062 327.875 L 267.308594 327.785156 L 267.324219 327.691406 L 267.335938 327.59375 L 267.34375 327.496094 L 267.347656 327.398438 L 267.34375 327.328125 L 267.34375 327.261719 L 267.328125 327.128906 L 267.320312 327.070312 L 267.308594 327.007812 L 267.277344 326.890625 L 267.261719 326.835938 L 267.242188 326.78125 L 267.195312 326.679688 L 267.167969 326.628906 L 267.113281 326.535156 L 267.082031 326.492188 L 267.011719 326.40625 L 266.976562 326.367188 L 266.9375 326.332031 L 266.851562 326.261719 L 266.808594 326.230469 L 266.765625 326.203125 L 266.714844 326.171875 L 266.667969 326.148438 L 266.566406 326.101562 L 266.457031 326.0625 L 266.398438 326.042969 L 266.34375 326.027344 L 266.226562 326.003906 L 266.164062 325.992188 L 266.039062 325.976562 L 265.90625 325.96875 L 265.777344 325.96875 L 265.652344 325.976562 L 265.59375 325.980469 L 265.53125 325.992188 L 265.472656 326 L 265.355469 326.023438 L 265.300781 326.039062 L 265.242188 326.054688 L 265.1875 326.074219 L 265.136719 326.09375 L 265.082031 326.117188 L 265.03125 326.140625 L 264.980469 326.167969 L 264.933594 326.191406 L 264.792969 326.285156 L 264.707031 326.355469 L 264.589844 326.472656 L 264.554688 326.519531 L 264.519531 326.5625 L 264.484375 326.609375 L 264.453125 326.65625 L 264.421875 326.707031 L 264.394531 326.757812 L 264.367188 326.8125 L 264.320312 326.921875 L 264.28125 327.039062 L 264.25 327.164062 L 264.238281 327.226562 L 264.226562 327.292969 L 264.21875 327.363281 L 263.140625 327.261719 L 263.152344 327.175781 L 263.167969 327.085938 L 263.183594 327 L 263.203125 326.914062 L 263.226562 326.832031 L 263.253906 326.746094 L 263.28125 326.664062 L 263.3125 326.585938 L 263.347656 326.503906 L 263.425781 326.347656 L 263.46875 326.273438 L 263.515625 326.199219 L 263.5625 326.128906 L 263.671875 325.988281 L 263.726562 325.925781 L 263.789062 325.859375 L 263.851562 325.800781 L 263.917969 325.738281 L 263.988281 325.679688 L 264.058594 325.625 L 264.132812 325.570312 L 264.210938 325.519531 L 264.375 325.425781 L 264.460938 325.382812 L 264.546875 325.34375 L 264.640625 325.304688 L 264.734375 325.269531 L 264.832031 325.238281 L 264.929688 325.210938 L 265.035156 325.183594 L 265.140625 325.164062 L 265.25 325.144531 L 265.363281 325.128906 L 265.476562 325.117188 L 265.59375 325.109375 L 265.714844 325.101562 L 265.960938 325.101562 L 266.082031 325.105469 L 266.199219 325.113281 L 266.3125 325.125 L 266.421875 325.136719 L 266.53125 325.152344 L 266.636719 325.171875 L 266.839844 325.21875 L 266.9375 325.246094 L 267.03125 325.277344 L 267.210938 325.347656 L 267.296875 325.386719 L 267.378906 325.429688 L 267.457031 325.472656 L 267.535156 325.523438 L 267.609375 325.570312 L 267.675781 325.625 L 267.746094 325.679688 L 267.808594 325.738281 L 267.871094 325.800781 L 267.988281 325.933594 L 268.089844 326.074219 L 268.136719 326.148438 L 268.179688 326.226562 L 268.21875 326.308594 L 268.253906 326.390625 L 268.289062 326.476562 L 268.316406 326.5625 L 268.34375 326.65625 L 268.367188 326.75 L 268.386719 326.84375 L 268.402344 326.941406 L 268.414062 327.042969 L 268.429688 327.253906 L 268.429688 327.445312 L 268.425781 327.527344 L 268.417969 327.609375 L 268.40625 327.6875 L 268.390625 327.769531 L 268.375 327.847656 L 268.355469 327.925781 L 268.332031 328.003906 L 268.308594 328.078125 L 268.214844 328.300781 L 268.144531 328.449219 L 268.105469 328.519531 L 267.976562 328.730469 L 267.929688 328.800781 L 267.878906 328.867188 L 267.828125 328.9375 L 267.777344 329.003906 L 267.613281 329.203125 L 267.554688 329.269531 L 267.496094 329.332031 L 267.433594 329.398438 L 267.371094 329.460938 L 267.304688 329.523438 L 267.238281 329.589844 L 267.039062 329.777344 L 266.96875 329.839844 L 266.902344 329.902344 L 266.832031 329.960938 L 266.691406 330.085938 L 266.621094 330.144531 L 266.546875 330.207031 L 266.40625 330.324219 L 266.332031 330.386719 L 266.261719 330.445312 L 266.1875 330.503906 L 266.117188 330.5625 L 266.042969 330.625 L 265.972656 330.683594 L 265.898438 330.742188 L 265.828125 330.800781 L 265.753906 330.859375 L 265.683594 330.921875 L 265.613281 330.980469 L 265.546875 331.039062 L 265.476562 331.097656 L 265.34375 331.214844 L 265.277344 331.277344 L 265.152344 331.394531 L 265.03125 331.515625 L 264.972656 331.578125 L 264.914062 331.636719 L 264.855469 331.699219 L 264.800781 331.757812 L 264.75 331.820312 L 264.695312 331.882812 L 264.644531 331.945312 L 264.597656 332.007812 L 264.550781 332.066406 L 264.503906 332.128906 L 264.460938 332.191406 L 264.421875 332.257812 L 264.382812 332.320312 L 264.347656 332.386719 L 264.3125 332.449219 L 264.28125 332.515625 L 264.253906 332.582031 L 268.558594 332.582031 L 268.558594 333.480469 Z M 263.09375 333.480469 "/>
<path style=" stroke:none;fill-rule:nonzero;fill:rgb(0%,0%,0%);fill-opacity:1;" d="M 308.097656 331.199219 L 308.097656 331.3125 L 308.082031 331.53125 L 308.070312 331.636719 L 308.03125 331.839844 L 308.007812 331.9375 L 307.945312 332.125 L 307.910156 332.214844 L 307.832031 332.386719 L 307.738281 332.550781 L 307.628906 332.699219 L 307.570312 332.773438 L 307.507812 332.839844 L 307.441406 332.90625 L 307.300781 333.03125 L 307.144531 333.140625 L 307.0625 333.191406 L 306.976562 333.238281 L 306.886719 333.285156 L 306.792969 333.328125 L 306.597656 333.40625 L 306.386719 333.46875 L 306.277344 333.496094 L 306.167969 333.519531 L 305.933594 333.558594 L 305.8125 333.570312 L 305.6875 333.582031 L 305.5625 333.589844 L 305.296875 333.597656 L 305 333.589844 L 304.859375 333.582031 L 304.722656 333.566406 L 304.589844 333.550781 L 304.464844 333.53125 L 304.339844 333.503906 L 304.222656 333.476562 L 304.109375 333.445312 L 304.003906 333.410156 L 303.898438 333.371094 L 303.800781 333.328125 L 303.613281 333.234375 L 303.527344 333.1875 L 303.441406 333.136719 L 303.363281 333.082031 L 303.285156 333.023438 L 303.210938 332.964844 L 303.140625 332.90625 L 303.011719 332.777344 L 302.953125 332.707031 L 302.898438 332.640625 L 302.84375 332.570312 L 302.792969 332.496094 L 302.707031 332.347656 L 302.667969 332.269531 L 302.632812 332.191406 L 302.597656 332.109375 L 302.570312 332.027344 L 302.539062 331.945312 L 302.46875 331.699219 L 302.453125 331.613281 L 302.433594 331.527344 L 302.421875 331.445312 L 302.410156 331.359375 L 303.5 331.257812 L 303.507812 331.324219 L 303.519531 331.386719 L 303.535156 331.449219 L 303.546875 331.511719 L 303.566406 331.574219 L 303.582031 331.632812 L 303.601562 331.691406 L 303.621094 331.746094 L 303.667969 331.855469 L 303.695312 331.910156 L 303.722656 331.960938 L 303.753906 332.011719 L 303.785156 332.058594 L 303.820312 332.109375 L 303.890625 332.195312 L 303.929688 332.238281 L 303.972656 332.28125 L 304.058594 332.359375 L 304.152344 332.429688 L 304.203125 332.460938 L 304.257812 332.492188 L 304.308594 332.519531 L 304.425781 332.574219 L 304.484375 332.597656 L 304.546875 332.617188 L 304.613281 332.640625 L 304.679688 332.65625 L 304.820312 332.6875 L 304.894531 332.699219 L 304.96875 332.707031 L 305.046875 332.714844 L 305.210938 332.722656 L 305.296875 332.722656 L 305.453125 332.71875 L 305.601562 332.707031 L 305.746094 332.6875 L 305.878906 332.660156 L 306.007812 332.625 L 306.128906 332.582031 L 306.242188 332.53125 L 306.351562 332.472656 L 306.453125 332.40625 L 306.546875 332.332031 L 306.632812 332.25 L 306.710938 332.160156 L 306.777344 332.0625 L 306.839844 331.957031 L 306.886719 331.84375 L 306.929688 331.722656 L 306.960938 331.59375 L 306.984375 331.460938 L 307 331.316406 L 307.003906 331.164062 L 307 331.074219 L 306.996094 330.988281 L 306.984375 330.90625 L 306.96875 330.828125 L 306.953125 330.753906 L 306.929688 330.683594 L 306.902344 330.613281 L 306.871094 330.550781 L 306.835938 330.488281 L 306.757812 330.378906 L 306.714844 330.324219 L 306.621094 330.230469 L 306.570312 330.183594 L 306.519531 330.140625 L 306.46875 330.101562 L 306.410156 330.066406 L 306.355469 330.03125 L 306.292969 330 L 306.234375 329.96875 L 306.109375 329.914062 L 306.046875 329.890625 L 305.980469 329.867188 L 305.847656 329.828125 L 305.777344 329.8125 L 305.566406 329.777344 L 305.5 329.769531 L 305.429688 329.761719 L 305.363281 329.753906 L 305.300781 329.75 L 305.234375 329.746094 L 305.109375 329.738281 L 305.046875 329.738281 L 304.988281 329.734375 L 304.390625 329.734375 L 304.390625 328.820312 L 305.085938 328.820312 L 305.144531 328.816406 L 305.269531 328.808594 L 305.457031 328.785156 L 305.519531 328.773438 L 305.585938 328.761719 L 305.648438 328.75 L 305.710938 328.734375 L 305.773438 328.714844 L 305.890625 328.675781 L 306.007812 328.628906 L 306.0625 328.601562 L 306.171875 328.539062 L 306.222656 328.507812 L 306.273438 328.46875 L 306.324219 328.433594 L 306.371094 328.390625 L 306.457031 328.304688 L 306.5 328.257812 L 306.539062 328.207031 L 306.574219 328.15625 L 306.609375 328.101562 L 306.644531 328.042969 L 306.671875 327.984375 L 306.699219 327.921875 L 306.722656 327.855469 L 306.742188 327.789062 L 306.757812 327.714844 L 306.769531 327.640625 L 306.777344 327.5625 L 306.785156 327.480469 L 306.785156 327.398438 L 306.78125 327.269531 L 306.769531 327.144531 L 306.75 327.027344 L 306.722656 326.914062 L 306.6875 326.804688 L 306.644531 326.703125 L 306.59375 326.609375 L 306.535156 326.519531 L 306.46875 326.433594 L 306.394531 326.355469 L 306.3125 326.28125 L 306.222656 326.214844 L 306.128906 326.15625 L 306.023438 326.109375 L 305.910156 326.066406 L 305.792969 326.03125 L 305.664062 326.003906 L 305.53125 325.984375 L 305.390625 325.972656 L 305.238281 325.96875 L 305.101562 325.972656 L 304.972656 325.984375 L 304.84375 326 L 304.722656 326.027344 L 304.609375 326.058594 L 304.496094 326.097656 L 304.390625 326.144531 L 304.292969 326.195312 L 304.199219 326.257812 L 304.109375 326.324219 L 304.027344 326.398438 L 303.953125 326.480469 L 303.882812 326.566406 L 303.824219 326.660156 L 303.769531 326.757812 L 303.722656 326.859375 L 303.683594 326.96875 L 303.652344 327.085938 L 303.628906 327.207031 L 303.609375 327.332031 L 302.550781 327.25 L 302.5625 327.144531 L 302.582031 327.039062 L 302.605469 326.9375 L 302.628906 326.839844 L 302.65625 326.742188 L 302.6875 326.648438 L 302.722656 326.558594 L 302.761719 326.46875 L 302.804688 326.382812 L 302.847656 326.300781 L 302.898438 326.222656 L 302.945312 326.144531 L 303 326.074219 L 303.054688 326 L 303.113281 325.933594 L 303.175781 325.867188 L 303.238281 325.804688 L 303.300781 325.746094 L 303.371094 325.6875 L 303.441406 325.632812 L 303.589844 325.53125 L 303.667969 325.484375 L 303.746094 325.441406 L 303.828125 325.398438 L 303.910156 325.363281 L 303.996094 325.324219 L 304.175781 325.261719 L 304.265625 325.234375 L 304.453125 325.1875 L 304.550781 325.167969 L 304.644531 325.148438 L 304.742188 325.136719 L 304.84375 325.121094 L 304.941406 325.113281 L 305.042969 325.105469 L 305.148438 325.101562 L 305.386719 325.101562 L 305.519531 325.109375 L 305.648438 325.117188 L 305.773438 325.128906 L 305.894531 325.144531 L 306.011719 325.164062 L 306.125 325.1875 L 306.234375 325.214844 L 306.339844 325.242188 L 306.441406 325.277344 L 306.539062 325.3125 L 306.632812 325.351562 L 306.722656 325.390625 L 306.808594 325.433594 L 306.894531 325.480469 L 306.972656 325.527344 L 307.046875 325.578125 L 307.121094 325.632812 L 307.191406 325.6875 L 307.316406 325.804688 L 307.375 325.867188 L 307.429688 325.929688 L 307.480469 325.996094 L 307.574219 326.136719 L 307.613281 326.207031 L 307.652344 326.28125 L 307.6875 326.359375 L 307.71875 326.4375 L 307.746094 326.515625 L 307.773438 326.597656 L 307.796875 326.679688 L 307.816406 326.765625 L 307.832031 326.847656 L 307.855469 327.019531 L 307.863281 327.109375 L 307.867188 327.195312 L 307.871094 327.285156 L 307.867188 327.359375 L 307.867188 327.429688 L 307.859375 327.5 L 307.855469 327.570312 L 307.84375 327.636719 L 307.835938 327.707031 L 307.804688 327.839844 L 307.789062 327.902344 L 307.75 328.027344 L 307.726562 328.089844 L 307.699219 328.148438 L 307.671875 328.210938 L 307.644531 328.265625 L 307.609375 328.324219 L 307.578125 328.378906 L 307.539062 328.429688 L 307.5 328.484375 L 307.460938 328.535156 L 307.417969 328.585938 L 307.324219 328.679688 L 307.273438 328.726562 L 307.164062 328.8125 L 307.105469 328.851562 L 307.046875 328.894531 L 306.984375 328.929688 L 306.921875 328.96875 L 306.855469 329.003906 L 306.785156 329.039062 L 306.714844 329.070312 L 306.640625 329.097656 L 306.566406 329.128906 L 306.484375 329.15625 L 306.320312 329.203125 L 306.140625 329.242188 L 306.140625 329.265625 L 306.238281 329.277344 L 306.335938 329.292969 L 306.429688 329.308594 L 306.519531 329.328125 L 306.691406 329.375 L 306.777344 329.402344 L 306.855469 329.429688 L 306.933594 329.460938 L 307.082031 329.53125 L 307.152344 329.566406 L 307.285156 329.644531 L 307.34375 329.6875 L 307.40625 329.730469 L 307.570312 329.871094 L 307.617188 329.921875 L 307.710938 330.03125 L 307.789062 330.140625 L 307.828125 330.199219 L 307.863281 330.257812 L 307.894531 330.320312 L 307.976562 330.507812 L 308 330.574219 L 308.019531 330.640625 L 308.039062 330.710938 L 308.054688 330.777344 L 308.066406 330.847656 L 308.078125 330.914062 L 308.085938 330.984375 L 308.09375 331.058594 L 308.097656 331.128906 Z M 308.097656 331.199219 "/>
<path style="fill:none;stroke-width:0.75;stroke-linecap:round;stroke-linejoin:round;stroke:rgb(0%,0%,0%);stroke-opacity:1;stroke-miterlimit:10;" d="M 59.039062 298.925781 L 59.039062 69.226562 "/>
<path style="fill:none;stroke-width:0.75;stroke-linecap:round;stroke-linejoin:round;stroke:rgb(0%,0%,0%);stroke-opacity:1;stroke-miterlimit:10;" d="M 59.039062 298.925781 L 51.839844 298.925781 "/>
<path style="fill:none;stroke-width:0.75;stroke-linecap:round;stroke-linejoin:round;stroke:rgb(0%,0%,0%);stroke-opacity:1;stroke-miterlimit:10;" d="M 59.039062 241.503906 L 51.839844 241.503906 "/>
<path style="fill:none;stroke-width:0.75;stroke-linecap:round;stroke-linejoin:round;stroke:rgb(0%,0%,0%);stroke-opacity:1;stroke-miterlimit:10;" d="M 59.039062 184.078125 L 51.839844 184.078125 "/>
<path style="fill:none;stroke-width:0.75;stroke-linecap:round;stroke-linejoin:round;stroke:rgb(0%,0%,0%);stroke-opacity:1;stroke-miterlimit:10;" d="M 59.039062 126.652344 L 51.839844 126.652344 "/>
<path style="fill:none;stroke-width:0.75;stroke-linecap:round;stroke-linejoin:round;stroke:rgb(0%,0%,0%);stroke-opacity:1;stroke-miterlimit:10;" d="M 59.039062 69.226562 L 51.839844 69.226562 "/>
<path style=" stroke:none;fill-rule:nonzero;fill:rgb(0%,0%,0%);fill-opacity:1;" d="M 37.628906 296.058594 L 37.863281 296.0625 L 38.089844 296.066406 L 38.308594 296.078125 L 38.519531 296.097656 L 38.726562 296.117188 L 38.921875 296.140625 L 39.109375 296.171875 L 39.292969 296.207031 L 39.464844 296.246094 L 39.632812 296.289062 L 39.792969 296.332031 L 39.945312 296.382812 L 40.089844 296.4375 L 40.230469 296.492188 L 40.367188 296.554688 L 40.492188 296.617188 L 40.617188 296.683594 L 40.730469 296.753906 L 40.839844 296.824219 L 40.945312 296.902344 L 41.042969 296.980469 L 41.132812 297.0625 L 41.21875 297.148438 L 41.300781 297.234375 L 41.375 297.324219 L 41.441406 297.417969 L 41.503906 297.511719 L 41.5625 297.613281 L 41.613281 297.714844 L 41.660156 297.816406 L 41.703125 297.921875 L 41.738281 298.03125 L 41.800781 298.25 L 41.824219 298.363281 L 41.84375 298.476562 L 41.859375 298.589844 L 41.875 298.824219 L 41.878906 298.941406 L 41.875 299.0625 L 41.859375 299.296875 L 41.84375 299.410156 L 41.824219 299.523438 L 41.800781 299.636719 L 41.738281 299.855469 L 41.703125 299.960938 L 41.660156 300.066406 L 41.613281 300.171875 L 41.5625 300.269531 L 41.503906 300.367188 L 41.441406 300.460938 L 41.375 300.554688 L 41.300781 300.644531 L 41.21875 300.730469 L 41.132812 300.816406 L 41.042969 300.898438 L 40.945312 300.976562 L 40.84375 301.050781 L 40.734375 301.121094 L 40.617188 301.191406 L 40.496094 301.253906 L 40.371094 301.316406 L 40.234375 301.375 L 40.097656 301.429688 L 39.949219 301.484375 L 39.796875 301.53125 L 39.640625 301.578125 L 39.472656 301.621094 L 39.296875 301.65625 L 39.117188 301.6875 L 38.925781 301.71875 L 38.730469 301.742188 L 38.523438 301.761719 L 38.3125 301.777344 L 38.09375 301.785156 L 37.863281 301.792969 L 37.628906 301.796875 L 37.382812 301.792969 L 37.148438 301.785156 L 36.917969 301.777344 L 36.699219 301.761719 L 36.488281 301.742188 L 36.289062 301.71875 L 36.09375 301.6875 L 35.910156 301.65625 L 35.734375 301.621094 L 35.566406 301.578125 L 35.40625 301.53125 L 35.25 301.484375 L 35.105469 301.429688 L 34.964844 301.375 L 34.828125 301.316406 L 34.703125 301.253906 L 34.582031 301.1875 L 34.46875 301.117188 L 34.359375 301.046875 L 34.164062 300.890625 L 34.078125 300.808594 L 33.996094 300.726562 L 33.917969 300.636719 L 33.847656 300.546875 L 33.78125 300.453125 L 33.722656 300.359375 L 33.667969 300.261719 L 33.621094 300.160156 L 33.542969 299.949219 L 33.507812 299.839844 L 33.480469 299.730469 L 33.453125 299.617188 L 33.429688 299.503906 L 33.414062 299.390625 L 33.398438 299.269531 L 33.390625 299.152344 L 33.382812 299.03125 L 33.382812 298.789062 L 33.390625 298.671875 L 33.398438 298.558594 L 33.414062 298.445312 L 33.429688 298.335938 L 33.453125 298.222656 L 33.480469 298.117188 L 33.507812 298.007812 L 33.542969 297.902344 L 33.582031 297.800781 L 33.621094 297.695312 L 33.667969 297.597656 L 33.722656 297.5 L 33.78125 297.402344 L 33.847656 297.3125 L 33.917969 297.222656 L 33.996094 297.136719 L 34.078125 297.050781 L 34.164062 296.96875 L 34.261719 296.890625 L 34.359375 296.816406 L 34.46875 296.742188 L 34.582031 296.675781 L 34.703125 296.609375 L 34.828125 296.546875 L 34.964844 296.484375 L 35.105469 296.429688 L 35.25 296.378906 L 35.40625 296.328125 L 35.566406 296.28125 L 35.734375 296.238281 L 35.910156 296.203125 L 36.09375 296.167969 L 36.289062 296.140625 L 36.488281 296.113281 L 36.699219 296.09375 L 36.917969 296.078125 L 37.148438 296.066406 L 37.382812 296.0625 Z M 37.628906 297.132812 L 37.4375 297.132812 L 37.25 297.136719 L 37.070312 297.140625 L 36.894531 297.148438 L 36.726562 297.160156 L 36.566406 297.171875 L 36.414062 297.1875 L 36.269531 297.207031 L 36.128906 297.226562 L 35.996094 297.25 L 35.867188 297.273438 L 35.742188 297.300781 L 35.625 297.328125 L 35.511719 297.359375 L 35.40625 297.394531 L 35.304688 297.429688 L 35.207031 297.46875 L 35.117188 297.507812 L 35.03125 297.550781 L 34.953125 297.59375 L 34.875 297.640625 L 34.804688 297.691406 L 34.738281 297.742188 L 34.675781 297.792969 L 34.617188 297.847656 L 34.515625 297.964844 L 34.472656 298.027344 L 34.433594 298.089844 L 34.371094 298.222656 L 34.339844 298.292969 L 34.316406 298.363281 L 34.296875 298.433594 L 34.277344 298.507812 L 34.261719 298.585938 L 34.25 298.664062 L 34.242188 298.742188 L 34.238281 298.824219 L 34.238281 298.996094 L 34.242188 299.082031 L 34.25 299.164062 L 34.261719 299.246094 L 34.277344 299.324219 L 34.316406 299.480469 L 34.339844 299.550781 L 34.402344 299.691406 L 34.4375 299.757812 L 34.476562 299.824219 L 34.519531 299.886719 L 34.621094 300.003906 L 34.679688 300.0625 L 34.742188 300.117188 L 34.808594 300.167969 L 34.882812 300.21875 L 34.957031 300.265625 L 35.039062 300.3125 L 35.121094 300.351562 L 35.214844 300.394531 L 35.308594 300.429688 L 35.410156 300.46875 L 35.628906 300.53125 L 35.75 300.5625 L 35.871094 300.585938 L 36 300.613281 L 36.132812 300.632812 L 36.273438 300.652344 L 36.421875 300.671875 L 36.574219 300.6875 L 36.734375 300.699219 L 36.898438 300.710938 L 37.070312 300.71875 L 37.25 300.722656 L 37.4375 300.726562 L 37.628906 300.730469 L 37.816406 300.726562 L 37.996094 300.722656 L 38.171875 300.71875 L 38.339844 300.710938 L 38.503906 300.699219 L 38.660156 300.6875 L 38.8125 300.671875 L 38.957031 300.652344 L 39.230469 300.613281 L 39.480469 300.558594 L 39.597656 300.527344 L 39.707031 300.496094 L 39.816406 300.460938 L 39.917969 300.425781 L 40.015625 300.386719 L 40.109375 300.347656 L 40.195312 300.304688 L 40.277344 300.261719 L 40.355469 300.210938 L 40.425781 300.164062 L 40.492188 300.109375 L 40.558594 300.058594 L 40.617188 300 L 40.671875 299.941406 L 40.722656 299.882812 L 40.808594 299.757812 L 40.847656 299.691406 L 40.878906 299.625 L 40.933594 299.484375 L 40.972656 299.335938 L 40.988281 299.257812 L 41 299.179688 L 41.015625 299.015625 L 41.015625 298.847656 L 41.007812 298.765625 L 41 298.6875 L 40.988281 298.609375 L 40.972656 298.535156 L 40.933594 298.386719 L 40.878906 298.246094 L 40.847656 298.179688 L 40.808594 298.113281 L 40.722656 297.988281 L 40.671875 297.929688 L 40.617188 297.871094 L 40.558594 297.816406 L 40.425781 297.714844 L 40.355469 297.664062 L 40.277344 297.617188 L 40.195312 297.570312 L 40.109375 297.527344 L 40.015625 297.488281 L 39.917969 297.449219 L 39.816406 297.410156 L 39.707031 297.375 L 39.597656 297.34375 L 39.480469 297.3125 L 39.355469 297.285156 L 39.230469 297.261719 L 39.09375 297.234375 L 38.957031 297.214844 L 38.8125 297.195312 L 38.660156 297.179688 L 38.503906 297.164062 L 38.339844 297.152344 L 38.171875 297.144531 L 37.996094 297.136719 L 37.816406 297.132812 Z M 37.628906 297.132812 "/>
<path style=" stroke:none;fill-rule:nonzero;fill:rgb(0%,0%,0%);fill-opacity:1;" d="M 39.070312 238.667969 L 39.195312 238.671875 L 39.316406 238.675781 L 39.550781 238.699219 L 39.664062 238.714844 L 39.777344 238.738281 L 39.886719 238.761719 L 39.996094 238.789062 L 40.101562 238.820312 L 40.207031 238.855469 L 40.308594 238.894531 L 40.40625 238.9375 L 40.503906 238.984375 L 40.597656 239.035156 L 40.6875 239.089844 L 40.859375 239.207031 L 41.023438 239.339844 L 41.171875 239.488281 L 41.238281 239.566406 L 41.304688 239.652344 L 41.367188 239.738281 L 41.425781 239.828125 L 41.480469 239.921875 L 41.535156 240.019531 L 41.582031 240.121094 L 41.628906 240.226562 L 41.671875 240.332031 L 41.710938 240.445312 L 41.746094 240.558594 L 41.777344 240.675781 L 41.804688 240.796875 L 41.824219 240.921875 L 41.84375 241.050781 L 41.859375 241.183594 L 41.867188 241.316406 L 41.875 241.457031 L 41.878906 241.597656 L 41.875 241.726562 L 41.871094 241.851562 L 41.863281 241.972656 L 41.851562 242.09375 L 41.839844 242.207031 L 41.824219 242.320312 L 41.800781 242.429688 L 41.78125 242.535156 L 41.753906 242.636719 L 41.726562 242.734375 L 41.691406 242.832031 L 41.660156 242.921875 L 41.625 243.011719 L 41.585938 243.097656 L 41.542969 243.179688 L 41.457031 243.335938 L 41.410156 243.410156 L 41.308594 243.550781 L 41.253906 243.617188 L 41.199219 243.679688 L 41.140625 243.738281 L 41.078125 243.796875 L 41.015625 243.851562 L 40.953125 243.902344 L 40.886719 243.953125 L 40.820312 244 L 40.753906 244.042969 L 40.683594 244.082031 L 40.609375 244.121094 L 40.535156 244.15625 L 40.3125 244.25 L 40.234375 244.273438 L 40.15625 244.300781 L 40.078125 244.320312 L 39.914062 244.359375 L 39.792969 243.292969 L 39.839844 243.277344 L 39.882812 243.265625 L 39.929688 243.25 L 39.976562 243.230469 L 40.023438 243.214844 L 40.066406 243.195312 L 40.160156 243.15625 L 40.203125 243.132812 L 40.25 243.109375 L 40.292969 243.085938 L 40.332031 243.058594 L 40.375 243.03125 L 40.414062 243.003906 L 40.492188 242.941406 L 40.570312 242.871094 L 40.675781 242.753906 L 40.707031 242.707031 L 40.738281 242.664062 L 40.765625 242.617188 L 40.847656 242.464844 L 40.894531 242.355469 L 40.917969 242.296875 L 40.933594 242.234375 L 40.953125 242.171875 L 40.96875 242.105469 L 40.980469 242.039062 L 40.992188 241.964844 L 41 241.894531 L 41.007812 241.816406 L 41.015625 241.660156 L 41.015625 241.496094 L 41.011719 241.414062 L 40.996094 241.257812 L 40.972656 241.109375 L 40.957031 241.039062 L 40.917969 240.898438 L 40.894531 240.832031 L 40.867188 240.765625 L 40.804688 240.640625 L 40.734375 240.523438 L 40.695312 240.464844 L 40.65625 240.414062 L 40.613281 240.359375 L 40.566406 240.3125 L 40.519531 240.261719 L 40.46875 240.214844 L 40.359375 240.128906 L 40.304688 240.089844 L 40.242188 240.050781 L 40.183594 240.015625 L 40.117188 239.980469 L 40.054688 239.949219 L 39.914062 239.894531 L 39.765625 239.847656 L 39.691406 239.828125 L 39.613281 239.8125 L 39.53125 239.796875 L 39.449219 239.785156 L 39.363281 239.777344 L 39.273438 239.769531 L 39.183594 239.765625 L 39.019531 239.765625 L 38.945312 239.769531 L 38.871094 239.777344 L 38.800781 239.785156 L 38.660156 239.808594 L 38.59375 239.824219 L 38.460938 239.863281 L 38.398438 239.886719 L 38.332031 239.914062 L 38.273438 239.941406 L 38.210938 239.972656 L 38.152344 240.003906 L 38.042969 240.074219 L 37.941406 240.152344 L 37.890625 240.195312 L 37.800781 240.285156 L 37.714844 240.386719 L 37.675781 240.4375 L 37.636719 240.496094 L 37.601562 240.550781 L 37.570312 240.609375 L 37.507812 240.734375 L 37.484375 240.800781 L 37.457031 240.867188 L 37.398438 241.078125 L 37.386719 241.152344 L 37.375 241.230469 L 37.359375 241.386719 L 37.355469 241.46875 L 37.355469 241.65625 L 37.359375 241.707031 L 37.359375 241.757812 L 37.367188 241.804688 L 37.371094 241.855469 L 37.375 241.902344 L 37.382812 241.949219 L 37.390625 241.992188 L 37.402344 242.039062 L 37.410156 242.082031 L 37.46875 242.296875 L 37.5 242.375 L 37.511719 242.414062 L 37.53125 242.453125 L 37.546875 242.492188 L 37.5625 242.527344 L 37.582031 242.5625 L 37.617188 242.632812 L 37.636719 242.667969 L 37.660156 242.703125 L 37.679688 242.734375 L 37.699219 242.769531 L 37.722656 242.800781 L 37.742188 242.832031 L 37.765625 242.859375 L 37.789062 242.890625 L 37.808594 242.917969 L 37.832031 242.949219 L 37.855469 242.976562 L 37.875 243.003906 L 37.945312 243.085938 L 37.945312 244.117188 L 33.503906 243.84375 L 33.503906 239.148438 L 34.402344 239.148438 L 34.402344 242.882812 L 37.019531 243.039062 L 36.976562 242.984375 L 36.9375 242.921875 L 36.894531 242.859375 L 36.855469 242.792969 L 36.820312 242.722656 L 36.78125 242.652344 L 36.746094 242.578125 L 36.683594 242.421875 L 36.621094 242.25 L 36.59375 242.164062 L 36.570312 242.070312 L 36.53125 241.875 L 36.519531 241.773438 L 36.507812 241.667969 L 36.5 241.5625 L 36.492188 241.449219 L 36.492188 241.335938 L 36.5 241.09375 L 36.507812 240.976562 L 36.539062 240.75 L 36.558594 240.640625 L 36.613281 240.429688 L 36.644531 240.328125 L 36.679688 240.226562 L 36.71875 240.128906 L 36.761719 240.035156 L 36.808594 239.945312 L 36.855469 239.859375 L 36.90625 239.773438 L 36.960938 239.691406 L 37.019531 239.609375 L 37.144531 239.460938 L 37.28125 239.324219 L 37.355469 239.257812 L 37.429688 239.195312 L 37.507812 239.140625 L 37.585938 239.082031 L 37.667969 239.03125 L 37.753906 238.984375 L 37.84375 238.9375 L 37.933594 238.894531 L 38.027344 238.855469 L 38.125 238.820312 L 38.222656 238.789062 L 38.320312 238.761719 L 38.421875 238.738281 L 38.527344 238.714844 L 38.632812 238.699219 L 38.738281 238.6875 L 38.847656 238.675781 L 38.957031 238.671875 Z M 39.070312 238.667969 "/>
<path style=" stroke:none;fill-rule:nonzero;fill:rgb(0%,0%,0%);fill-opacity:1;" d="M 41.761719 189.835938 L 40.863281 189.835938 L 40.863281 187.734375 L 34.511719 187.734375 L 35.84375 189.597656 L 34.847656 189.597656 L 33.503906 187.644531 L 33.503906 186.671875 L 40.863281 186.671875 L 40.863281 184.664062 L 41.761719 184.664062 Z M 41.761719 189.835938 "/>
<path style=" stroke:none;fill-rule:nonzero;fill:rgb(0%,0%,0%);fill-opacity:1;" d="M 37.628906 177.871094 L 37.863281 177.875 L 38.089844 177.882812 L 38.308594 177.894531 L 38.519531 177.910156 L 38.726562 177.929688 L 38.921875 177.953125 L 39.109375 177.984375 L 39.292969 178.019531 L 39.464844 178.058594 L 39.632812 178.101562 L 39.792969 178.148438 L 39.945312 178.195312 L 40.089844 178.25 L 40.230469 178.304688 L 40.367188 178.367188 L 40.492188 178.429688 L 40.617188 178.496094 L 40.730469 178.566406 L 40.839844 178.640625 L 40.945312 178.714844 L 41.042969 178.792969 L 41.132812 178.875 L 41.21875 178.960938 L 41.300781 179.046875 L 41.375 179.136719 L 41.441406 179.230469 L 41.503906 179.324219 L 41.5625 179.425781 L 41.613281 179.527344 L 41.660156 179.628906 L 41.703125 179.734375 L 41.738281 179.84375 L 41.800781 180.0625 L 41.824219 180.175781 L 41.84375 180.289062 L 41.859375 180.402344 L 41.875 180.636719 L 41.878906 180.753906 L 41.875 180.875 L 41.859375 181.109375 L 41.84375 181.222656 L 41.824219 181.335938 L 41.800781 181.449219 L 41.738281 181.667969 L 41.703125 181.773438 L 41.660156 181.878906 L 41.613281 181.984375 L 41.5625 182.082031 L 41.503906 182.179688 L 41.441406 182.277344 L 41.375 182.367188 L 41.300781 182.457031 L 41.21875 182.542969 L 41.132812 182.628906 L 41.042969 182.710938 L 40.945312 182.789062 L 40.84375 182.863281 L 40.734375 182.933594 L 40.617188 183.003906 L 40.496094 183.066406 L 40.371094 183.128906 L 40.234375 183.1875 L 40.097656 183.242188 L 39.949219 183.296875 L 39.796875 183.34375 L 39.640625 183.390625 L 39.472656 183.433594 L 39.296875 183.46875 L 39.117188 183.503906 L 38.925781 183.53125 L 38.730469 183.554688 L 38.523438 183.574219 L 38.3125 183.589844 L 38.09375 183.601562 L 37.863281 183.605469 L 37.628906 183.609375 L 37.382812 183.605469 L 37.148438 183.601562 L 36.917969 183.589844 L 36.699219 183.574219 L 36.488281 183.554688 L 36.289062 183.53125 L 36.09375 183.503906 L 35.910156 183.46875 L 35.734375 183.433594 L 35.566406 183.390625 L 35.40625 183.34375 L 35.25 183.296875 L 35.105469 183.242188 L 34.964844 183.1875 L 34.828125 183.128906 L 34.703125 183.066406 L 34.582031 183 L 34.46875 182.929688 L 34.359375 182.859375 L 34.164062 182.703125 L 34.078125 182.621094 L 33.996094 182.539062 L 33.917969 182.449219 L 33.847656 182.359375 L 33.78125 182.265625 L 33.722656 182.171875 L 33.667969 182.074219 L 33.621094 181.972656 L 33.542969 181.761719 L 33.507812 181.652344 L 33.480469 181.542969 L 33.453125 181.429688 L 33.429688 181.316406 L 33.414062 181.203125 L 33.398438 181.082031 L 33.390625 180.964844 L 33.382812 180.84375 L 33.382812 180.601562 L 33.390625 180.484375 L 33.398438 180.371094 L 33.414062 180.257812 L 33.429688 180.148438 L 33.453125 180.035156 L 33.480469 179.929688 L 33.507812 179.820312 L 33.542969 179.714844 L 33.582031 179.613281 L 33.621094 179.507812 L 33.667969 179.410156 L 33.722656 179.3125 L 33.78125 179.214844 L 33.847656 179.125 L 33.917969 179.035156 L 33.996094 178.949219 L 34.078125 178.863281 L 34.164062 178.78125 L 34.261719 178.703125 L 34.359375 178.628906 L 34.46875 178.554688 L 34.582031 178.488281 L 34.703125 178.421875 L 34.828125 178.359375 L 34.964844 178.300781 L 35.105469 178.242188 L 35.25 178.191406 L 35.40625 178.140625 L 35.566406 178.09375 L 35.734375 178.050781 L 35.910156 178.015625 L 36.09375 177.980469 L 36.289062 177.953125 L 36.488281 177.925781 L 36.699219 177.90625 L 36.917969 177.890625 L 37.148438 177.882812 L 37.382812 177.875 Z M 37.628906 178.945312 L 37.4375 178.945312 L 37.25 178.949219 L 37.070312 178.953125 L 36.894531 178.964844 L 36.726562 178.972656 L 36.566406 178.988281 L 36.414062 179 L 36.269531 179.019531 L 36.128906 179.039062 L 35.996094 179.0625 L 35.867188 179.085938 L 35.742188 179.113281 L 35.625 179.140625 L 35.511719 179.171875 L 35.40625 179.207031 L 35.304688 179.242188 L 35.207031 179.28125 L 35.117188 179.320312 L 35.03125 179.363281 L 34.953125 179.40625 L 34.875 179.453125 L 34.804688 179.503906 L 34.738281 179.554688 L 34.675781 179.605469 L 34.617188 179.660156 L 34.515625 179.777344 L 34.472656 179.839844 L 34.433594 179.902344 L 34.371094 180.035156 L 34.339844 180.105469 L 34.316406 180.175781 L 34.296875 180.246094 L 34.277344 180.320312 L 34.261719 180.398438 L 34.25 180.476562 L 34.242188 180.554688 L 34.238281 180.636719 L 34.238281 180.808594 L 34.242188 180.894531 L 34.25 180.976562 L 34.261719 181.058594 L 34.277344 181.136719 L 34.316406 181.292969 L 34.339844 181.363281 L 34.371094 181.4375 L 34.402344 181.503906 L 34.4375 181.570312 L 34.476562 181.636719 L 34.519531 181.699219 L 34.570312 181.761719 L 34.621094 181.816406 L 34.679688 181.875 L 34.742188 181.929688 L 34.808594 181.980469 L 34.882812 182.03125 L 34.957031 182.078125 L 35.039062 182.125 L 35.121094 182.164062 L 35.214844 182.207031 L 35.308594 182.242188 L 35.410156 182.28125 L 35.628906 182.34375 L 35.75 182.375 L 35.871094 182.398438 L 36 182.425781 L 36.132812 182.445312 L 36.273438 182.46875 L 36.421875 182.484375 L 36.574219 182.5 L 36.734375 182.511719 L 36.898438 182.523438 L 37.070312 182.53125 L 37.25 182.539062 L 37.4375 182.539062 L 37.628906 182.542969 L 37.816406 182.539062 L 37.996094 182.539062 L 38.171875 182.53125 L 38.339844 182.523438 L 38.503906 182.511719 L 38.660156 182.5 L 38.8125 182.484375 L 38.957031 182.46875 L 39.09375 182.445312 L 39.230469 182.425781 L 39.480469 182.371094 L 39.597656 182.339844 L 39.707031 182.308594 L 39.816406 182.273438 L 39.917969 182.238281 L 40.015625 182.199219 L 40.109375 182.160156 L 40.195312 182.117188 L 40.277344 182.074219 L 40.355469 182.023438 L 40.425781 181.976562 L 40.492188 181.921875 L 40.558594 181.871094 L 40.671875 181.757812 L 40.722656 181.695312 L 40.808594 181.570312 L 40.847656 181.503906 L 40.878906 181.4375 L 40.933594 181.296875 L 40.972656 181.148438 L 40.988281 181.070312 L 41 180.992188 L 41.015625 180.828125 L 41.015625 180.660156 L 41.007812 180.578125 L 41 180.5 L 40.988281 180.421875 L 40.972656 180.347656 L 40.933594 180.199219 L 40.90625 180.128906 L 40.878906 180.0625 L 40.847656 179.992188 L 40.808594 179.925781 L 40.722656 179.800781 L 40.671875 179.742188 L 40.617188 179.683594 L 40.558594 179.628906 L 40.425781 179.527344 L 40.355469 179.476562 L 40.277344 179.429688 L 40.195312 179.386719 L 40.109375 179.339844 L 40.015625 179.300781 L 39.917969 179.261719 L 39.816406 179.222656 L 39.707031 179.1875 L 39.597656 179.15625 L 39.480469 179.125 L 39.355469 179.097656 L 39.230469 179.074219 L 39.09375 179.046875 L 38.957031 179.027344 L 38.8125 179.007812 L 38.660156 178.992188 L 38.503906 178.976562 L 38.339844 178.964844 L 38.171875 178.957031 L 37.996094 178.949219 L 37.816406 178.945312 Z M 37.628906 178.945312 "/>
<path style=" stroke:none;fill-rule:nonzero;fill:rgb(0%,0%,0%);fill-opacity:1;" d="M 41.761719 132.410156 L 40.863281 132.410156 L 40.863281 130.308594 L 34.511719 130.308594 L 35.84375 132.171875 L 34.847656 132.171875 L 33.503906 130.21875 L 33.503906 129.246094 L 40.863281 129.246094 L 40.863281 127.238281 L 41.761719 127.238281 Z M 41.761719 132.410156 "/>
<path style=" stroke:none;fill-rule:nonzero;fill:rgb(0%,0%,0%);fill-opacity:1;" d="M 39.070312 120.480469 L 39.195312 120.484375 L 39.316406 120.488281 L 39.550781 120.511719 L 39.664062 120.527344 L 39.777344 120.550781 L 39.886719 120.574219 L 39.996094 120.601562 L 40.101562 120.632812 L 40.207031 120.667969 L 40.308594 120.707031 L 40.40625 120.75 L 40.503906 120.796875 L 40.597656 120.847656 L 40.6875 120.902344 L 40.859375 121.019531 L 41.023438 121.152344 L 41.171875 121.300781 L 41.304688 121.464844 L 41.367188 121.550781 L 41.425781 121.640625 L 41.480469 121.734375 L 41.535156 121.832031 L 41.582031 121.933594 L 41.628906 122.039062 L 41.671875 122.144531 L 41.710938 122.257812 L 41.746094 122.371094 L 41.777344 122.488281 L 41.804688 122.609375 L 41.824219 122.734375 L 41.84375 122.863281 L 41.859375 122.996094 L 41.867188 123.128906 L 41.875 123.269531 L 41.878906 123.410156 L 41.875 123.539062 L 41.871094 123.664062 L 41.863281 123.789062 L 41.851562 123.90625 L 41.839844 124.019531 L 41.824219 124.132812 L 41.800781 124.242188 L 41.78125 124.347656 L 41.753906 124.449219 L 41.726562 124.546875 L 41.691406 124.644531 L 41.660156 124.734375 L 41.625 124.824219 L 41.585938 124.910156 L 41.5 125.074219 L 41.457031 125.148438 L 41.410156 125.222656 L 41.308594 125.363281 L 41.253906 125.429688 L 41.199219 125.492188 L 41.140625 125.550781 L 41.078125 125.609375 L 41.015625 125.664062 L 40.953125 125.714844 L 40.886719 125.765625 L 40.820312 125.8125 L 40.753906 125.855469 L 40.683594 125.894531 L 40.609375 125.933594 L 40.460938 126.003906 L 40.386719 126.03125 L 40.3125 126.0625 L 40.234375 126.089844 L 40.15625 126.113281 L 40.078125 126.132812 L 39.914062 126.171875 L 39.792969 125.105469 L 39.839844 125.089844 L 39.882812 125.078125 L 39.976562 125.046875 L 40.023438 125.027344 L 40.066406 125.007812 L 40.160156 124.96875 L 40.203125 124.945312 L 40.25 124.921875 L 40.292969 124.898438 L 40.332031 124.875 L 40.375 124.847656 L 40.492188 124.753906 L 40.570312 124.683594 L 40.675781 124.566406 L 40.707031 124.523438 L 40.738281 124.476562 L 40.765625 124.429688 L 40.847656 124.277344 L 40.894531 124.167969 L 40.917969 124.109375 L 40.933594 124.046875 L 40.953125 123.984375 L 40.96875 123.917969 L 40.980469 123.851562 L 40.992188 123.78125 L 41 123.707031 L 41.007812 123.628906 L 41.015625 123.472656 L 41.015625 123.308594 L 41.011719 123.226562 L 41.003906 123.148438 L 40.996094 123.074219 L 40.984375 122.996094 L 40.972656 122.921875 L 40.957031 122.851562 L 40.917969 122.710938 L 40.894531 122.644531 L 40.867188 122.578125 L 40.804688 122.453125 L 40.734375 122.335938 L 40.695312 122.277344 L 40.65625 122.226562 L 40.613281 122.171875 L 40.566406 122.125 L 40.519531 122.074219 L 40.46875 122.027344 L 40.359375 121.941406 L 40.304688 121.902344 L 40.242188 121.863281 L 40.183594 121.828125 L 40.117188 121.792969 L 40.054688 121.761719 L 39.914062 121.707031 L 39.765625 121.660156 L 39.691406 121.640625 L 39.613281 121.625 L 39.53125 121.609375 L 39.449219 121.597656 L 39.363281 121.589844 L 39.273438 121.582031 L 39.183594 121.578125 L 39.019531 121.578125 L 38.945312 121.582031 L 38.871094 121.589844 L 38.800781 121.597656 L 38.660156 121.621094 L 38.59375 121.636719 L 38.460938 121.675781 L 38.398438 121.699219 L 38.332031 121.726562 L 38.273438 121.753906 L 38.210938 121.785156 L 38.152344 121.816406 L 38.042969 121.886719 L 37.941406 121.964844 L 37.890625 122.007812 L 37.800781 122.097656 L 37.714844 122.199219 L 37.636719 122.308594 L 37.601562 122.363281 L 37.570312 122.425781 L 37.539062 122.484375 L 37.507812 122.550781 L 37.484375 122.613281 L 37.457031 122.679688 L 37.398438 122.890625 L 37.386719 122.964844 L 37.375 123.042969 L 37.359375 123.199219 L 37.355469 123.28125 L 37.355469 123.46875 L 37.359375 123.519531 L 37.359375 123.570312 L 37.367188 123.617188 L 37.371094 123.667969 L 37.375 123.714844 L 37.382812 123.761719 L 37.390625 123.804688 L 37.402344 123.851562 L 37.410156 123.894531 L 37.46875 124.109375 L 37.5 124.1875 L 37.511719 124.226562 L 37.53125 124.265625 L 37.546875 124.304688 L 37.5625 124.339844 L 37.582031 124.378906 L 37.601562 124.414062 L 37.617188 124.449219 L 37.636719 124.480469 L 37.660156 124.515625 L 37.679688 124.546875 L 37.699219 124.582031 L 37.722656 124.613281 L 37.742188 124.644531 L 37.765625 124.671875 L 37.789062 124.703125 L 37.808594 124.730469 L 37.832031 124.761719 L 37.855469 124.789062 L 37.875 124.816406 L 37.945312 124.898438 L 37.945312 125.929688 L 33.503906 125.65625 L 33.503906 120.960938 L 34.402344 120.960938 L 34.402344 124.695312 L 37.019531 124.851562 L 36.976562 124.796875 L 36.9375 124.734375 L 36.894531 124.671875 L 36.855469 124.605469 L 36.820312 124.535156 L 36.78125 124.464844 L 36.746094 124.390625 L 36.683594 124.234375 L 36.621094 124.0625 L 36.59375 123.976562 L 36.570312 123.882812 L 36.550781 123.789062 L 36.53125 123.6875 L 36.519531 123.585938 L 36.507812 123.480469 L 36.5 123.375 L 36.492188 123.261719 L 36.492188 123.148438 L 36.5 122.90625 L 36.507812 122.789062 L 36.539062 122.5625 L 36.558594 122.453125 L 36.613281 122.242188 L 36.644531 122.140625 L 36.679688 122.039062 L 36.71875 121.945312 L 36.761719 121.851562 L 36.808594 121.757812 L 36.855469 121.671875 L 36.90625 121.585938 L 36.960938 121.503906 L 37.019531 121.421875 L 37.144531 121.273438 L 37.28125 121.136719 L 37.355469 121.070312 L 37.429688 121.007812 L 37.585938 120.898438 L 37.667969 120.84375 L 37.753906 120.796875 L 37.84375 120.75 L 37.933594 120.707031 L 38.027344 120.667969 L 38.125 120.632812 L 38.222656 120.601562 L 38.320312 120.574219 L 38.421875 120.550781 L 38.527344 120.527344 L 38.632812 120.511719 L 38.738281 120.5 L 38.847656 120.488281 L 38.957031 120.484375 Z M 39.070312 120.480469 "/>
<path style=" stroke:none;fill-rule:nonzero;fill:rgb(0%,0%,0%);fill-opacity:1;" d="M 41.761719 75.296875 L 41.015625 75.296875 L 40.878906 75.234375 L 40.75 75.171875 L 40.492188 75.039062 L 40.371094 74.964844 L 40.136719 74.816406 L 40.023438 74.738281 L 39.914062 74.65625 L 39.703125 74.484375 L 39.601562 74.394531 L 39.5 74.308594 L 39.402344 74.21875 L 39.308594 74.125 L 39.121094 73.945312 L 39.03125 73.851562 L 38.859375 73.664062 L 38.773438 73.566406 L 38.527344 73.285156 L 38.214844 72.910156 L 38.140625 72.816406 L 38.070312 72.726562 L 37.996094 72.632812 L 37.921875 72.542969 L 37.851562 72.453125 L 37.777344 72.363281 L 37.707031 72.28125 L 37.632812 72.195312 L 37.558594 72.113281 L 37.488281 72.035156 L 37.414062 71.957031 L 37.34375 71.882812 L 37.269531 71.808594 L 37.121094 71.667969 L 37.046875 71.605469 L 36.96875 71.542969 L 36.894531 71.484375 L 36.738281 71.375 L 36.660156 71.324219 L 36.582031 71.277344 L 36.417969 71.191406 L 36.332031 71.15625 L 36.246094 71.128906 L 36.15625 71.101562 L 36.0625 71.082031 L 35.972656 71.0625 L 35.875 71.050781 L 35.679688 71.042969 L 35.609375 71.042969 L 35.539062 71.046875 L 35.476562 71.054688 L 35.410156 71.058594 L 35.347656 71.070312 L 35.230469 71.09375 L 35.171875 71.109375 L 35.0625 71.148438 L 35.007812 71.171875 L 34.957031 71.195312 L 34.910156 71.21875 L 34.859375 71.25 L 34.816406 71.277344 L 34.769531 71.308594 L 34.726562 71.34375 L 34.648438 71.414062 L 34.613281 71.453125 L 34.574219 71.492188 L 34.542969 71.535156 L 34.511719 71.582031 L 34.480469 71.625 L 34.453125 71.671875 L 34.425781 71.722656 L 34.402344 71.773438 L 34.382812 71.824219 L 34.359375 71.878906 L 34.34375 71.933594 L 34.324219 71.988281 L 34.292969 72.105469 L 34.28125 72.164062 L 34.273438 72.226562 L 34.261719 72.289062 L 34.253906 72.414062 L 34.25 72.480469 L 34.25 72.675781 L 34.257812 72.734375 L 34.261719 72.796875 L 34.269531 72.855469 L 34.28125 72.917969 L 34.292969 72.976562 L 34.304688 73.03125 L 34.335938 73.148438 L 34.355469 73.203125 L 34.375 73.253906 L 34.398438 73.308594 L 34.421875 73.359375 L 34.445312 73.40625 L 34.472656 73.457031 L 34.503906 73.503906 L 34.53125 73.550781 L 34.566406 73.59375 L 34.601562 73.640625 L 34.636719 73.679688 L 34.671875 73.722656 L 34.714844 73.761719 L 34.753906 73.800781 L 34.796875 73.835938 L 34.890625 73.90625 L 34.9375 73.9375 L 34.988281 73.96875 L 35.089844 74.023438 L 35.144531 74.046875 L 35.203125 74.070312 L 35.257812 74.089844 L 35.320312 74.109375 L 35.378906 74.125 L 35.441406 74.140625 L 35.574219 74.164062 L 35.644531 74.171875 L 35.542969 75.25 L 35.453125 75.238281 L 35.28125 75.207031 L 35.195312 75.1875 L 35.109375 75.164062 L 34.945312 75.109375 L 34.863281 75.074219 L 34.785156 75.042969 L 34.628906 74.964844 L 34.550781 74.921875 L 34.480469 74.875 L 34.40625 74.824219 L 34.335938 74.773438 L 34.269531 74.71875 L 34.203125 74.660156 L 34.140625 74.601562 L 34.078125 74.539062 L 34.019531 74.472656 L 33.960938 74.402344 L 33.851562 74.253906 L 33.800781 74.175781 L 33.753906 74.097656 L 33.707031 74.015625 L 33.664062 73.929688 L 33.585938 73.75 L 33.550781 73.65625 L 33.519531 73.558594 L 33.488281 73.457031 L 33.464844 73.355469 L 33.441406 73.25 L 33.421875 73.140625 L 33.410156 73.027344 L 33.394531 72.910156 L 33.386719 72.792969 L 33.382812 72.671875 L 33.382812 72.425781 L 33.386719 72.308594 L 33.394531 72.191406 L 33.40625 72.078125 L 33.417969 71.96875 L 33.433594 71.859375 L 33.453125 71.753906 L 33.5 71.550781 L 33.527344 71.453125 L 33.589844 71.265625 L 33.667969 71.09375 L 33.710938 71.011719 L 33.753906 70.933594 L 33.800781 70.855469 L 33.851562 70.78125 L 33.90625 70.710938 L 33.960938 70.644531 L 34.019531 70.578125 L 34.082031 70.515625 L 34.144531 70.457031 L 34.210938 70.402344 L 34.28125 70.351562 L 34.355469 70.300781 L 34.429688 70.253906 L 34.507812 70.210938 L 34.585938 70.171875 L 34.671875 70.136719 L 34.753906 70.101562 L 34.84375 70.070312 L 34.933594 70.046875 L 35.027344 70.023438 L 35.125 70.003906 L 35.222656 69.988281 L 35.425781 69.964844 L 35.535156 69.960938 L 35.726562 69.960938 L 35.808594 69.964844 L 35.890625 69.972656 L 36.046875 69.996094 L 36.128906 70.015625 L 36.207031 70.035156 L 36.28125 70.058594 L 36.359375 70.082031 L 36.433594 70.113281 L 36.507812 70.140625 L 36.65625 70.210938 L 36.726562 70.246094 L 36.800781 70.285156 L 36.871094 70.324219 L 36.941406 70.367188 L 37.082031 70.460938 L 37.148438 70.511719 L 37.214844 70.558594 L 37.285156 70.613281 L 37.351562 70.664062 L 37.417969 70.71875 L 37.484375 70.777344 L 37.546875 70.835938 L 37.613281 70.894531 L 37.675781 70.957031 L 37.742188 71.019531 L 37.804688 71.085938 L 37.867188 71.148438 L 37.929688 71.214844 L 37.992188 71.285156 L 38.117188 71.417969 L 38.304688 71.628906 L 38.363281 71.699219 L 38.425781 71.769531 L 38.484375 71.839844 L 38.546875 71.914062 L 38.605469 71.984375 L 38.664062 72.058594 L 38.726562 72.128906 L 38.785156 72.199219 L 38.84375 72.273438 L 38.902344 72.34375 L 38.964844 72.417969 L 39.023438 72.492188 L 39.316406 72.84375 L 39.378906 72.910156 L 39.4375 72.980469 L 39.496094 73.046875 L 39.554688 73.109375 L 39.617188 73.175781 L 39.734375 73.300781 L 39.796875 73.359375 L 39.855469 73.417969 L 39.917969 73.476562 L 39.976562 73.53125 L 40.164062 73.695312 L 40.226562 73.746094 L 40.285156 73.792969 L 40.410156 73.886719 L 40.472656 73.929688 L 40.535156 73.96875 L 40.601562 74.007812 L 40.664062 74.042969 L 40.730469 74.078125 L 40.796875 74.109375 L 40.863281 74.136719 L 40.863281 69.832031 L 41.761719 69.832031 Z M 41.761719 75.296875 "/>
<path style=" stroke:none;fill-rule:nonzero;fill:rgb(0%,0%,0%);fill-opacity:1;" d="M 37.628906 63.023438 L 37.863281 63.023438 L 38.089844 63.03125 L 38.308594 63.042969 L 38.519531 63.058594 L 38.726562 63.078125 L 38.921875 63.105469 L 39.109375 63.132812 L 39.292969 63.167969 L 39.464844 63.207031 L 39.632812 63.25 L 39.792969 63.296875 L 39.945312 63.347656 L 40.089844 63.398438 L 40.230469 63.457031 L 40.367188 63.515625 L 40.492188 63.578125 L 40.617188 63.644531 L 40.730469 63.714844 L 40.839844 63.789062 L 40.945312 63.867188 L 41.042969 63.945312 L 41.132812 64.027344 L 41.21875 64.109375 L 41.300781 64.199219 L 41.375 64.289062 L 41.441406 64.378906 L 41.503906 64.476562 L 41.5625 64.574219 L 41.613281 64.675781 L 41.660156 64.78125 L 41.703125 64.886719 L 41.738281 64.992188 L 41.800781 65.210938 L 41.824219 65.324219 L 41.84375 65.4375 L 41.859375 65.550781 L 41.875 65.785156 L 41.878906 65.90625 L 41.875 66.023438 L 41.867188 66.144531 L 41.859375 66.257812 L 41.84375 66.375 L 41.824219 66.488281 L 41.800781 66.597656 L 41.769531 66.710938 L 41.738281 66.816406 L 41.703125 66.925781 L 41.660156 67.03125 L 41.613281 67.132812 L 41.5625 67.234375 L 41.503906 67.332031 L 41.441406 67.425781 L 41.375 67.515625 L 41.300781 67.605469 L 41.21875 67.695312 L 41.132812 67.777344 L 41.042969 67.859375 L 40.945312 67.9375 L 40.84375 68.011719 L 40.734375 68.082031 L 40.617188 68.152344 L 40.496094 68.21875 L 40.371094 68.277344 L 40.097656 68.394531 L 39.949219 68.445312 L 39.796875 68.496094 L 39.640625 68.542969 L 39.472656 68.582031 L 39.296875 68.621094 L 39.117188 68.652344 L 38.925781 68.679688 L 38.730469 68.703125 L 38.523438 68.722656 L 38.3125 68.738281 L 38.09375 68.75 L 37.863281 68.757812 L 37.382812 68.757812 L 37.148438 68.75 L 36.917969 68.738281 L 36.699219 68.722656 L 36.488281 68.703125 L 36.289062 68.679688 L 36.09375 68.652344 L 35.910156 68.621094 L 35.734375 68.582031 L 35.566406 68.542969 L 35.40625 68.496094 L 35.25 68.445312 L 35.105469 68.394531 L 34.964844 68.335938 L 34.828125 68.277344 L 34.703125 68.214844 L 34.582031 68.148438 L 34.46875 68.078125 L 34.359375 68.007812 L 34.261719 67.933594 L 34.164062 67.851562 L 34.078125 67.773438 L 33.996094 67.6875 L 33.917969 67.601562 L 33.847656 67.511719 L 33.78125 67.417969 L 33.722656 67.320312 L 33.667969 67.222656 L 33.621094 67.121094 L 33.582031 67.019531 L 33.542969 66.910156 L 33.507812 66.804688 L 33.480469 66.691406 L 33.453125 66.582031 L 33.429688 66.46875 L 33.398438 66.234375 L 33.382812 65.992188 L 33.382812 65.75 L 33.390625 65.636719 L 33.398438 65.519531 L 33.414062 65.40625 L 33.429688 65.296875 L 33.453125 65.1875 L 33.480469 65.078125 L 33.507812 64.972656 L 33.542969 64.867188 L 33.582031 64.761719 L 33.621094 64.660156 L 33.667969 64.558594 L 33.722656 64.460938 L 33.78125 64.367188 L 33.847656 64.273438 L 33.917969 64.183594 L 33.996094 64.097656 L 34.078125 64.015625 L 34.164062 63.933594 L 34.359375 63.777344 L 34.46875 63.707031 L 34.582031 63.636719 L 34.703125 63.570312 L 34.828125 63.507812 L 34.964844 63.449219 L 35.105469 63.394531 L 35.25 63.339844 L 35.40625 63.289062 L 35.566406 63.246094 L 35.734375 63.203125 L 35.910156 63.164062 L 36.09375 63.132812 L 36.289062 63.101562 L 36.488281 63.078125 L 36.699219 63.058594 L 36.917969 63.042969 L 37.148438 63.03125 L 37.382812 63.023438 Z M 37.628906 64.09375 L 37.4375 64.09375 L 37.25 64.097656 L 37.070312 64.105469 L 36.894531 64.113281 L 36.726562 64.125 L 36.566406 64.136719 L 36.414062 64.152344 L 36.269531 64.167969 L 36.128906 64.1875 L 35.996094 64.210938 L 35.867188 64.234375 L 35.742188 64.261719 L 35.625 64.292969 L 35.511719 64.324219 L 35.40625 64.355469 L 35.304688 64.390625 L 35.207031 64.429688 L 35.117188 64.46875 L 35.03125 64.511719 L 34.875 64.605469 L 34.804688 64.652344 L 34.738281 64.703125 L 34.675781 64.757812 L 34.617188 64.8125 L 34.566406 64.867188 L 34.515625 64.929688 L 34.472656 64.988281 L 34.433594 65.054688 L 34.339844 65.253906 L 34.316406 65.324219 L 34.277344 65.472656 L 34.261719 65.546875 L 34.25 65.625 L 34.242188 65.703125 L 34.238281 65.785156 L 34.238281 65.957031 L 34.242188 66.042969 L 34.25 66.128906 L 34.261719 66.207031 L 34.277344 66.289062 L 34.296875 66.367188 L 34.316406 66.441406 L 34.339844 66.515625 L 34.402344 66.65625 L 34.4375 66.722656 L 34.476562 66.785156 L 34.519531 66.847656 L 34.570312 66.910156 L 34.621094 66.96875 L 34.679688 67.023438 L 34.742188 67.078125 L 34.808594 67.128906 L 34.957031 67.230469 L 35.121094 67.316406 L 35.308594 67.394531 L 35.410156 67.429688 L 35.519531 67.464844 L 35.628906 67.496094 L 35.871094 67.550781 L 36 67.574219 L 36.132812 67.597656 L 36.273438 67.617188 L 36.421875 67.632812 L 36.574219 67.648438 L 36.734375 67.664062 L 36.898438 67.671875 L 37.070312 67.679688 L 37.25 67.6875 L 37.4375 67.691406 L 37.816406 67.691406 L 37.996094 67.6875 L 38.171875 67.679688 L 38.339844 67.671875 L 38.503906 67.664062 L 38.660156 67.648438 L 38.8125 67.632812 L 38.957031 67.617188 L 39.09375 67.597656 L 39.230469 67.574219 L 39.355469 67.550781 L 39.480469 67.519531 L 39.597656 67.492188 L 39.707031 67.460938 L 39.816406 67.425781 L 39.917969 67.390625 L 40.015625 67.351562 L 40.109375 67.308594 L 40.195312 67.269531 L 40.277344 67.222656 L 40.355469 67.175781 L 40.425781 67.125 L 40.492188 67.074219 L 40.558594 67.019531 L 40.617188 66.964844 L 40.671875 66.90625 L 40.722656 66.847656 L 40.765625 66.785156 L 40.808594 66.71875 L 40.847656 66.65625 L 40.878906 66.585938 L 40.933594 66.445312 L 40.972656 66.296875 L 40.988281 66.21875 L 41 66.140625 L 41.015625 65.976562 L 41.015625 65.808594 L 41 65.652344 L 40.988281 65.574219 L 40.972656 65.496094 L 40.953125 65.421875 L 40.933594 65.351562 L 40.878906 65.210938 L 40.847656 65.144531 L 40.808594 65.078125 L 40.765625 65.011719 L 40.722656 64.953125 L 40.671875 64.890625 L 40.617188 64.835938 L 40.558594 64.78125 L 40.492188 64.726562 L 40.425781 64.675781 L 40.355469 64.628906 L 40.277344 64.582031 L 40.195312 64.535156 L 40.109375 64.492188 L 40.015625 64.449219 L 39.917969 64.410156 L 39.816406 64.375 L 39.707031 64.339844 L 39.597656 64.308594 L 39.480469 64.277344 L 39.230469 64.222656 L 38.957031 64.175781 L 38.8125 64.15625 L 38.660156 64.140625 L 38.503906 64.125 L 38.339844 64.113281 L 38.171875 64.105469 L 37.996094 64.097656 L 37.816406 64.09375 Z M 37.628906 64.09375 "/>
<g clip-path="url(#clip1)" clip-rule="nonzero">
<path style="fill:none;stroke-width:0.75;stroke-linecap:round;stroke-linejoin:round;stroke:rgb(0%,0%,0%);stroke-opacity:1;stroke-dasharray:3,3;stroke-miterlimit:10;" d="M 59.039062 298.925781 L 314.761719 298.925781 "/>
</g>
<g clip-path="url(#clip2)" clip-rule="nonzero">
<path style="fill:none;stroke-width:0.75;stroke-linecap:round;stroke-linejoin:round;stroke:rgb(0%,0%,0%);stroke-opacity:1;stroke-dasharray:3,3;stroke-miterlimit:10;" d="M 186.898438 307.558594 L 186.898438 59.039062 "/>
</g>
</g>
</svg>
