<?xml version="1.0" encoding="UTF-8"?>
<svg xmlns="http://www.w3.org/2000/svg" xmlns:xlink="http://www.w3.org/1999/xlink" width="276pt" height="305pt" viewBox="0 0 276 305" version="1.1">
<defs>
<clipPath id="clip1">
  <path d="M 59.039062 155 L 245.757812 155 L 245.757812 157 L 59.039062 157 Z M 59.039062 155 "/>
</clipPath>
<clipPath id="clip2">
  <path d="M 65 59.039062 L 67 59.039062 L 67 231.558594 L 65 231.558594 Z M 65 59.039062 "/>
</clipPath>
</defs>
<g id="surface46">
<rect x="0" y="0" width="276" height="305" style="fill:rgb(99.215686%,96.470588%,89.019608%);fill-opacity:1;stroke:none;"/>
<path style="fill:none;stroke-width:2.25;stroke-linecap:round;stroke-linejoin:round;stroke:rgb(0%,0%,100%);stroke-opacity:1;stroke-miterlimit:10;" d="M 66.820312 225.171875 L 67.683594 204.273438 L 68.550781 192.046875 L 69.414062 183.375 L 70.277344 176.648438 L 71.140625 171.148438 L 72.007812 166.503906 L 72.871094 162.476562 L 73.734375 158.925781 L 74.601562 155.75 L 75.464844 152.875 L 76.328125 150.253906 L 77.191406 147.839844 L 78.058594 145.605469 L 78.921875 143.523438 L 79.785156 141.578125 L 80.652344 139.75 L 81.515625 138.027344 L 82.378906 136.398438 L 83.246094 134.851562 L 84.109375 133.378906 L 84.972656 131.976562 L 85.835938 130.636719 L 86.703125 129.355469 L 87.566406 128.125 L 88.429688 126.941406 L 89.296875 125.804688 L 90.160156 124.707031 L 91.023438 123.648438 L 91.890625 122.625 L 92.753906 121.636719 L 93.617188 120.679688 L 94.480469 119.753906 L 95.347656 118.851562 L 96.210938 117.980469 L 97.074219 117.128906 L 97.941406 116.304688 L 98.804688 115.5 L 99.667969 114.714844 L 100.535156 113.953125 L 101.398438 113.207031 L 102.261719 112.480469 L 103.125 111.773438 L 103.992188 111.078125 L 104.855469 110.402344 L 105.71875 109.738281 L 106.585938 109.089844 L 107.449219 108.457031 L 108.3125 107.835938 L 109.179688 107.226562 L 110.042969 106.628906 L 110.90625 106.042969 L 111.769531 105.46875 L 112.636719 104.90625 L 113.5 104.351562 L 114.363281 103.808594 L 115.230469 103.273438 L 116.09375 102.75 L 116.957031 102.234375 L 117.820312 101.730469 L 118.6875 101.230469 L 119.550781 100.738281 L 120.414062 100.257812 L 121.28125 99.78125 L 122.144531 99.316406 L 123.007812 98.855469 L 123.875 98.402344 L 124.738281 97.953125 L 125.601562 97.515625 L 126.464844 97.082031 L 127.332031 96.652344 L 128.195312 96.230469 L 129.058594 95.816406 L 129.925781 95.40625 L 130.789062 95 L 131.652344 94.601562 L 132.519531 94.207031 L 134.246094 93.433594 L 135.109375 93.054688 L 135.976562 92.679688 L 137.703125 91.945312 L 138.570312 91.585938 L 139.433594 91.226562 L 140.296875 90.875 L 141.164062 90.527344 L 142.890625 89.839844 L 143.753906 89.503906 L 144.621094 89.171875 L 145.484375 88.839844 L 146.347656 88.515625 L 147.214844 88.191406 L 148.941406 87.558594 L 149.808594 87.246094 L 151.535156 86.628906 L 152.398438 86.328125 L 153.265625 86.027344 L 154.128906 85.730469 L 154.992188 85.4375 L 155.859375 85.144531 L 156.722656 84.855469 L 157.585938 84.570312 L 158.449219 84.289062 L 159.316406 84.007812 L 161.042969 83.453125 L 161.910156 83.179688 L 162.773438 82.910156 L 163.636719 82.644531 L 164.503906 82.378906 L 165.367188 82.113281 L 166.230469 81.851562 L 167.09375 81.59375 L 167.960938 81.335938 L 168.824219 81.082031 L 169.6875 80.832031 L 170.554688 80.582031 L 171.417969 80.332031 L 172.28125 80.085938 L 173.148438 79.84375 L 174.875 79.359375 L 175.738281 79.121094 L 176.605469 78.886719 L 177.46875 78.648438 L 178.332031 78.417969 L 179.199219 78.1875 L 180.0625 77.957031 L 180.925781 77.730469 L 181.792969 77.503906 L 184.382812 76.835938 L 185.25 76.617188 L 186.113281 76.398438 L 186.976562 76.183594 L 187.84375 75.96875 L 188.707031 75.753906 L 189.570312 75.542969 L 190.4375 75.332031 L 193.027344 74.710938 L 193.894531 74.507812 L 195.621094 74.101562 L 196.488281 73.902344 L 197.351562 73.703125 L 198.214844 73.507812 L 199.078125 73.308594 L 199.945312 73.113281 L 200.808594 72.921875 L 201.671875 72.726562 L 202.539062 72.535156 L 203.402344 72.347656 L 204.265625 72.15625 L 205.132812 71.96875 L 205.996094 71.78125 L 207.722656 71.414062 L 208.589844 71.230469 L 209.453125 71.046875 L 210.316406 70.867188 L 211.183594 70.6875 L 212.910156 70.328125 L 213.777344 70.152344 L 215.503906 69.800781 L 216.367188 69.628906 L 217.234375 69.457031 L 218.960938 69.113281 L 219.828125 68.941406 L 221.554688 68.605469 L 222.421875 68.4375 L 225.011719 67.945312 L 225.878906 67.78125 L 226.742188 67.617188 L 227.605469 67.457031 L 228.472656 67.296875 L 231.0625 66.816406 L 231.929688 66.660156 L 233.65625 66.347656 L 234.523438 66.191406 L 236.25 65.886719 L 237.117188 65.734375 L 238.84375 65.429688 "/>
<path style="fill:none;stroke-width:0.75;stroke-linecap:round;stroke-linejoin:round;stroke:rgb(0%,0%,0%);stroke-opacity:1;stroke-miterlimit:10;" d="M 65.957031 231.558594 L 238.84375 231.558594 "/>
<path style="fill:none;stroke-width:0.75;stroke-linecap:round;stroke-linejoin:round;stroke:rgb(0%,0%,0%);stroke-opacity:1;stroke-miterlimit:10;" d="M 65.957031 231.558594 L 65.957031 238.761719 "/>
<path style="fill:none;stroke-width:0.75;stroke-linecap:round;stroke-linejoin:round;stroke:rgb(0%,0%,0%);stroke-opacity:1;stroke-miterlimit:10;" d="M 109.179688 231.558594 L 109.179688 238.761719 "/>
<path style="fill:none;stroke-width:0.75;stroke-linecap:round;stroke-linejoin:round;stroke:rgb(0%,0%,0%);stroke-opacity:1;stroke-miterlimit:10;" d="M 152.398438 231.558594 L 152.398438 238.761719 "/>
<path style="fill:none;stroke-width:0.75;stroke-linecap:round;stroke-linejoin:round;stroke:rgb(0%,0%,0%);stroke-opacity:1;stroke-miterlimit:10;" d="M 195.621094 231.558594 L 195.621094 238.761719 "/>
<path style="fill:none;stroke-width:0.75;stroke-linecap:round;stroke-linejoin:round;stroke:rgb(0%,0%,0%);stroke-opacity:1;stroke-miterlimit:10;" d="M 238.84375 231.558594 L 238.84375 238.761719 "/>
<path style=" stroke:none;fill-rule:nonzero;fill:rgb(0%,0%,0%);fill-opacity:1;" d="M 68.824219 253.347656 L 68.820312 253.582031 L 68.816406 253.808594 L 68.804688 254.027344 L 68.789062 254.242188 L 68.765625 254.445312 L 68.742188 254.640625 L 68.710938 254.832031 L 68.675781 255.011719 L 68.636719 255.1875 L 68.59375 255.351562 L 68.550781 255.511719 L 68.5 255.664062 L 68.445312 255.8125 L 68.390625 255.953125 L 68.328125 256.085938 L 68.265625 256.214844 L 68.199219 256.335938 L 68.128906 256.453125 L 68.058594 256.5625 L 67.980469 256.664062 L 67.902344 256.761719 L 67.820312 256.855469 L 67.648438 257.019531 L 67.558594 257.09375 L 67.371094 257.226562 L 67.269531 257.28125 L 67.171875 257.335938 L 66.960938 257.421875 L 66.742188 257.492188 L 66.632812 257.519531 L 66.519531 257.542969 L 66.40625 257.5625 L 66.292969 257.578125 L 66.175781 257.589844 L 65.941406 257.597656 L 65.820312 257.59375 L 65.703125 257.589844 L 65.585938 257.578125 L 65.472656 257.5625 L 65.359375 257.542969 L 65.246094 257.519531 L 65.136719 257.492188 L 65.027344 257.457031 L 64.921875 257.421875 L 64.816406 257.378906 L 64.714844 257.335938 L 64.613281 257.28125 L 64.515625 257.226562 L 64.328125 257.09375 L 64.238281 257.019531 L 64.066406 256.855469 L 63.988281 256.761719 L 63.90625 256.664062 L 63.832031 256.5625 L 63.761719 256.453125 L 63.695312 256.339844 L 63.628906 256.21875 L 63.566406 256.089844 L 63.507812 255.957031 L 63.453125 255.816406 L 63.398438 255.671875 L 63.304688 255.359375 L 63.261719 255.191406 L 63.226562 255.019531 L 63.195312 254.835938 L 63.164062 254.644531 L 63.140625 254.449219 L 63.121094 254.246094 L 63.105469 254.03125 L 63.097656 253.8125 L 63.089844 253.585938 L 63.085938 253.347656 L 63.089844 253.105469 L 63.097656 252.867188 L 63.105469 252.640625 L 63.121094 252.421875 L 63.140625 252.210938 L 63.164062 252.007812 L 63.195312 251.8125 L 63.226562 251.628906 L 63.261719 251.453125 L 63.304688 251.285156 L 63.351562 251.125 L 63.398438 250.972656 L 63.453125 250.824219 L 63.507812 250.683594 L 63.566406 250.550781 L 63.628906 250.421875 L 63.695312 250.300781 L 63.765625 250.1875 L 63.835938 250.082031 L 63.914062 249.980469 L 63.992188 249.886719 L 64.074219 249.796875 L 64.160156 249.714844 L 64.246094 249.636719 L 64.335938 249.566406 L 64.429688 249.5 L 64.523438 249.441406 L 64.621094 249.390625 L 64.722656 249.34375 L 64.828125 249.300781 L 64.933594 249.261719 L 65.152344 249.199219 L 65.265625 249.171875 L 65.378906 249.152344 L 65.496094 249.132812 L 65.613281 249.117188 L 65.730469 249.109375 L 65.851562 249.101562 L 66.09375 249.101562 L 66.210938 249.109375 L 66.324219 249.117188 L 66.4375 249.132812 L 66.546875 249.152344 L 66.660156 249.171875 L 66.765625 249.199219 L 66.875 249.230469 L 66.980469 249.261719 L 67.082031 249.300781 L 67.1875 249.34375 L 67.285156 249.390625 L 67.382812 249.441406 L 67.480469 249.5 L 67.570312 249.566406 L 67.660156 249.636719 L 67.746094 249.714844 L 67.832031 249.796875 L 67.914062 249.886719 L 67.992188 249.980469 L 68.066406 250.082031 L 68.140625 250.1875 L 68.207031 250.300781 L 68.273438 250.421875 L 68.335938 250.550781 L 68.398438 250.683594 L 68.453125 250.824219 L 68.503906 250.972656 L 68.554688 251.125 L 68.601562 251.285156 L 68.644531 251.453125 L 68.679688 251.628906 L 68.714844 251.8125 L 68.742188 252.007812 L 68.769531 252.210938 L 68.789062 252.421875 L 68.804688 252.640625 L 68.816406 252.867188 L 68.820312 253.105469 Z M 67.75 253.347656 L 67.75 253.15625 L 67.746094 252.96875 L 67.742188 252.789062 L 67.734375 252.613281 L 67.722656 252.449219 L 67.710938 252.289062 L 67.695312 252.132812 L 67.675781 251.988281 L 67.65625 251.847656 L 67.632812 251.714844 L 67.609375 251.585938 L 67.582031 251.460938 L 67.554688 251.34375 L 67.523438 251.234375 L 67.488281 251.125 L 67.453125 251.023438 L 67.414062 250.925781 L 67.375 250.835938 L 67.332031 250.75 L 67.289062 250.671875 L 67.242188 250.59375 L 67.191406 250.523438 L 67.140625 250.457031 L 67.089844 250.394531 L 67.035156 250.335938 L 66.976562 250.285156 L 66.917969 250.238281 L 66.855469 250.191406 L 66.792969 250.15625 L 66.726562 250.121094 L 66.660156 250.089844 L 66.519531 250.035156 L 66.449219 250.015625 L 66.375 249.996094 L 66.296875 249.984375 L 66.222656 249.972656 L 66.058594 249.957031 L 65.886719 249.957031 L 65.800781 249.964844 L 65.71875 249.972656 L 65.636719 249.984375 L 65.558594 249.996094 L 65.480469 250.015625 L 65.40625 250.035156 L 65.332031 250.0625 L 65.261719 250.089844 L 65.191406 250.121094 L 65.125 250.15625 L 65.058594 250.195312 L 64.996094 250.238281 L 64.9375 250.289062 L 64.820312 250.398438 L 64.765625 250.460938 L 64.664062 250.601562 L 64.617188 250.675781 L 64.570312 250.757812 L 64.53125 250.84375 L 64.488281 250.933594 L 64.453125 251.03125 L 64.414062 251.132812 L 64.382812 251.238281 L 64.351562 251.351562 L 64.324219 251.46875 L 64.296875 251.589844 L 64.269531 251.71875 L 64.230469 251.992188 L 64.210938 252.140625 L 64.195312 252.292969 L 64.183594 252.453125 L 64.171875 252.617188 L 64.164062 252.792969 L 64.160156 252.972656 L 64.15625 253.15625 L 64.152344 253.347656 L 64.15625 253.535156 L 64.160156 253.71875 L 64.164062 253.890625 L 64.171875 254.0625 L 64.183594 254.222656 L 64.195312 254.378906 L 64.210938 254.53125 L 64.230469 254.675781 L 64.25 254.816406 L 64.269531 254.949219 L 64.296875 255.078125 L 64.324219 255.199219 L 64.355469 255.316406 L 64.386719 255.429688 L 64.421875 255.535156 L 64.457031 255.636719 L 64.496094 255.734375 L 64.535156 255.828125 L 64.578125 255.914062 L 64.621094 255.996094 L 64.671875 256.074219 L 64.71875 256.144531 L 64.773438 256.214844 L 64.824219 256.277344 L 64.882812 256.335938 L 64.941406 256.390625 L 65 256.441406 L 65.0625 256.488281 L 65.125 256.527344 L 65.191406 256.566406 L 65.257812 256.597656 L 65.328125 256.628906 L 65.398438 256.652344 L 65.472656 256.675781 L 65.546875 256.695312 L 65.703125 256.71875 L 65.785156 256.730469 L 65.867188 256.734375 L 66.035156 256.734375 L 66.117188 256.730469 L 66.273438 256.707031 L 66.347656 256.695312 L 66.421875 256.675781 L 66.496094 256.652344 L 66.566406 256.628906 L 66.636719 256.597656 L 66.703125 256.566406 L 66.769531 256.527344 L 66.832031 256.488281 L 66.894531 256.441406 L 66.953125 256.390625 L 67.011719 256.335938 L 67.066406 256.277344 L 67.117188 256.214844 L 67.21875 256.074219 L 67.265625 255.996094 L 67.3125 255.914062 L 67.355469 255.828125 L 67.394531 255.734375 L 67.433594 255.636719 L 67.472656 255.535156 L 67.507812 255.429688 L 67.539062 255.316406 L 67.570312 255.199219 L 67.597656 255.078125 L 67.621094 254.949219 L 67.648438 254.816406 L 67.667969 254.675781 L 67.6875 254.53125 L 67.703125 254.378906 L 67.71875 254.222656 L 67.730469 254.0625 L 67.746094 253.71875 L 67.75 253.535156 Z M 67.75 253.347656 "/>
<path style=" stroke:none;fill-rule:nonzero;fill:rgb(0%,0%,0%);fill-opacity:1;" d="M 112.011719 254.789062 L 112.007812 254.914062 L 112.003906 255.035156 L 111.980469 255.269531 L 111.964844 255.386719 L 111.941406 255.496094 L 111.917969 255.609375 L 111.890625 255.71875 L 111.859375 255.824219 L 111.824219 255.925781 L 111.785156 256.027344 L 111.742188 256.128906 L 111.695312 256.222656 L 111.644531 256.316406 L 111.589844 256.40625 L 111.53125 256.496094 L 111.472656 256.582031 L 111.40625 256.664062 L 111.339844 256.742188 L 111.191406 256.890625 L 111.113281 256.960938 L 110.941406 257.085938 L 110.851562 257.144531 L 110.757812 257.203125 L 110.660156 257.253906 L 110.558594 257.304688 L 110.347656 257.390625 L 110.234375 257.429688 L 110.121094 257.464844 L 110.003906 257.496094 L 109.882812 257.523438 L 109.757812 257.546875 L 109.628906 257.5625 L 109.496094 257.578125 L 109.363281 257.589844 L 109.082031 257.597656 L 108.953125 257.59375 L 108.828125 257.589844 L 108.585938 257.574219 L 108.359375 257.542969 L 108.25 257.523438 L 108.144531 257.5 L 108.042969 257.472656 L 107.945312 257.445312 L 107.851562 257.414062 L 107.757812 257.378906 L 107.667969 257.34375 L 107.582031 257.304688 L 107.5 257.265625 L 107.421875 257.222656 L 107.34375 257.175781 L 107.269531 257.128906 L 107.199219 257.082031 L 107.128906 257.027344 L 107.066406 256.972656 L 107 256.917969 L 106.882812 256.800781 L 106.828125 256.738281 L 106.777344 256.671875 L 106.726562 256.609375 L 106.683594 256.542969 L 106.636719 256.472656 L 106.597656 256.402344 L 106.558594 256.328125 L 106.523438 256.257812 L 106.460938 256.109375 L 106.429688 256.03125 L 106.40625 255.953125 L 106.378906 255.875 L 106.359375 255.796875 L 106.320312 255.632812 L 107.386719 255.511719 L 107.402344 255.558594 L 107.414062 255.605469 L 107.429688 255.652344 L 107.449219 255.695312 L 107.464844 255.742188 L 107.484375 255.789062 L 107.503906 255.832031 L 107.523438 255.878906 L 107.546875 255.921875 L 107.570312 255.96875 L 107.59375 256.011719 L 107.621094 256.054688 L 107.648438 256.09375 L 107.675781 256.136719 L 107.738281 256.214844 L 107.773438 256.25 L 107.808594 256.289062 L 107.925781 256.394531 L 107.972656 256.425781 L 108.015625 256.457031 L 108.0625 256.488281 L 108.164062 256.542969 L 108.214844 256.566406 L 108.324219 256.613281 L 108.382812 256.636719 L 108.445312 256.65625 L 108.507812 256.671875 L 108.574219 256.6875 L 108.714844 256.710938 L 108.785156 256.71875 L 108.863281 256.726562 L 109.019531 256.734375 L 109.1875 256.734375 L 109.34375 256.726562 L 109.421875 256.714844 L 109.496094 256.707031 L 109.570312 256.691406 L 109.640625 256.675781 L 109.78125 256.636719 L 109.847656 256.613281 L 109.914062 256.585938 L 110.101562 256.492188 L 110.15625 256.453125 L 110.214844 256.414062 L 110.265625 256.375 L 110.320312 256.332031 L 110.371094 256.285156 L 110.417969 256.238281 L 110.464844 256.1875 L 110.507812 256.136719 L 110.550781 256.082031 L 110.628906 255.964844 L 110.699219 255.839844 L 110.730469 255.773438 L 110.8125 255.5625 L 110.832031 255.488281 L 110.851562 255.410156 L 110.867188 255.332031 L 110.882812 255.25 L 110.894531 255.167969 L 110.910156 254.996094 L 110.914062 254.90625 L 110.914062 254.738281 L 110.910156 254.664062 L 110.902344 254.589844 L 110.894531 254.519531 L 110.871094 254.378906 L 110.855469 254.3125 L 110.816406 254.179688 L 110.792969 254.117188 L 110.738281 253.992188 L 110.644531 253.816406 L 110.605469 253.765625 L 110.566406 253.710938 L 110.527344 253.660156 L 110.441406 253.566406 L 110.394531 253.519531 L 110.292969 253.433594 L 110.242188 253.394531 L 110.1875 253.359375 L 110.070312 253.289062 L 110.007812 253.257812 L 109.945312 253.230469 L 109.878906 253.203125 L 109.8125 253.179688 L 109.742188 253.15625 L 109.671875 253.136719 L 109.601562 253.121094 L 109.527344 253.105469 L 109.449219 253.09375 L 109.292969 253.078125 L 109.210938 253.074219 L 109.023438 253.074219 L 108.921875 253.082031 L 108.828125 253.089844 L 108.777344 253.097656 L 108.730469 253.105469 L 108.6875 253.113281 L 108.640625 253.121094 L 108.597656 253.128906 L 108.425781 253.175781 L 108.386719 253.191406 L 108.34375 253.203125 L 108.1875 253.265625 L 108.152344 253.285156 L 108.117188 253.300781 L 107.976562 253.378906 L 107.945312 253.398438 L 107.910156 253.421875 L 107.878906 253.441406 L 107.851562 253.464844 L 107.820312 253.484375 L 107.789062 253.507812 L 107.761719 253.527344 L 107.730469 253.550781 L 107.648438 253.621094 L 107.621094 253.640625 L 107.59375 253.664062 L 106.5625 253.664062 L 106.835938 249.222656 L 111.53125 249.222656 L 111.53125 250.121094 L 107.796875 250.121094 L 107.640625 252.738281 L 107.699219 252.695312 L 107.757812 252.65625 L 107.820312 252.617188 L 107.886719 252.578125 L 107.957031 252.539062 L 108.027344 252.503906 L 108.101562 252.46875 L 108.179688 252.433594 L 108.34375 252.371094 L 108.429688 252.339844 L 108.519531 252.3125 L 108.609375 252.289062 L 108.707031 252.269531 L 108.804688 252.253906 L 108.90625 252.238281 L 109.011719 252.226562 L 109.117188 252.21875 L 109.34375 252.210938 L 109.585938 252.21875 L 109.703125 252.230469 L 109.816406 252.242188 L 109.929688 252.257812 L 110.039062 252.28125 L 110.144531 252.304688 L 110.25 252.332031 L 110.351562 252.363281 L 110.453125 252.398438 L 110.550781 252.4375 L 110.644531 252.480469 L 110.824219 252.574219 L 111.070312 252.738281 L 111.144531 252.800781 L 111.21875 252.867188 L 111.289062 252.933594 L 111.359375 253.003906 L 111.421875 253.074219 L 111.484375 253.148438 L 111.542969 253.226562 L 111.597656 253.308594 L 111.648438 253.390625 L 111.742188 253.5625 L 111.785156 253.652344 L 111.824219 253.746094 L 111.859375 253.84375 L 111.890625 253.941406 L 111.917969 254.039062 L 111.941406 254.140625 L 111.964844 254.246094 L 111.980469 254.351562 L 111.992188 254.457031 L 112.003906 254.566406 L 112.007812 254.679688 Z M 112.011719 254.789062 "/>
<path style=" stroke:none;fill-rule:nonzero;fill:rgb(0%,0%,0%);fill-opacity:1;" d="M 146.640625 257.480469 L 146.640625 256.582031 L 148.742188 256.582031 L 148.742188 250.230469 L 146.878906 251.5625 L 146.878906 250.566406 L 148.832031 249.222656 L 149.804688 249.222656 L 149.804688 256.582031 L 151.8125 256.582031 L 151.8125 257.480469 Z M 146.640625 257.480469 "/>
<path style=" stroke:none;fill-rule:nonzero;fill:rgb(0%,0%,0%);fill-opacity:1;" d="M 158.605469 253.347656 L 158.601562 253.582031 L 158.597656 253.808594 L 158.585938 254.027344 L 158.570312 254.242188 L 158.546875 254.445312 L 158.523438 254.640625 L 158.492188 254.832031 L 158.457031 255.011719 L 158.421875 255.1875 L 158.375 255.351562 L 158.332031 255.511719 L 158.28125 255.664062 L 158.226562 255.8125 L 158.171875 255.953125 L 158.113281 256.085938 L 158.046875 256.214844 L 157.980469 256.335938 L 157.910156 256.453125 L 157.839844 256.5625 L 157.761719 256.664062 L 157.683594 256.761719 L 157.601562 256.855469 L 157.429688 257.019531 L 157.339844 257.09375 L 157.152344 257.226562 L 157.050781 257.28125 L 156.953125 257.335938 L 156.742188 257.421875 L 156.523438 257.492188 L 156.414062 257.519531 L 156.300781 257.542969 L 156.1875 257.5625 L 156.074219 257.578125 L 155.957031 257.589844 L 155.722656 257.597656 L 155.601562 257.59375 L 155.484375 257.589844 L 155.367188 257.578125 L 155.253906 257.5625 L 155.140625 257.542969 L 155.027344 257.519531 L 154.917969 257.492188 L 154.808594 257.457031 L 154.703125 257.421875 L 154.597656 257.378906 L 154.496094 257.335938 L 154.394531 257.28125 L 154.296875 257.226562 L 154.109375 257.09375 L 154.019531 257.019531 L 153.847656 256.855469 L 153.769531 256.761719 L 153.6875 256.664062 L 153.613281 256.5625 L 153.542969 256.453125 L 153.476562 256.339844 L 153.410156 256.21875 L 153.347656 256.089844 L 153.289062 255.957031 L 153.234375 255.816406 L 153.179688 255.671875 L 153.085938 255.359375 L 153.042969 255.191406 L 153.007812 255.019531 L 152.976562 254.835938 L 152.945312 254.644531 L 152.921875 254.449219 L 152.902344 254.246094 L 152.886719 254.03125 L 152.878906 253.8125 L 152.871094 253.585938 L 152.867188 253.347656 L 152.871094 253.105469 L 152.878906 252.867188 L 152.886719 252.640625 L 152.902344 252.421875 L 152.921875 252.210938 L 152.945312 252.007812 L 152.976562 251.8125 L 153.007812 251.628906 L 153.042969 251.453125 L 153.085938 251.285156 L 153.132812 251.125 L 153.179688 250.972656 L 153.234375 250.824219 L 153.289062 250.683594 L 153.347656 250.550781 L 153.410156 250.421875 L 153.476562 250.300781 L 153.546875 250.1875 L 153.621094 250.082031 L 153.695312 249.980469 L 153.773438 249.886719 L 153.855469 249.796875 L 153.941406 249.714844 L 154.027344 249.636719 L 154.117188 249.566406 L 154.210938 249.5 L 154.304688 249.441406 L 154.402344 249.390625 L 154.503906 249.34375 L 154.609375 249.300781 L 154.714844 249.261719 L 154.933594 249.199219 L 155.046875 249.171875 L 155.160156 249.152344 L 155.277344 249.132812 L 155.394531 249.117188 L 155.511719 249.109375 L 155.632812 249.101562 L 155.875 249.101562 L 155.992188 249.109375 L 156.105469 249.117188 L 156.21875 249.132812 L 156.332031 249.152344 L 156.441406 249.171875 L 156.546875 249.199219 L 156.65625 249.230469 L 156.761719 249.261719 L 156.863281 249.300781 L 156.96875 249.34375 L 157.066406 249.390625 L 157.164062 249.441406 L 157.261719 249.5 L 157.351562 249.566406 L 157.441406 249.636719 L 157.527344 249.714844 L 157.613281 249.796875 L 157.695312 249.886719 L 157.773438 249.980469 L 157.847656 250.082031 L 157.921875 250.1875 L 157.992188 250.300781 L 158.054688 250.421875 L 158.117188 250.550781 L 158.179688 250.683594 L 158.234375 250.824219 L 158.285156 250.972656 L 158.335938 251.125 L 158.382812 251.285156 L 158.425781 251.453125 L 158.460938 251.628906 L 158.496094 251.8125 L 158.523438 252.007812 L 158.550781 252.210938 L 158.570312 252.421875 L 158.585938 252.640625 L 158.597656 252.867188 L 158.601562 253.105469 Z M 157.53125 253.347656 L 157.53125 253.15625 L 157.527344 252.96875 L 157.523438 252.789062 L 157.515625 252.613281 L 157.503906 252.449219 L 157.492188 252.289062 L 157.476562 252.132812 L 157.457031 251.988281 L 157.4375 251.847656 L 157.414062 251.714844 L 157.390625 251.585938 L 157.363281 251.460938 L 157.335938 251.34375 L 157.304688 251.234375 L 157.269531 251.125 L 157.234375 251.023438 L 157.195312 250.925781 L 157.15625 250.835938 L 157.113281 250.75 L 157.070312 250.671875 L 157.023438 250.59375 L 156.972656 250.523438 L 156.921875 250.457031 L 156.871094 250.394531 L 156.816406 250.335938 L 156.757812 250.285156 L 156.699219 250.238281 L 156.636719 250.191406 L 156.574219 250.15625 L 156.507812 250.121094 L 156.441406 250.089844 L 156.300781 250.035156 L 156.230469 250.015625 L 156.15625 249.996094 L 156.078125 249.984375 L 156.003906 249.972656 L 155.839844 249.957031 L 155.667969 249.957031 L 155.582031 249.964844 L 155.5 249.972656 L 155.417969 249.984375 L 155.339844 249.996094 L 155.261719 250.015625 L 155.1875 250.035156 L 155.113281 250.0625 L 155.042969 250.089844 L 154.972656 250.121094 L 154.90625 250.15625 L 154.839844 250.195312 L 154.777344 250.238281 L 154.71875 250.289062 L 154.601562 250.398438 L 154.546875 250.460938 L 154.445312 250.601562 L 154.398438 250.675781 L 154.351562 250.757812 L 154.3125 250.84375 L 154.269531 250.933594 L 154.234375 251.03125 L 154.199219 251.132812 L 154.164062 251.238281 L 154.132812 251.351562 L 154.105469 251.46875 L 154.078125 251.589844 L 154.050781 251.71875 L 154.011719 251.992188 L 153.992188 252.140625 L 153.976562 252.292969 L 153.964844 252.453125 L 153.953125 252.617188 L 153.945312 252.792969 L 153.941406 252.972656 L 153.9375 253.15625 L 153.933594 253.347656 L 153.9375 253.535156 L 153.941406 253.71875 L 153.945312 253.890625 L 153.953125 254.0625 L 153.964844 254.222656 L 153.976562 254.378906 L 153.992188 254.53125 L 154.011719 254.675781 L 154.03125 254.816406 L 154.050781 254.949219 L 154.078125 255.078125 L 154.105469 255.199219 L 154.136719 255.316406 L 154.167969 255.429688 L 154.203125 255.535156 L 154.238281 255.636719 L 154.277344 255.734375 L 154.316406 255.828125 L 154.359375 255.914062 L 154.402344 255.996094 L 154.453125 256.074219 L 154.5 256.144531 L 154.554688 256.214844 L 154.605469 256.277344 L 154.664062 256.335938 L 154.722656 256.390625 L 154.78125 256.441406 L 154.84375 256.488281 L 154.90625 256.527344 L 154.972656 256.566406 L 155.039062 256.597656 L 155.109375 256.628906 L 155.179688 256.652344 L 155.253906 256.675781 L 155.328125 256.695312 L 155.484375 256.71875 L 155.566406 256.730469 L 155.648438 256.734375 L 155.816406 256.734375 L 155.898438 256.730469 L 156.054688 256.707031 L 156.128906 256.695312 L 156.203125 256.675781 L 156.277344 256.652344 L 156.347656 256.628906 L 156.417969 256.597656 L 156.484375 256.566406 L 156.550781 256.527344 L 156.613281 256.488281 L 156.675781 256.441406 L 156.734375 256.390625 L 156.792969 256.335938 L 156.847656 256.277344 L 156.898438 256.214844 L 157 256.074219 L 157.046875 255.996094 L 157.09375 255.914062 L 157.136719 255.828125 L 157.175781 255.734375 L 157.214844 255.636719 L 157.253906 255.535156 L 157.289062 255.429688 L 157.320312 255.316406 L 157.351562 255.199219 L 157.378906 255.078125 L 157.402344 254.949219 L 157.429688 254.816406 L 157.449219 254.675781 L 157.46875 254.53125 L 157.488281 254.378906 L 157.5 254.222656 L 157.511719 254.0625 L 157.527344 253.71875 L 157.53125 253.535156 Z M 157.53125 253.347656 "/>
<path style=" stroke:none;fill-rule:nonzero;fill:rgb(0%,0%,0%);fill-opacity:1;" d="M 189.863281 257.480469 L 189.863281 256.582031 L 191.964844 256.582031 L 191.964844 250.230469 L 190.101562 251.5625 L 190.101562 250.566406 L 192.054688 249.222656 L 193.027344 249.222656 L 193.027344 256.582031 L 195.035156 256.582031 L 195.035156 257.480469 Z M 189.863281 257.480469 "/>
<path style=" stroke:none;fill-rule:nonzero;fill:rgb(0%,0%,0%);fill-opacity:1;" d="M 201.792969 254.789062 L 201.789062 254.914062 L 201.785156 255.035156 L 201.761719 255.269531 L 201.746094 255.386719 L 201.726562 255.496094 L 201.699219 255.609375 L 201.671875 255.71875 L 201.640625 255.824219 L 201.605469 255.925781 L 201.566406 256.027344 L 201.523438 256.128906 L 201.476562 256.222656 L 201.425781 256.316406 L 201.371094 256.40625 L 201.3125 256.496094 L 201.253906 256.582031 L 201.1875 256.664062 L 201.121094 256.742188 L 200.972656 256.890625 L 200.894531 256.960938 L 200.722656 257.085938 L 200.632812 257.144531 L 200.539062 257.203125 L 200.441406 257.253906 L 200.339844 257.304688 L 200.238281 257.347656 L 200.128906 257.390625 L 200.015625 257.429688 L 199.902344 257.464844 L 199.785156 257.496094 L 199.664062 257.523438 L 199.539062 257.546875 L 199.410156 257.5625 L 199.277344 257.578125 L 199.144531 257.589844 L 198.863281 257.597656 L 198.734375 257.59375 L 198.609375 257.589844 L 198.367188 257.574219 L 198.140625 257.542969 L 198.03125 257.523438 L 197.925781 257.5 L 197.824219 257.472656 L 197.726562 257.445312 L 197.632812 257.414062 L 197.539062 257.378906 L 197.449219 257.34375 L 197.363281 257.304688 L 197.28125 257.265625 L 197.203125 257.222656 L 197.125 257.175781 L 197.050781 257.128906 L 196.980469 257.082031 L 196.910156 257.027344 L 196.847656 256.972656 L 196.78125 256.917969 L 196.664062 256.800781 L 196.609375 256.738281 L 196.558594 256.671875 L 196.507812 256.609375 L 196.464844 256.542969 L 196.417969 256.472656 L 196.378906 256.402344 L 196.339844 256.328125 L 196.304688 256.257812 L 196.242188 256.109375 L 196.210938 256.03125 L 196.1875 255.953125 L 196.160156 255.875 L 196.140625 255.796875 L 196.101562 255.632812 L 197.167969 255.511719 L 197.183594 255.558594 L 197.195312 255.605469 L 197.210938 255.652344 L 197.230469 255.695312 L 197.246094 255.742188 L 197.265625 255.789062 L 197.285156 255.832031 L 197.304688 255.878906 L 197.328125 255.921875 L 197.351562 255.96875 L 197.375 256.011719 L 197.402344 256.054688 L 197.429688 256.09375 L 197.457031 256.136719 L 197.519531 256.214844 L 197.554688 256.25 L 197.589844 256.289062 L 197.667969 256.359375 L 197.710938 256.394531 L 197.796875 256.457031 L 197.84375 256.488281 L 197.945312 256.542969 L 197.996094 256.566406 L 198.050781 256.589844 L 198.109375 256.613281 L 198.164062 256.636719 L 198.226562 256.65625 L 198.289062 256.671875 L 198.355469 256.6875 L 198.496094 256.710938 L 198.566406 256.71875 L 198.644531 256.726562 L 198.722656 256.730469 L 198.804688 256.734375 L 198.96875 256.734375 L 199.125 256.726562 L 199.203125 256.714844 L 199.277344 256.707031 L 199.351562 256.691406 L 199.421875 256.675781 L 199.5625 256.636719 L 199.628906 256.613281 L 199.695312 256.585938 L 199.882812 256.492188 L 199.9375 256.453125 L 199.996094 256.414062 L 200.046875 256.375 L 200.101562 256.332031 L 200.152344 256.285156 L 200.199219 256.238281 L 200.246094 256.1875 L 200.289062 256.136719 L 200.332031 256.082031 L 200.410156 255.964844 L 200.480469 255.839844 L 200.511719 255.773438 L 200.59375 255.5625 L 200.613281 255.488281 L 200.632812 255.410156 L 200.648438 255.332031 L 200.664062 255.25 L 200.675781 255.167969 L 200.691406 254.996094 L 200.695312 254.90625 L 200.695312 254.738281 L 200.691406 254.664062 L 200.683594 254.589844 L 200.675781 254.519531 L 200.652344 254.378906 L 200.636719 254.3125 L 200.597656 254.179688 L 200.574219 254.117188 L 200.519531 253.992188 L 200.425781 253.816406 L 200.386719 253.765625 L 200.347656 253.710938 L 200.308594 253.660156 L 200.222656 253.566406 L 200.175781 253.519531 L 200.074219 253.433594 L 200.023438 253.394531 L 199.96875 253.359375 L 199.851562 253.289062 L 199.789062 253.257812 L 199.726562 253.230469 L 199.660156 253.203125 L 199.59375 253.179688 L 199.523438 253.15625 L 199.453125 253.136719 L 199.382812 253.121094 L 199.308594 253.105469 L 199.230469 253.09375 L 199.074219 253.078125 L 198.992188 253.074219 L 198.804688 253.074219 L 198.703125 253.082031 L 198.609375 253.089844 L 198.558594 253.097656 L 198.515625 253.105469 L 198.421875 253.121094 L 198.378906 253.128906 L 198.207031 253.175781 L 198.167969 253.191406 L 198.125 253.203125 L 197.96875 253.265625 L 197.933594 253.285156 L 197.898438 253.300781 L 197.757812 253.378906 L 197.726562 253.398438 L 197.691406 253.421875 L 197.660156 253.441406 L 197.632812 253.464844 L 197.601562 253.484375 L 197.570312 253.507812 L 197.542969 253.527344 L 197.511719 253.550781 L 197.429688 253.621094 L 197.402344 253.640625 L 197.375 253.664062 L 196.34375 253.664062 L 196.617188 249.222656 L 201.3125 249.222656 L 201.3125 250.121094 L 197.578125 250.121094 L 197.421875 252.738281 L 197.480469 252.695312 L 197.539062 252.65625 L 197.601562 252.617188 L 197.667969 252.578125 L 197.738281 252.539062 L 197.808594 252.503906 L 197.882812 252.46875 L 197.960938 252.433594 L 198.125 252.371094 L 198.210938 252.339844 L 198.300781 252.3125 L 198.390625 252.289062 L 198.488281 252.269531 L 198.585938 252.253906 L 198.6875 252.238281 L 198.792969 252.226562 L 198.902344 252.21875 L 199.011719 252.214844 L 199.125 252.210938 L 199.367188 252.21875 L 199.484375 252.230469 L 199.597656 252.242188 L 199.710938 252.257812 L 199.820312 252.28125 L 199.925781 252.304688 L 200.03125 252.332031 L 200.132812 252.363281 L 200.234375 252.398438 L 200.332031 252.4375 L 200.425781 252.480469 L 200.605469 252.574219 L 200.851562 252.738281 L 200.925781 252.800781 L 201 252.867188 L 201.070312 252.933594 L 201.140625 253.003906 L 201.203125 253.074219 L 201.265625 253.148438 L 201.324219 253.226562 L 201.378906 253.308594 L 201.429688 253.390625 L 201.523438 253.5625 L 201.566406 253.652344 L 201.605469 253.746094 L 201.640625 253.84375 L 201.671875 253.941406 L 201.699219 254.039062 L 201.726562 254.140625 L 201.746094 254.246094 L 201.761719 254.351562 L 201.773438 254.457031 L 201.785156 254.566406 L 201.789062 254.679688 Z M 201.792969 254.789062 "/>
<path style=" stroke:none;fill-rule:nonzero;fill:rgb(0%,0%,0%);fill-opacity:1;" d="M 232.773438 257.480469 L 232.773438 256.734375 L 232.898438 256.46875 L 232.964844 256.339844 L 233.105469 256.089844 L 233.253906 255.855469 L 233.335938 255.742188 L 233.417969 255.636719 L 233.5 255.527344 L 233.585938 255.425781 L 233.675781 255.320312 L 233.945312 255.027344 L 234.035156 254.933594 L 234.128906 254.84375 L 234.21875 254.753906 L 234.3125 254.664062 L 234.410156 254.578125 L 234.503906 254.496094 L 234.597656 254.410156 L 234.785156 254.246094 L 235.066406 254.011719 L 235.347656 253.789062 L 235.4375 253.714844 L 235.53125 253.644531 L 235.621094 253.570312 L 235.707031 253.496094 L 235.792969 253.425781 L 235.875 253.351562 L 235.957031 253.28125 L 236.113281 253.132812 L 236.191406 253.0625 L 236.265625 252.988281 L 236.335938 252.914062 L 236.402344 252.839844 L 236.527344 252.691406 L 236.644531 252.535156 L 236.746094 252.378906 L 236.792969 252.300781 L 236.839844 252.21875 L 236.878906 252.136719 L 236.914062 252.050781 L 236.945312 251.964844 L 236.992188 251.785156 L 237.007812 251.691406 L 237.019531 251.59375 L 237.027344 251.496094 L 237.027344 251.328125 L 237.019531 251.195312 L 237.011719 251.128906 L 237 251.070312 L 236.988281 251.007812 L 236.976562 250.949219 L 236.960938 250.890625 L 236.921875 250.78125 L 236.902344 250.730469 L 236.875 250.679688 L 236.851562 250.628906 L 236.824219 250.582031 L 236.792969 250.535156 L 236.730469 250.449219 L 236.695312 250.40625 L 236.65625 250.367188 L 236.578125 250.296875 L 236.535156 250.261719 L 236.492188 250.230469 L 236.445312 250.203125 L 236.398438 250.171875 L 236.246094 250.101562 L 236.082031 250.042969 L 236.023438 250.027344 L 235.847656 249.992188 L 235.785156 249.984375 L 235.71875 249.976562 L 235.65625 249.972656 L 235.589844 249.96875 L 235.460938 249.96875 L 235.273438 249.980469 L 235.214844 249.992188 L 235.15625 250 L 235.039062 250.023438 L 234.980469 250.039062 L 234.925781 250.054688 L 234.816406 250.09375 L 234.714844 250.140625 L 234.664062 250.167969 L 234.613281 250.191406 L 234.519531 250.253906 L 234.476562 250.285156 L 234.390625 250.355469 L 234.347656 250.394531 L 234.269531 250.472656 L 234.234375 250.519531 L 234.199219 250.5625 L 234.167969 250.609375 L 234.132812 250.65625 L 234.105469 250.707031 L 234.074219 250.757812 L 234.050781 250.8125 L 234.023438 250.867188 L 234.003906 250.921875 L 233.980469 250.980469 L 233.964844 251.039062 L 233.945312 251.101562 L 233.933594 251.164062 L 233.917969 251.226562 L 233.910156 251.292969 L 233.898438 251.363281 L 232.820312 251.261719 L 232.832031 251.175781 L 232.847656 251.085938 L 232.886719 250.914062 L 232.910156 250.832031 L 232.933594 250.746094 L 232.964844 250.664062 L 232.996094 250.585938 L 233.03125 250.503906 L 233.066406 250.425781 L 233.105469 250.347656 L 233.148438 250.273438 L 233.195312 250.199219 L 233.296875 250.058594 L 233.351562 249.988281 L 233.410156 249.925781 L 233.46875 249.859375 L 233.535156 249.800781 L 233.601562 249.738281 L 233.667969 249.679688 L 233.816406 249.570312 L 233.894531 249.519531 L 233.972656 249.472656 L 234.054688 249.425781 L 234.140625 249.382812 L 234.320312 249.304688 L 234.414062 249.269531 L 234.511719 249.238281 L 234.714844 249.183594 L 234.933594 249.144531 L 235.042969 249.128906 L 235.160156 249.117188 L 235.277344 249.109375 L 235.398438 249.101562 L 235.644531 249.101562 L 235.761719 249.105469 L 235.878906 249.113281 L 236.105469 249.136719 L 236.210938 249.152344 L 236.316406 249.171875 L 236.421875 249.195312 L 236.519531 249.21875 L 236.617188 249.246094 L 236.710938 249.277344 L 236.804688 249.3125 L 236.890625 249.347656 L 236.976562 249.386719 L 237.140625 249.472656 L 237.214844 249.523438 L 237.289062 249.570312 L 237.359375 249.625 L 237.425781 249.679688 L 237.492188 249.738281 L 237.554688 249.800781 L 237.613281 249.867188 L 237.667969 249.933594 L 237.722656 250.003906 L 237.769531 250.074219 L 237.816406 250.148438 L 237.859375 250.226562 L 237.9375 250.390625 L 238 250.5625 L 238.027344 250.65625 L 238.066406 250.84375 L 238.082031 250.941406 L 238.097656 251.042969 L 238.105469 251.148438 L 238.109375 251.253906 L 238.113281 251.363281 L 238.105469 251.527344 L 238.097656 251.609375 L 238.085938 251.6875 L 238.074219 251.769531 L 238.058594 251.847656 L 238.039062 251.925781 L 238.015625 252.003906 L 237.960938 252.152344 L 237.898438 252.300781 L 237.863281 252.375 L 237.824219 252.449219 L 237.746094 252.589844 L 237.703125 252.660156 L 237.609375 252.800781 L 237.5625 252.867188 L 237.511719 252.9375 L 237.460938 253.003906 L 237.351562 253.136719 L 237.292969 253.203125 L 237.238281 253.269531 L 237.175781 253.332031 L 237.113281 253.398438 L 236.921875 253.589844 L 236.789062 253.714844 L 236.71875 253.777344 L 236.652344 253.839844 L 236.582031 253.902344 L 236.511719 253.960938 L 236.371094 254.085938 L 236.300781 254.144531 L 236.230469 254.207031 L 236.160156 254.265625 L 236.085938 254.324219 L 236.015625 254.386719 L 235.941406 254.445312 L 235.871094 254.503906 L 235.796875 254.5625 L 235.726562 254.625 L 235.652344 254.683594 L 235.582031 254.742188 L 235.507812 254.800781 L 235.4375 254.859375 L 235.367188 254.921875 L 235.226562 255.039062 L 235.027344 255.214844 L 234.960938 255.277344 L 234.894531 255.335938 L 234.832031 255.394531 L 234.710938 255.515625 L 234.652344 255.578125 L 234.59375 255.636719 L 234.539062 255.699219 L 234.484375 255.757812 L 234.429688 255.820312 L 234.277344 256.007812 L 234.230469 256.066406 L 234.144531 256.191406 L 234.101562 256.257812 L 234.066406 256.320312 L 234.027344 256.386719 L 233.996094 256.449219 L 233.933594 256.582031 L 238.242188 256.582031 L 238.242188 257.480469 Z M 232.773438 257.480469 "/>
<path style=" stroke:none;fill-rule:nonzero;fill:rgb(0%,0%,0%);fill-opacity:1;" d="M 245.050781 253.347656 L 245.046875 253.582031 L 245.039062 253.808594 L 245.027344 254.027344 L 245.011719 254.242188 L 244.992188 254.445312 L 244.96875 254.640625 L 244.9375 254.832031 L 244.902344 255.011719 L 244.863281 255.1875 L 244.820312 255.351562 L 244.773438 255.511719 L 244.726562 255.664062 L 244.671875 255.8125 L 244.617188 255.953125 L 244.554688 256.085938 L 244.492188 256.214844 L 244.425781 256.335938 L 244.355469 256.453125 L 244.28125 256.5625 L 244.207031 256.664062 L 244.128906 256.761719 L 244.046875 256.855469 L 243.875 257.019531 L 243.785156 257.09375 L 243.691406 257.160156 L 243.59375 257.226562 L 243.496094 257.28125 L 243.394531 257.335938 L 243.292969 257.378906 L 243.183594 257.421875 L 243.078125 257.457031 L 242.96875 257.492188 L 242.859375 257.519531 L 242.746094 257.542969 L 242.632812 257.5625 L 242.519531 257.578125 L 242.402344 257.589844 L 242.167969 257.597656 L 242.046875 257.59375 L 241.929688 257.589844 L 241.8125 257.578125 L 241.695312 257.5625 L 241.582031 257.542969 L 241.472656 257.519531 L 241.363281 257.492188 L 241.253906 257.457031 L 241.148438 257.421875 L 240.9375 257.335938 L 240.742188 257.226562 L 240.644531 257.160156 L 240.554688 257.09375 L 240.464844 257.019531 L 240.292969 256.855469 L 240.210938 256.761719 L 240.132812 256.664062 L 240.058594 256.5625 L 239.988281 256.453125 L 239.917969 256.339844 L 239.855469 256.21875 L 239.792969 256.089844 L 239.734375 255.957031 L 239.679688 255.816406 L 239.625 255.671875 L 239.574219 255.515625 L 239.53125 255.359375 L 239.488281 255.191406 L 239.453125 255.019531 L 239.417969 254.835938 L 239.390625 254.644531 L 239.367188 254.449219 L 239.347656 254.246094 L 239.332031 254.03125 L 239.320312 253.8125 L 239.316406 253.585938 L 239.3125 253.347656 L 239.316406 253.105469 L 239.320312 252.867188 L 239.332031 252.640625 L 239.347656 252.421875 L 239.367188 252.210938 L 239.390625 252.007812 L 239.417969 251.8125 L 239.453125 251.628906 L 239.488281 251.453125 L 239.53125 251.285156 L 239.574219 251.125 L 239.625 250.972656 L 239.679688 250.824219 L 239.734375 250.683594 L 239.792969 250.550781 L 239.855469 250.421875 L 239.921875 250.300781 L 239.992188 250.1875 L 240.0625 250.082031 L 240.140625 249.980469 L 240.21875 249.886719 L 240.300781 249.796875 L 240.382812 249.714844 L 240.472656 249.636719 L 240.5625 249.566406 L 240.652344 249.5 L 240.75 249.441406 L 240.847656 249.390625 L 240.949219 249.34375 L 241.054688 249.300781 L 241.160156 249.261719 L 241.378906 249.199219 L 241.492188 249.171875 L 241.71875 249.132812 L 241.835938 249.117188 L 242.078125 249.101562 L 242.320312 249.101562 L 242.433594 249.109375 L 242.550781 249.117188 L 242.664062 249.132812 L 242.882812 249.171875 L 242.992188 249.199219 L 243.101562 249.230469 L 243.207031 249.261719 L 243.308594 249.300781 L 243.414062 249.34375 L 243.511719 249.390625 L 243.609375 249.441406 L 243.703125 249.5 L 243.796875 249.566406 L 243.886719 249.636719 L 243.972656 249.714844 L 244.058594 249.796875 L 244.140625 249.886719 L 244.21875 249.980469 L 244.292969 250.082031 L 244.367188 250.1875 L 244.433594 250.300781 L 244.5 250.421875 L 244.5625 250.550781 L 244.621094 250.683594 L 244.679688 250.824219 L 244.730469 250.972656 L 244.78125 251.125 L 244.828125 251.285156 L 244.871094 251.453125 L 244.90625 251.628906 L 244.941406 251.8125 L 244.96875 252.007812 L 244.992188 252.210938 L 245.015625 252.421875 L 245.03125 252.640625 L 245.039062 252.867188 L 245.046875 253.105469 Z M 243.976562 253.347656 L 243.976562 253.15625 L 243.972656 252.96875 L 243.964844 252.789062 L 243.957031 252.613281 L 243.949219 252.449219 L 243.933594 252.289062 L 243.917969 252.132812 L 243.902344 251.988281 L 243.882812 251.847656 L 243.859375 251.714844 L 243.835938 251.585938 L 243.808594 251.460938 L 243.78125 251.34375 L 243.75 251.234375 L 243.714844 251.125 L 243.679688 251.023438 L 243.640625 250.925781 L 243.601562 250.835938 L 243.558594 250.75 L 243.515625 250.671875 L 243.46875 250.59375 L 243.417969 250.523438 L 243.367188 250.457031 L 243.316406 250.394531 L 243.257812 250.335938 L 243.203125 250.285156 L 243.144531 250.238281 L 243.082031 250.191406 L 243.019531 250.15625 L 242.953125 250.121094 L 242.886719 250.089844 L 242.746094 250.035156 L 242.675781 250.015625 L 242.601562 249.996094 L 242.445312 249.972656 L 242.367188 249.964844 L 242.285156 249.957031 L 242.113281 249.957031 L 242.027344 249.964844 L 241.945312 249.972656 L 241.78125 249.996094 L 241.707031 250.015625 L 241.628906 250.035156 L 241.558594 250.0625 L 241.484375 250.089844 L 241.417969 250.121094 L 241.351562 250.15625 L 241.285156 250.195312 L 241.222656 250.238281 L 241.160156 250.289062 L 241.101562 250.34375 L 241.046875 250.398438 L 240.992188 250.460938 L 240.890625 250.601562 L 240.84375 250.675781 L 240.796875 250.757812 L 240.753906 250.84375 L 240.714844 250.933594 L 240.675781 251.03125 L 240.640625 251.132812 L 240.609375 251.238281 L 240.578125 251.351562 L 240.546875 251.46875 L 240.519531 251.589844 L 240.496094 251.71875 L 240.472656 251.855469 L 240.453125 251.992188 L 240.4375 252.140625 L 240.421875 252.292969 L 240.410156 252.453125 L 240.398438 252.617188 L 240.390625 252.792969 L 240.382812 252.972656 L 240.378906 253.15625 L 240.378906 253.535156 L 240.382812 253.71875 L 240.398438 254.0625 L 240.410156 254.222656 L 240.421875 254.378906 L 240.4375 254.53125 L 240.453125 254.675781 L 240.472656 254.816406 L 240.496094 254.949219 L 240.523438 255.078125 L 240.550781 255.199219 L 240.582031 255.316406 L 240.613281 255.429688 L 240.644531 255.535156 L 240.683594 255.636719 L 240.722656 255.734375 L 240.761719 255.828125 L 240.804688 255.914062 L 240.847656 255.996094 L 240.894531 256.074219 L 240.996094 256.214844 L 241.050781 256.277344 L 241.164062 256.390625 L 241.226562 256.441406 L 241.285156 256.488281 L 241.417969 256.566406 L 241.484375 256.597656 L 241.554688 256.628906 L 241.625 256.652344 L 241.699219 256.675781 L 241.773438 256.695312 L 241.929688 256.71875 L 242.011719 256.730469 L 242.09375 256.734375 L 242.261719 256.734375 L 242.339844 256.730469 L 242.421875 256.71875 L 242.5 256.707031 L 242.574219 256.695312 L 242.648438 256.675781 L 242.71875 256.652344 L 242.792969 256.628906 L 242.859375 256.597656 L 242.929688 256.566406 L 242.996094 256.527344 L 243.058594 256.488281 L 243.121094 256.441406 L 243.179688 256.390625 L 243.292969 256.277344 L 243.34375 256.214844 L 243.445312 256.074219 L 243.492188 255.996094 L 243.535156 255.914062 L 243.582031 255.828125 L 243.621094 255.734375 L 243.660156 255.636719 L 243.699219 255.535156 L 243.730469 255.429688 L 243.765625 255.316406 L 243.792969 255.199219 L 243.824219 255.078125 L 243.847656 254.949219 L 243.871094 254.816406 L 243.894531 254.675781 L 243.914062 254.53125 L 243.929688 254.378906 L 243.945312 254.222656 L 243.957031 254.0625 L 243.972656 253.71875 L 243.976562 253.535156 Z M 243.976562 253.347656 "/>
<path style="fill:none;stroke-width:0.75;stroke-linecap:round;stroke-linejoin:round;stroke:rgb(0%,0%,0%);stroke-opacity:1;stroke-miterlimit:10;" d="M 59.039062 216.046875 L 59.039062 65.300781 "/>
<path style="fill:none;stroke-width:0.75;stroke-linecap:round;stroke-linejoin:round;stroke:rgb(0%,0%,0%);stroke-opacity:1;stroke-miterlimit:10;" d="M 59.039062 216.046875 L 51.839844 216.046875 "/>
<path style="fill:none;stroke-width:0.75;stroke-linecap:round;stroke-linejoin:round;stroke:rgb(0%,0%,0%);stroke-opacity:1;stroke-miterlimit:10;" d="M 59.039062 185.898438 L 51.839844 185.898438 "/>
<path style="fill:none;stroke-width:0.75;stroke-linecap:round;stroke-linejoin:round;stroke:rgb(0%,0%,0%);stroke-opacity:1;stroke-miterlimit:10;" d="M 59.039062 155.75 L 51.839844 155.75 "/>
<path style="fill:none;stroke-width:0.75;stroke-linecap:round;stroke-linejoin:round;stroke:rgb(0%,0%,0%);stroke-opacity:1;stroke-miterlimit:10;" d="M 59.039062 125.601562 L 51.839844 125.601562 "/>
<path style="fill:none;stroke-width:0.75;stroke-linecap:round;stroke-linejoin:round;stroke:rgb(0%,0%,0%);stroke-opacity:1;stroke-miterlimit:10;" d="M 59.039062 95.449219 L 51.839844 95.449219 "/>
<path style="fill:none;stroke-width:0.75;stroke-linecap:round;stroke-linejoin:round;stroke:rgb(0%,0%,0%);stroke-opacity:1;stroke-miterlimit:10;" d="M 59.039062 65.300781 L 51.839844 65.300781 "/>
<path style=" stroke:none;fill-rule:nonzero;fill:rgb(0%,0%,0%);fill-opacity:1;" d="M 39.042969 220.847656 L 38.105469 220.847656 L 38.105469 217.917969 L 39.042969 217.917969 Z M 39.042969 220.847656 "/>
<path style=" stroke:none;fill-rule:nonzero;fill:rgb(0%,0%,0%);fill-opacity:1;" d="M 41.761719 216.78125 L 41.015625 216.78125 L 40.878906 216.722656 L 40.75 216.660156 L 40.621094 216.59375 L 40.492188 216.523438 L 40.371094 216.453125 L 40.253906 216.378906 L 40.136719 216.300781 L 40.023438 216.222656 L 39.914062 216.140625 L 39.703125 215.96875 L 39.601562 215.882812 L 39.5 215.792969 L 39.402344 215.703125 L 39.308594 215.613281 L 39.214844 215.519531 L 39.121094 215.429688 L 39.03125 215.335938 L 38.773438 215.054688 L 38.691406 214.957031 L 38.527344 214.769531 L 38.214844 214.394531 L 38.140625 214.304688 L 38.070312 214.210938 L 37.996094 214.117188 L 37.921875 214.027344 L 37.851562 213.9375 L 37.777344 213.851562 L 37.707031 213.765625 L 37.558594 213.601562 L 37.488281 213.519531 L 37.414062 213.441406 L 37.34375 213.367188 L 37.269531 213.292969 L 37.195312 213.222656 L 37.046875 213.089844 L 36.96875 213.027344 L 36.894531 212.96875 L 36.738281 212.859375 L 36.660156 212.8125 L 36.582031 212.761719 L 36.5 212.71875 L 36.417969 212.679688 L 36.332031 212.644531 L 36.246094 212.613281 L 36.15625 212.585938 L 36.0625 212.566406 L 35.972656 212.550781 L 35.875 212.539062 L 35.777344 212.53125 L 35.679688 212.527344 L 35.539062 212.535156 L 35.476562 212.539062 L 35.410156 212.546875 L 35.347656 212.554688 L 35.289062 212.566406 L 35.171875 212.597656 L 35.117188 212.613281 L 35.0625 212.632812 L 35.007812 212.65625 L 34.957031 212.679688 L 34.910156 212.707031 L 34.859375 212.734375 L 34.816406 212.761719 L 34.769531 212.792969 L 34.726562 212.828125 L 34.648438 212.898438 L 34.613281 212.9375 L 34.574219 212.980469 L 34.511719 213.066406 L 34.480469 213.113281 L 34.425781 213.207031 L 34.402344 213.257812 L 34.382812 213.308594 L 34.359375 213.363281 L 34.34375 213.417969 L 34.324219 213.476562 L 34.308594 213.53125 L 34.292969 213.589844 L 34.28125 213.648438 L 34.273438 213.710938 L 34.261719 213.773438 L 34.257812 213.835938 L 34.25 213.96875 L 34.25 214.160156 L 34.257812 214.222656 L 34.261719 214.28125 L 34.269531 214.34375 L 34.304688 214.519531 L 34.320312 214.574219 L 34.335938 214.632812 L 34.375 214.742188 L 34.445312 214.894531 L 34.472656 214.941406 L 34.503906 214.988281 L 34.53125 215.035156 L 34.566406 215.082031 L 34.636719 215.167969 L 34.671875 215.207031 L 34.714844 215.246094 L 34.753906 215.285156 L 34.796875 215.324219 L 34.84375 215.359375 L 34.9375 215.421875 L 34.988281 215.453125 L 35.089844 215.507812 L 35.144531 215.53125 L 35.203125 215.554688 L 35.257812 215.574219 L 35.320312 215.59375 L 35.378906 215.609375 L 35.441406 215.625 L 35.574219 215.648438 L 35.644531 215.65625 L 35.542969 216.734375 L 35.453125 216.722656 L 35.367188 216.710938 L 35.195312 216.671875 L 35.109375 216.648438 L 34.945312 216.59375 L 34.863281 216.5625 L 34.785156 216.527344 L 34.628906 216.449219 L 34.550781 216.40625 L 34.480469 216.359375 L 34.40625 216.3125 L 34.335938 216.261719 L 34.269531 216.207031 L 34.203125 216.148438 L 34.078125 216.023438 L 34.019531 215.957031 L 33.960938 215.886719 L 33.90625 215.816406 L 33.851562 215.742188 L 33.800781 215.664062 L 33.707031 215.5 L 33.664062 215.414062 L 33.625 215.328125 L 33.585938 215.234375 L 33.550781 215.140625 L 33.488281 214.945312 L 33.441406 214.734375 L 33.421875 214.625 L 33.410156 214.511719 L 33.394531 214.398438 L 33.386719 214.28125 L 33.382812 214.160156 L 33.382812 213.914062 L 33.386719 213.792969 L 33.394531 213.679688 L 33.40625 213.5625 L 33.417969 213.453125 L 33.433594 213.34375 L 33.453125 213.238281 L 33.5 213.035156 L 33.527344 212.9375 L 33.558594 212.84375 L 33.589844 212.753906 L 33.628906 212.664062 L 33.667969 212.578125 L 33.710938 212.496094 L 33.753906 212.417969 L 33.800781 212.339844 L 33.851562 212.269531 L 33.960938 212.128906 L 34.019531 212.066406 L 34.082031 212.003906 L 34.144531 211.945312 L 34.210938 211.890625 L 34.28125 211.835938 L 34.355469 211.785156 L 34.429688 211.742188 L 34.585938 211.65625 L 34.671875 211.621094 L 34.753906 211.585938 L 34.933594 211.53125 L 35.027344 211.507812 L 35.125 211.488281 L 35.222656 211.472656 L 35.324219 211.460938 L 35.425781 211.453125 L 35.535156 211.445312 L 35.726562 211.445312 L 35.808594 211.453125 L 35.890625 211.457031 L 35.96875 211.46875 L 36.046875 211.484375 L 36.128906 211.5 L 36.207031 211.519531 L 36.28125 211.542969 L 36.359375 211.570312 L 36.433594 211.597656 L 36.582031 211.660156 L 36.65625 211.695312 L 36.726562 211.730469 L 36.800781 211.769531 L 37.011719 211.898438 L 37.082031 211.945312 L 37.214844 212.046875 L 37.285156 212.097656 L 37.484375 212.261719 L 37.546875 212.320312 L 37.613281 212.378906 L 37.675781 212.441406 L 37.742188 212.503906 L 38.054688 212.835938 L 38.117188 212.90625 L 38.179688 212.972656 L 38.304688 213.113281 L 38.363281 213.183594 L 38.425781 213.253906 L 38.484375 213.328125 L 38.546875 213.398438 L 38.605469 213.46875 L 38.664062 213.542969 L 38.726562 213.613281 L 38.785156 213.6875 L 38.84375 213.757812 L 38.902344 213.832031 L 38.964844 213.902344 L 39.023438 213.976562 L 39.082031 214.046875 L 39.140625 214.121094 L 39.257812 214.261719 L 39.316406 214.328125 L 39.378906 214.398438 L 39.554688 214.597656 L 39.617188 214.660156 L 39.734375 214.785156 L 39.855469 214.90625 L 39.917969 214.960938 L 39.976562 215.019531 L 40.039062 215.074219 L 40.101562 215.125 L 40.164062 215.179688 L 40.226562 215.230469 L 40.285156 215.28125 L 40.347656 215.328125 L 40.472656 215.414062 L 40.535156 215.453125 L 40.601562 215.492188 L 40.664062 215.527344 L 40.730469 215.5625 L 40.796875 215.59375 L 40.863281 215.621094 L 40.863281 211.316406 L 41.761719 211.316406 Z M 41.761719 216.78125 "/>
<path style=" stroke:none;fill-rule:nonzero;fill:rgb(0%,0%,0%);fill-opacity:1;" d="M 39.042969 190.699219 L 38.105469 190.699219 L 38.105469 187.769531 L 39.042969 187.769531 Z M 39.042969 190.699219 "/>
<path style=" stroke:none;fill-rule:nonzero;fill:rgb(0%,0%,0%);fill-opacity:1;" d="M 41.761719 186.324219 L 40.863281 186.324219 L 40.863281 184.21875 L 34.511719 184.21875 L 35.84375 186.082031 L 34.847656 186.082031 L 33.503906 184.132812 L 33.503906 183.160156 L 40.863281 183.160156 L 40.863281 181.148438 L 41.761719 181.148438 Z M 41.761719 186.324219 "/>
<path style=" stroke:none;fill-rule:nonzero;fill:rgb(0%,0%,0%);fill-opacity:1;" d="M 37.628906 152.878906 L 37.863281 152.882812 L 38.089844 152.890625 L 38.308594 152.902344 L 38.519531 152.917969 L 38.726562 152.9375 L 38.921875 152.964844 L 39.109375 152.992188 L 39.292969 153.027344 L 39.464844 153.066406 L 39.632812 153.109375 L 39.792969 153.15625 L 39.945312 153.207031 L 40.089844 153.257812 L 40.230469 153.316406 L 40.367188 153.375 L 40.492188 153.4375 L 40.617188 153.503906 L 40.730469 153.574219 L 40.839844 153.648438 L 40.945312 153.722656 L 41.042969 153.804688 L 41.132812 153.886719 L 41.21875 153.96875 L 41.300781 154.054688 L 41.375 154.144531 L 41.441406 154.238281 L 41.503906 154.335938 L 41.5625 154.433594 L 41.613281 154.535156 L 41.660156 154.636719 L 41.703125 154.746094 L 41.738281 154.851562 L 41.800781 155.070312 L 41.824219 155.183594 L 41.84375 155.296875 L 41.859375 155.410156 L 41.875 155.644531 L 41.878906 155.761719 L 41.875 155.882812 L 41.859375 156.117188 L 41.84375 156.234375 L 41.824219 156.347656 L 41.800781 156.457031 L 41.738281 156.675781 L 41.703125 156.785156 L 41.660156 156.886719 L 41.613281 156.992188 L 41.5625 157.09375 L 41.503906 157.1875 L 41.441406 157.285156 L 41.375 157.375 L 41.300781 157.464844 L 41.21875 157.550781 L 41.132812 157.636719 L 41.042969 157.71875 L 40.945312 157.796875 L 40.84375 157.871094 L 40.734375 157.941406 L 40.617188 158.011719 L 40.496094 158.078125 L 40.371094 158.136719 L 40.097656 158.253906 L 39.949219 158.304688 L 39.796875 158.355469 L 39.640625 158.398438 L 39.472656 158.441406 L 39.296875 158.476562 L 39.117188 158.511719 L 38.925781 158.539062 L 38.730469 158.5625 L 38.523438 158.582031 L 38.3125 158.597656 L 38.09375 158.609375 L 37.863281 158.613281 L 37.628906 158.617188 L 37.382812 158.613281 L 37.148438 158.609375 L 36.917969 158.597656 L 36.699219 158.582031 L 36.488281 158.5625 L 36.289062 158.539062 L 36.09375 158.511719 L 35.910156 158.476562 L 35.734375 158.441406 L 35.566406 158.398438 L 35.40625 158.355469 L 35.25 158.304688 L 35.105469 158.253906 L 34.964844 158.195312 L 34.828125 158.136719 L 34.703125 158.074219 L 34.582031 158.007812 L 34.46875 157.9375 L 34.359375 157.867188 L 34.164062 157.710938 L 34.078125 157.628906 L 33.996094 157.546875 L 33.917969 157.460938 L 33.847656 157.367188 L 33.78125 157.277344 L 33.722656 157.179688 L 33.667969 157.082031 L 33.621094 156.980469 L 33.542969 156.769531 L 33.507812 156.664062 L 33.480469 156.550781 L 33.453125 156.441406 L 33.429688 156.324219 L 33.414062 156.210938 L 33.398438 156.09375 L 33.382812 155.851562 L 33.382812 155.609375 L 33.390625 155.496094 L 33.398438 155.378906 L 33.414062 155.265625 L 33.429688 155.15625 L 33.453125 155.046875 L 33.480469 154.9375 L 33.507812 154.832031 L 33.542969 154.726562 L 33.582031 154.621094 L 33.621094 154.519531 L 33.667969 154.417969 L 33.722656 154.320312 L 33.78125 154.226562 L 33.847656 154.132812 L 33.917969 154.042969 L 33.996094 153.957031 L 34.078125 153.871094 L 34.164062 153.792969 L 34.261719 153.710938 L 34.359375 153.636719 L 34.46875 153.566406 L 34.582031 153.496094 L 34.703125 153.429688 L 34.828125 153.367188 L 34.964844 153.308594 L 35.105469 153.25 L 35.25 153.199219 L 35.40625 153.148438 L 35.566406 153.101562 L 35.734375 153.0625 L 35.910156 153.023438 L 36.09375 152.988281 L 36.289062 152.960938 L 36.488281 152.9375 L 36.699219 152.917969 L 36.917969 152.902344 L 37.148438 152.890625 L 37.382812 152.882812 Z M 37.628906 153.953125 L 37.4375 153.953125 L 37.25 153.957031 L 37.070312 153.964844 L 36.894531 153.972656 L 36.726562 153.980469 L 36.566406 153.996094 L 36.414062 154.011719 L 36.269531 154.027344 L 36.128906 154.046875 L 35.996094 154.070312 L 35.867188 154.09375 L 35.742188 154.121094 L 35.625 154.152344 L 35.511719 154.183594 L 35.40625 154.214844 L 35.304688 154.25 L 35.207031 154.289062 L 35.117188 154.328125 L 35.03125 154.371094 L 34.953125 154.414062 L 34.875 154.460938 L 34.804688 154.511719 L 34.738281 154.5625 L 34.675781 154.617188 L 34.617188 154.671875 L 34.566406 154.726562 L 34.515625 154.789062 L 34.472656 154.847656 L 34.433594 154.914062 L 34.402344 154.976562 L 34.371094 155.046875 L 34.339844 155.113281 L 34.316406 155.183594 L 34.296875 155.257812 L 34.277344 155.328125 L 34.261719 155.40625 L 34.25 155.484375 L 34.242188 155.5625 L 34.238281 155.644531 L 34.238281 155.816406 L 34.242188 155.902344 L 34.25 155.984375 L 34.261719 156.066406 L 34.277344 156.148438 L 34.296875 156.226562 L 34.316406 156.300781 L 34.339844 156.375 L 34.371094 156.445312 L 34.402344 156.511719 L 34.4375 156.582031 L 34.476562 156.644531 L 34.519531 156.707031 L 34.570312 156.769531 L 34.621094 156.828125 L 34.679688 156.882812 L 34.742188 156.9375 L 34.808594 156.988281 L 34.882812 157.039062 L 34.957031 157.085938 L 35.039062 157.132812 L 35.121094 157.175781 L 35.308594 157.253906 L 35.410156 157.289062 L 35.628906 157.351562 L 35.75 157.382812 L 35.871094 157.410156 L 36 157.433594 L 36.132812 157.457031 L 36.273438 157.476562 L 36.421875 157.492188 L 36.574219 157.507812 L 36.734375 157.519531 L 36.898438 157.53125 L 37.070312 157.539062 L 37.25 157.546875 L 37.4375 157.550781 L 37.816406 157.550781 L 37.996094 157.546875 L 38.171875 157.539062 L 38.339844 157.53125 L 38.503906 157.519531 L 38.660156 157.507812 L 38.8125 157.492188 L 38.957031 157.476562 L 39.09375 157.457031 L 39.230469 157.433594 L 39.480469 157.378906 L 39.597656 157.351562 L 39.707031 157.316406 L 39.816406 157.285156 L 39.917969 157.246094 L 40.015625 157.210938 L 40.109375 157.167969 L 40.195312 157.125 L 40.277344 157.082031 L 40.355469 157.035156 L 40.425781 156.984375 L 40.492188 156.933594 L 40.558594 156.878906 L 40.617188 156.824219 L 40.671875 156.765625 L 40.722656 156.703125 L 40.765625 156.644531 L 40.808594 156.578125 L 40.847656 156.511719 L 40.878906 156.445312 L 40.933594 156.304688 L 40.972656 156.15625 L 40.988281 156.078125 L 41 156 L 41.015625 155.835938 L 41.015625 155.667969 L 41.007812 155.589844 L 41 155.507812 L 40.988281 155.433594 L 40.972656 155.355469 L 40.953125 155.28125 L 40.933594 155.210938 L 40.878906 155.070312 L 40.847656 155 L 40.808594 154.9375 L 40.765625 154.871094 L 40.722656 154.8125 L 40.671875 154.75 L 40.617188 154.695312 L 40.558594 154.640625 L 40.492188 154.585938 L 40.425781 154.535156 L 40.355469 154.484375 L 40.277344 154.4375 L 40.195312 154.394531 L 40.109375 154.351562 L 40.015625 154.308594 L 39.917969 154.269531 L 39.816406 154.234375 L 39.597656 154.164062 L 39.480469 154.136719 L 39.230469 154.082031 L 38.957031 154.035156 L 38.8125 154.015625 L 38.660156 154 L 38.503906 153.984375 L 38.339844 153.972656 L 38.171875 153.964844 L 37.996094 153.957031 L 37.816406 153.953125 Z M 37.628906 153.953125 "/>
<path style=" stroke:none;fill-rule:nonzero;fill:rgb(0%,0%,0%);fill-opacity:1;" d="M 41.761719 128.023438 L 40.863281 128.023438 L 40.863281 125.917969 L 34.511719 125.917969 L 35.84375 127.78125 L 34.847656 127.78125 L 33.503906 125.832031 L 33.503906 124.859375 L 40.863281 124.859375 L 40.863281 122.847656 L 41.761719 122.847656 Z M 41.761719 128.023438 "/>
<path style=" stroke:none;fill-rule:nonzero;fill:rgb(0%,0%,0%);fill-opacity:1;" d="M 41.761719 98.183594 L 41.015625 98.183594 L 40.878906 98.121094 L 40.75 98.058594 L 40.492188 97.925781 L 40.371094 97.851562 L 40.136719 97.703125 L 40.023438 97.625 L 39.914062 97.542969 L 39.703125 97.371094 L 39.5 97.191406 L 39.402344 97.105469 L 39.308594 97.011719 L 39.214844 96.921875 L 39.03125 96.738281 L 38.859375 96.550781 L 38.773438 96.453125 L 38.527344 96.171875 L 38.214844 95.796875 L 38.140625 95.703125 L 38.070312 95.613281 L 37.921875 95.425781 L 37.851562 95.339844 L 37.777344 95.25 L 37.707031 95.167969 L 37.632812 95.082031 L 37.558594 95 L 37.488281 94.921875 L 37.414062 94.84375 L 37.34375 94.769531 L 37.269531 94.695312 L 37.121094 94.554688 L 37.046875 94.492188 L 36.96875 94.429688 L 36.894531 94.371094 L 36.738281 94.261719 L 36.660156 94.210938 L 36.582031 94.164062 L 36.417969 94.078125 L 36.332031 94.042969 L 36.246094 94.015625 L 36.15625 93.988281 L 36.0625 93.96875 L 35.972656 93.949219 L 35.875 93.9375 L 35.679688 93.929688 L 35.609375 93.929688 L 35.539062 93.933594 L 35.476562 93.9375 L 35.410156 93.945312 L 35.347656 93.957031 L 35.230469 93.980469 L 35.171875 93.996094 L 35.0625 94.035156 L 35.007812 94.058594 L 34.957031 94.082031 L 34.910156 94.105469 L 34.859375 94.132812 L 34.816406 94.164062 L 34.769531 94.195312 L 34.726562 94.230469 L 34.648438 94.300781 L 34.613281 94.339844 L 34.574219 94.378906 L 34.542969 94.421875 L 34.511719 94.46875 L 34.480469 94.511719 L 34.453125 94.558594 L 34.425781 94.609375 L 34.402344 94.660156 L 34.382812 94.710938 L 34.359375 94.765625 L 34.34375 94.820312 L 34.324219 94.875 L 34.292969 94.992188 L 34.28125 95.050781 L 34.273438 95.113281 L 34.261719 95.175781 L 34.253906 95.300781 L 34.25 95.367188 L 34.25 95.5625 L 34.257812 95.621094 L 34.261719 95.683594 L 34.269531 95.742188 L 34.28125 95.800781 L 34.292969 95.863281 L 34.304688 95.917969 L 34.335938 96.035156 L 34.355469 96.085938 L 34.375 96.140625 L 34.398438 96.191406 L 34.421875 96.246094 L 34.445312 96.292969 L 34.472656 96.34375 L 34.503906 96.390625 L 34.53125 96.4375 L 34.566406 96.480469 L 34.601562 96.527344 L 34.636719 96.566406 L 34.671875 96.609375 L 34.714844 96.648438 L 34.753906 96.6875 L 34.796875 96.722656 L 34.890625 96.792969 L 34.9375 96.824219 L 34.988281 96.855469 L 35.089844 96.910156 L 35.144531 96.933594 L 35.203125 96.957031 L 35.257812 96.976562 L 35.320312 96.996094 L 35.378906 97.011719 L 35.441406 97.027344 L 35.574219 97.050781 L 35.644531 97.058594 L 35.542969 98.136719 L 35.453125 98.125 L 35.28125 98.09375 L 35.195312 98.070312 L 35.109375 98.050781 L 35.027344 98.023438 L 34.863281 97.960938 L 34.785156 97.929688 L 34.628906 97.851562 L 34.550781 97.808594 L 34.480469 97.761719 L 34.40625 97.710938 L 34.335938 97.660156 L 34.269531 97.605469 L 34.203125 97.546875 L 34.140625 97.488281 L 34.078125 97.425781 L 34.019531 97.359375 L 33.960938 97.289062 L 33.851562 97.140625 L 33.800781 97.0625 L 33.753906 96.984375 L 33.707031 96.902344 L 33.664062 96.816406 L 33.585938 96.636719 L 33.550781 96.542969 L 33.519531 96.445312 L 33.488281 96.34375 L 33.464844 96.242188 L 33.441406 96.136719 L 33.421875 96.027344 L 33.410156 95.914062 L 33.394531 95.796875 L 33.386719 95.679688 L 33.382812 95.558594 L 33.382812 95.3125 L 33.386719 95.195312 L 33.394531 95.078125 L 33.40625 94.964844 L 33.417969 94.855469 L 33.433594 94.746094 L 33.453125 94.640625 L 33.5 94.4375 L 33.527344 94.339844 L 33.589844 94.152344 L 33.667969 93.980469 L 33.753906 93.816406 L 33.800781 93.742188 L 33.851562 93.667969 L 33.90625 93.597656 L 33.960938 93.53125 L 34.019531 93.464844 L 34.082031 93.402344 L 34.144531 93.34375 L 34.210938 93.289062 L 34.28125 93.238281 L 34.355469 93.1875 L 34.429688 93.140625 L 34.507812 93.097656 L 34.585938 93.058594 L 34.671875 93.023438 L 34.753906 92.988281 L 34.84375 92.957031 L 34.933594 92.933594 L 35.027344 92.910156 L 35.125 92.890625 L 35.222656 92.875 L 35.425781 92.851562 L 35.535156 92.847656 L 35.726562 92.847656 L 35.808594 92.851562 L 35.890625 92.859375 L 36.046875 92.882812 L 36.128906 92.902344 L 36.207031 92.921875 L 36.28125 92.941406 L 36.359375 92.96875 L 36.433594 93 L 36.507812 93.027344 L 36.582031 93.0625 L 36.65625 93.09375 L 36.726562 93.132812 L 36.800781 93.171875 L 36.871094 93.210938 L 36.941406 93.253906 L 37.082031 93.347656 L 37.148438 93.398438 L 37.214844 93.445312 L 37.285156 93.5 L 37.351562 93.550781 L 37.417969 93.605469 L 37.484375 93.664062 L 37.546875 93.722656 L 37.613281 93.78125 L 37.675781 93.84375 L 37.742188 93.90625 L 37.804688 93.972656 L 37.867188 94.035156 L 37.929688 94.101562 L 37.992188 94.171875 L 38.117188 94.304688 L 38.304688 94.515625 L 38.363281 94.585938 L 38.425781 94.65625 L 38.484375 94.726562 L 38.546875 94.800781 L 38.664062 94.941406 L 38.726562 95.015625 L 38.785156 95.085938 L 38.84375 95.160156 L 38.902344 95.230469 L 38.964844 95.304688 L 39.023438 95.378906 L 39.316406 95.730469 L 39.378906 95.796875 L 39.4375 95.867188 L 39.496094 95.933594 L 39.554688 95.996094 L 39.617188 96.0625 L 39.734375 96.1875 L 39.796875 96.246094 L 39.855469 96.304688 L 39.917969 96.363281 L 39.976562 96.417969 L 40.101562 96.527344 L 40.164062 96.578125 L 40.226562 96.632812 L 40.285156 96.679688 L 40.410156 96.773438 L 40.472656 96.816406 L 40.535156 96.855469 L 40.601562 96.894531 L 40.664062 96.929688 L 40.730469 96.960938 L 40.796875 96.996094 L 40.863281 97.023438 L 40.863281 92.71875 L 41.761719 92.71875 Z M 41.761719 98.183594 "/>
<path style=" stroke:none;fill-rule:nonzero;fill:rgb(0%,0%,0%);fill-opacity:1;" d="M 39.480469 62.492188 L 39.59375 62.492188 L 39.8125 62.507812 L 39.914062 62.519531 L 40.019531 62.539062 L 40.117188 62.558594 L 40.214844 62.582031 L 40.3125 62.613281 L 40.402344 62.644531 L 40.496094 62.679688 L 40.667969 62.757812 L 40.75 62.804688 L 40.828125 62.851562 L 40.90625 62.90625 L 40.980469 62.960938 L 41.050781 63.019531 L 41.121094 63.082031 L 41.1875 63.148438 L 41.25 63.21875 L 41.308594 63.289062 L 41.367188 63.367188 L 41.421875 63.445312 L 41.472656 63.527344 L 41.519531 63.613281 L 41.566406 63.703125 L 41.609375 63.796875 L 41.648438 63.894531 L 41.683594 63.992188 L 41.71875 64.097656 L 41.75 64.203125 L 41.777344 64.3125 L 41.800781 64.421875 L 41.820312 64.539062 L 41.835938 64.65625 L 41.851562 64.777344 L 41.863281 64.902344 L 41.871094 65.027344 L 41.878906 65.292969 L 41.871094 65.589844 L 41.859375 65.730469 L 41.847656 65.867188 L 41.832031 66 L 41.785156 66.25 L 41.757812 66.367188 L 41.726562 66.480469 L 41.691406 66.585938 L 41.648438 66.691406 L 41.609375 66.789062 L 41.515625 66.976562 L 41.46875 67.0625 L 41.414062 67.148438 L 41.363281 67.226562 L 41.304688 67.304688 L 41.246094 67.378906 L 41.1875 67.449219 L 41.121094 67.515625 L 41.054688 67.578125 L 40.988281 67.636719 L 40.847656 67.746094 L 40.777344 67.796875 L 40.628906 67.882812 L 40.550781 67.921875 L 40.472656 67.957031 L 40.390625 67.992188 L 40.308594 68.019531 L 40.226562 68.050781 L 40.0625 68.097656 L 39.976562 68.121094 L 39.894531 68.136719 L 39.808594 68.15625 L 39.722656 68.167969 L 39.640625 68.179688 L 39.539062 67.089844 L 39.605469 67.082031 L 39.667969 67.070312 L 39.730469 67.054688 L 39.792969 67.042969 L 39.851562 67.023438 L 39.910156 67.007812 L 40.027344 66.96875 L 40.136719 66.921875 L 40.191406 66.894531 L 40.242188 66.867188 L 40.292969 66.835938 L 40.339844 66.804688 L 40.433594 66.734375 L 40.476562 66.699219 L 40.519531 66.660156 L 40.558594 66.617188 L 40.601562 66.574219 L 40.636719 66.53125 L 40.707031 66.4375 L 40.742188 66.386719 L 40.769531 66.332031 L 40.800781 66.28125 L 40.828125 66.222656 L 40.875 66.105469 L 40.898438 66.042969 L 40.9375 65.910156 L 40.953125 65.839844 L 40.964844 65.769531 L 40.988281 65.621094 L 40.996094 65.542969 L 41.003906 65.378906 L 41.003906 65.292969 L 41 65.136719 L 40.988281 64.988281 L 40.96875 64.84375 L 40.941406 64.710938 L 40.90625 64.582031 L 40.863281 64.460938 L 40.8125 64.347656 L 40.753906 64.238281 L 40.6875 64.136719 L 40.613281 64.042969 L 40.527344 63.957031 L 40.4375 63.878906 L 40.339844 63.8125 L 40.238281 63.75 L 40.125 63.703125 L 40.003906 63.660156 L 39.875 63.628906 L 39.738281 63.605469 L 39.597656 63.589844 L 39.445312 63.585938 L 39.355469 63.589844 L 39.269531 63.59375 L 39.1875 63.605469 L 39.109375 63.621094 L 39.035156 63.636719 L 38.960938 63.660156 L 38.894531 63.6875 L 38.832031 63.71875 L 38.769531 63.753906 L 38.714844 63.792969 L 38.65625 63.832031 L 38.605469 63.875 L 38.554688 63.921875 L 38.507812 63.96875 L 38.421875 64.070312 L 38.382812 64.121094 L 38.34375 64.179688 L 38.3125 64.234375 L 38.28125 64.296875 L 38.25 64.355469 L 38.21875 64.417969 L 38.195312 64.480469 L 38.167969 64.542969 L 38.109375 64.742188 L 38.09375 64.8125 L 38.058594 65.023438 L 38.050781 65.089844 L 38.042969 65.160156 L 38.035156 65.226562 L 38.027344 65.289062 L 38.023438 65.355469 L 38.019531 65.417969 L 38.019531 65.480469 L 38.015625 65.542969 L 38.015625 66.199219 L 37.101562 66.199219 L 37.101562 65.566406 L 37.097656 65.503906 L 37.097656 65.445312 L 37.09375 65.382812 L 37.085938 65.320312 L 37.082031 65.257812 L 37.074219 65.195312 L 37.0625 65.132812 L 37.054688 65.070312 L 37.042969 65.003906 L 37.03125 64.941406 L 37.015625 64.878906 L 36.996094 64.816406 L 36.957031 64.699219 L 36.933594 64.640625 L 36.90625 64.582031 L 36.851562 64.472656 L 36.820312 64.417969 L 36.75 64.316406 L 36.710938 64.265625 L 36.671875 64.21875 L 36.628906 64.175781 L 36.535156 64.089844 L 36.488281 64.050781 L 36.433594 64.015625 L 36.382812 63.980469 L 36.324219 63.945312 L 36.265625 63.917969 L 36.203125 63.890625 L 36.136719 63.867188 L 36.066406 63.847656 L 35.996094 63.832031 L 35.921875 63.820312 L 35.84375 63.8125 L 35.761719 63.804688 L 35.679688 63.804688 L 35.546875 63.808594 L 35.425781 63.820312 L 35.304688 63.839844 L 35.191406 63.867188 L 35.085938 63.902344 L 34.984375 63.945312 L 34.890625 63.996094 L 34.796875 64.054688 L 34.714844 64.121094 L 34.636719 64.195312 L 34.5625 64.277344 L 34.496094 64.367188 L 34.4375 64.460938 L 34.386719 64.566406 L 34.34375 64.679688 L 34.308594 64.796875 L 34.28125 64.925781 L 34.265625 65.058594 L 34.253906 65.199219 L 34.25 65.351562 L 34.25 65.488281 L 34.261719 65.617188 L 34.28125 65.746094 L 34.304688 65.867188 L 34.335938 65.980469 L 34.375 66.09375 L 34.421875 66.199219 L 34.476562 66.296875 L 34.539062 66.390625 L 34.605469 66.480469 L 34.679688 66.5625 L 34.761719 66.636719 L 34.847656 66.707031 L 34.9375 66.765625 L 35.035156 66.820312 L 35.140625 66.867188 L 35.25 66.90625 L 35.363281 66.9375 L 35.488281 66.960938 L 35.613281 66.980469 L 35.53125 68.039062 L 35.425781 68.027344 L 35.320312 68.007812 L 35.117188 67.960938 L 35.023438 67.933594 L 34.929688 67.902344 L 34.835938 67.867188 L 34.75 67.828125 L 34.664062 67.785156 L 34.582031 67.742188 L 34.503906 67.691406 L 34.425781 67.644531 L 34.351562 67.589844 L 34.28125 67.535156 L 34.214844 67.476562 L 34.148438 67.414062 L 34.023438 67.289062 L 33.914062 67.148438 L 33.8125 67 L 33.765625 66.921875 L 33.722656 66.84375 L 33.679688 66.761719 L 33.640625 66.679688 L 33.605469 66.59375 L 33.542969 66.414062 L 33.515625 66.324219 L 33.46875 66.136719 L 33.445312 66.039062 L 33.429688 65.945312 L 33.414062 65.847656 L 33.402344 65.746094 L 33.394531 65.648438 L 33.386719 65.546875 L 33.382812 65.441406 L 33.382812 65.203125 L 33.386719 65.070312 L 33.398438 64.941406 L 33.410156 64.816406 L 33.425781 64.695312 L 33.445312 64.578125 L 33.46875 64.464844 L 33.492188 64.355469 L 33.523438 64.25 L 33.558594 64.148438 L 33.59375 64.050781 L 33.628906 63.957031 L 33.671875 63.867188 L 33.757812 63.695312 L 33.808594 63.617188 L 33.910156 63.46875 L 33.96875 63.398438 L 34.085938 63.273438 L 34.148438 63.214844 L 34.210938 63.160156 L 34.277344 63.109375 L 34.34375 63.0625 L 34.414062 63.015625 L 34.5625 62.9375 L 34.636719 62.902344 L 34.71875 62.871094 L 34.796875 62.84375 L 34.878906 62.816406 L 34.960938 62.792969 L 35.042969 62.773438 L 35.128906 62.757812 L 35.300781 62.734375 L 35.386719 62.726562 L 35.566406 62.71875 L 35.640625 62.722656 L 35.710938 62.722656 L 35.78125 62.730469 L 35.851562 62.734375 L 35.917969 62.746094 L 35.984375 62.753906 L 36.183594 62.800781 L 36.308594 62.839844 L 36.371094 62.863281 L 36.546875 62.945312 L 36.601562 62.980469 L 36.65625 63.011719 L 36.710938 63.050781 L 36.761719 63.089844 L 36.816406 63.128906 L 36.863281 63.171875 L 36.914062 63.21875 L 36.960938 63.265625 L 37.003906 63.316406 L 37.050781 63.371094 L 37.089844 63.425781 L 37.132812 63.484375 L 37.171875 63.542969 L 37.25 63.667969 L 37.285156 63.734375 L 37.347656 63.875 L 37.378906 63.949219 L 37.40625 64.023438 L 37.460938 64.1875 L 37.484375 64.269531 L 37.523438 64.449219 L 37.546875 64.449219 L 37.558594 64.351562 L 37.574219 64.253906 L 37.589844 64.160156 L 37.609375 64.070312 L 37.628906 63.984375 L 37.65625 63.898438 L 37.679688 63.8125 L 37.742188 63.65625 L 37.777344 63.582031 L 37.808594 63.507812 L 37.847656 63.4375 L 37.925781 63.304688 L 37.96875 63.246094 L 38.011719 63.183594 L 38.054688 63.128906 L 38.105469 63.074219 L 38.152344 63.019531 L 38.253906 62.925781 L 38.308594 62.878906 L 38.363281 62.839844 L 38.480469 62.761719 L 38.539062 62.726562 L 38.597656 62.695312 L 38.722656 62.640625 L 38.789062 62.613281 L 38.855469 62.589844 L 38.988281 62.550781 L 39.058594 62.535156 L 39.125 62.523438 L 39.195312 62.511719 L 39.335938 62.496094 L 39.410156 62.492188 Z M 39.480469 62.492188 "/>
<g clip-path="url(#clip1)" clip-rule="nonzero">
<path style="fill:none;stroke-width:0.75;stroke-linecap:round;stroke-linejoin:round;stroke:rgb(0%,0%,0%);stroke-opacity:1;stroke-dasharray:3,3;stroke-miterlimit:10;" d="M 59.039062 155.75 L 245.761719 155.75 "/>
</g>
<g clip-path="url(#clip2)" clip-rule="nonzero">
<path style="fill:none;stroke-width:0.75;stroke-linecap:round;stroke-linejoin:round;stroke:rgb(0%,0%,0%);stroke-opacity:1;stroke-dasharray:3,3;stroke-miterlimit:10;" d="M 65.957031 231.558594 L 65.957031 59.039062 "/>
</g>
</g>
</svg>
