<?xml version="1.0" encoding="UTF-8" standalone="no"?>
<!-- Created with Inkscape (http://www.inkscape.org/) -->

<svg
   width="139.8457mm"
   height="94.276413mm"
   viewBox="0 0 495.51627 334.05028"
   id="svg2"
   version="1.1"
   inkscape:version="1.3.2 (091e20e, 2023-11-25)"
   sodipodi:docname="Finite_difference_method.svg"
   xmlns:inkscape="http://www.inkscape.org/namespaces/inkscape"
   xmlns:sodipodi="http://sodipodi.sourceforge.net/DTD/sodipodi-0.dtd"
   xmlns="http://www.w3.org/2000/svg"
   xmlns:svg="http://www.w3.org/2000/svg"
   xmlns:rdf="http://www.w3.org/1999/02/22-rdf-syntax-ns#"
   xmlns:cc="http://creativecommons.org/ns#"
   xmlns:dc="http://purl.org/dc/elements/1.1/">
  <defs
     id="defs4">
    <marker
       inkscape:stockid="Arrow2Mend"
       orient="auto"
       refY="0"
       refX="0"
       id="marker6224"
       style="overflow:visible"
       inkscape:isstock="true">
      <path
         id="path6226"
         style="fill:#000000;fill-opacity:1;fill-rule:evenodd;stroke:#000000;stroke-width:0.625;stroke-linejoin:round;stroke-opacity:1"
         d="M 8.7185878,4.0337352 -2.2072895,0.01601326 8.7185884,-4.0017078 c -1.7454984,2.3720609 -1.7354408,5.6174519 -6e-7,8.035443 z"
         transform="scale(-0.6,-0.6)"
         inkscape:connector-curvature="0" />
    </marker>
    <marker
       inkscape:isstock="true"
       style="overflow:visible"
       id="marker6124"
       refX="0"
       refY="0"
       orient="auto"
       inkscape:stockid="Arrow2Mend"
       inkscape:collect="always">
      <path
         transform="scale(-0.6,-0.6)"
         d="M 8.7185878,4.0337352 -2.2072895,0.01601326 8.7185884,-4.0017078 c -1.7454984,2.3720609 -1.7354408,5.6174519 -6e-7,8.035443 z"
         style="fill:#000000;fill-opacity:1;fill-rule:evenodd;stroke:#000000;stroke-width:0.625;stroke-linejoin:round;stroke-opacity:1"
         id="path6126"
         inkscape:connector-curvature="0" />
    </marker>
    <marker
       inkscape:stockid="Arrow2Mend"
       orient="auto"
       refY="0"
       refX="0"
       id="marker6030"
       style="overflow:visible"
       inkscape:isstock="true"
       inkscape:collect="always">
      <path
         id="path6032"
         style="fill:#000000;fill-opacity:1;fill-rule:evenodd;stroke:#000000;stroke-width:0.625;stroke-linejoin:round;stroke-opacity:1"
         d="M 8.7185878,4.0337352 -2.2072895,0.01601326 8.7185884,-4.0017078 c -1.7454984,2.3720609 -1.7354408,5.6174519 -6e-7,8.035443 z"
         transform="scale(-0.6,-0.6)"
         inkscape:connector-curvature="0" />
    </marker>
    <marker
       inkscape:stockid="Arrow1Mend"
       orient="auto"
       refY="0"
       refX="0"
       id="Arrow1Mend"
       style="overflow:visible"
       inkscape:isstock="true">
      <path
         id="path4151"
         d="M 0,0 5,-5 -12.5,0 5,5 0,0 Z"
         style="fill:#000000;fill-opacity:1;fill-rule:evenodd;stroke:#000000;stroke-width:1pt;stroke-opacity:1"
         transform="matrix(-0.4,0,0,-0.4,-4,0)"
         inkscape:connector-curvature="0" />
    </marker>
    <marker
       inkscape:isstock="true"
       style="overflow:visible"
       id="marker4852"
       refX="0"
       refY="0"
       orient="auto"
       inkscape:stockid="Arrow2Mend"
       inkscape:collect="always">
      <path
         transform="scale(-0.6,-0.6)"
         d="M 8.7185878,4.0337352 -2.2072895,0.01601326 8.7185884,-4.0017078 c -1.7454984,2.3720609 -1.7354408,5.6174519 -6e-7,8.035443 z"
         style="fill:#000000;fill-opacity:1;fill-rule:evenodd;stroke:#000000;stroke-width:0.625;stroke-linejoin:round;stroke-opacity:1"
         id="path4854"
         inkscape:connector-curvature="0" />
    </marker>
    <marker
       inkscape:isstock="true"
       style="overflow:visible"
       id="marker4794"
       refX="0"
       refY="0"
       orient="auto"
       inkscape:stockid="Arrow2Mstart">
      <path
         transform="scale(0.6,0.6)"
         d="M 8.7185878,4.0337352 -2.2072895,0.01601326 8.7185884,-4.0017078 c -1.7454984,2.3720609 -1.7354408,5.6174519 -6e-7,8.035443 z"
         style="fill:#000000;fill-opacity:1;fill-rule:evenodd;stroke:#000000;stroke-width:0.625;stroke-linejoin:round;stroke-opacity:1"
         id="path4796"
         inkscape:connector-curvature="0" />
    </marker>
    <marker
       inkscape:stockid="Arrow2Mend"
       orient="auto"
       refY="0"
       refX="0"
       id="marker4728"
       style="overflow:visible"
       inkscape:isstock="true"
       inkscape:collect="always">
      <path
         id="path4730"
         style="fill:#000000;fill-opacity:1;fill-rule:evenodd;stroke:#000000;stroke-width:0.625;stroke-linejoin:round;stroke-opacity:1"
         d="M 8.7185878,4.0337352 -2.2072895,0.01601326 8.7185884,-4.0017078 c -1.7454984,2.3720609 -1.7354408,5.6174519 -6e-7,8.035443 z"
         transform="scale(-0.6,-0.6)"
         inkscape:connector-curvature="0" />
    </marker>
    <marker
       inkscape:stockid="Arrow2Mstart"
       orient="auto"
       refY="0"
       refX="0"
       id="marker4676"
       style="overflow:visible"
       inkscape:isstock="true"
       inkscape:collect="always">
      <path
         id="path4678"
         style="fill:#000000;fill-opacity:1;fill-rule:evenodd;stroke:#000000;stroke-width:0.625;stroke-linejoin:round;stroke-opacity:1"
         d="M 8.7185878,4.0337352 -2.2072895,0.01601326 8.7185884,-4.0017078 c -1.7454984,2.3720609 -1.7354408,5.6174519 -6e-7,8.035443 z"
         transform="scale(0.6,0.6)"
         inkscape:connector-curvature="0" />
    </marker>
    <marker
       inkscape:stockid="Arrow2Mend"
       orient="auto"
       refY="0"
       refX="0"
       id="Arrow2Mend"
       style="overflow:visible"
       inkscape:isstock="true">
      <path
         id="path4169"
         style="fill:#000000;fill-opacity:1;fill-rule:evenodd;stroke:#000000;stroke-width:0.625;stroke-linejoin:round;stroke-opacity:1"
         d="M 8.7185878,4.0337352 -2.2072895,0.01601326 8.7185884,-4.0017078 c -1.7454984,2.3720609 -1.7354408,5.6174519 -6e-7,8.035443 z"
         transform="scale(-0.6,-0.6)"
         inkscape:connector-curvature="0" />
    </marker>
    <marker
       inkscape:stockid="Arrow2Mstart"
       orient="auto"
       refY="0"
       refX="0"
       id="Arrow2Mstart"
       style="overflow:visible"
       inkscape:isstock="true">
      <path
         id="path4166"
         style="fill:#000000;fill-opacity:1;fill-rule:evenodd;stroke:#000000;stroke-width:0.625;stroke-linejoin:round;stroke-opacity:1"
         d="M 8.7185878,4.0337352 -2.2072895,0.01601326 8.7185884,-4.0017078 c -1.7454984,2.3720609 -1.7354408,5.6174519 -6e-7,8.035443 z"
         transform="scale(0.6,0.6)"
         inkscape:connector-curvature="0" />
    </marker>
    <marker
       inkscape:stockid="Arrow1Lstart"
       orient="auto"
       refY="0"
       refX="0"
       id="Arrow1Lstart"
       style="overflow:visible"
       inkscape:isstock="true">
      <path
         id="path4142"
         d="M 0,0 5,-5 -12.5,0 5,5 0,0 Z"
         style="fill:#000000;fill-opacity:1;fill-rule:evenodd;stroke:#000000;stroke-width:1pt;stroke-opacity:1"
         transform="matrix(0.8,0,0,0.8,10,0)"
         inkscape:connector-curvature="0" />
    </marker>
    <marker
       inkscape:stockid="Arrow2Lend"
       orient="auto"
       refY="0"
       refX="0"
       id="Arrow2Lend"
       style="overflow:visible"
       inkscape:isstock="true">
      <path
         id="path4163"
         style="fill:#000000;fill-opacity:1;fill-rule:evenodd;stroke:#000000;stroke-width:0.625;stroke-linejoin:round;stroke-opacity:1"
         d="M 8.7185878,4.0337352 -2.2072895,0.01601326 8.7185884,-4.0017078 c -1.7454984,2.3720609 -1.7354408,5.6174519 -6e-7,8.035443 z"
         transform="matrix(-1.1,0,0,-1.1,-1.1,0)"
         inkscape:connector-curvature="0" />
    </marker>
    <marker
       inkscape:stockid="Arrow1Lend"
       orient="auto"
       refY="0"
       refX="0"
       id="Arrow1Lend"
       style="overflow:visible"
       inkscape:isstock="true">
      <path
         id="path4145"
         d="M 0,0 5,-5 -12.5,0 5,5 0,0 Z"
         style="fill:#000000;fill-opacity:1;fill-rule:evenodd;stroke:#000000;stroke-width:1pt;stroke-opacity:1"
         transform="matrix(-0.8,0,0,-0.8,-10,0)"
         inkscape:connector-curvature="0" />
    </marker>
  </defs>
  <sodipodi:namedview
     id="base"
     pagecolor="#ffffff"
     bordercolor="#666666"
     borderopacity="1.0"
     inkscape:pageopacity="0.0"
     inkscape:pageshadow="2"
     inkscape:zoom="2.8"
     inkscape:cx="159.64286"
     inkscape:cy="209.28571"
     inkscape:document-units="px"
     inkscape:current-layer="layer1"
     showgrid="false"
     inkscape:snap-global="false"
     inkscape:window-width="3782"
     inkscape:window-height="2096"
     inkscape:window-x="58"
     inkscape:window-y="27"
     inkscape:window-maximized="1"
     fit-margin-top="3"
     fit-margin-left="3"
     fit-margin-right="3"
     fit-margin-bottom="3"
     inkscape:showpageshadow="2"
     inkscape:pagecheckerboard="0"
     inkscape:deskcolor="#d1d1d1" />
  <metadata
     id="metadata7">
    <rdf:RDF>
      <cc:Work
         rdf:about="">
        <dc:format>image/svg+xml</dc:format>
        <dc:type
           rdf:resource="http://purl.org/dc/dcmitype/StillImage" />
        <dc:title />
      </cc:Work>
    </rdf:RDF>
  </metadata>
  <g
     inkscape:label="Layer 1"
     inkscape:groupmode="layer"
     id="layer1"
     transform="translate(-126.8474,-255.33581)">
    <g
       id="g9">
      <path
         style="fill:#ff0000;stroke:none;stroke-width:0.993478;-inkscape-stroke:none"
         id="path1"
         sodipodi:type="arc"
         sodipodi:cx="360.64056"
         sodipodi:cy="312.15472"
         sodipodi:rx="5.9742045"
         sodipodi:ry="5.9742045"
         sodipodi:start="0"
         sodipodi:end="6.2831285"
         sodipodi:arc-type="slice"
         d="m 366.61477,312.15472 a 5.9742045,5.9742045 0 0 1 -5.97412,5.97421 5.9742045,5.9742045 0 0 1 -5.97429,-5.97404 5.9742045,5.9742045 0 0 1 5.97395,-5.97437 5.9742045,5.9742045 0 0 1 5.97446,5.97386 l -5.97421,3.4e-4 z" />
      <path
         style="fill:#ff0000;stroke:none;stroke-width:0.993478;-inkscape-stroke:none"
         id="path2"
         sodipodi:type="arc"
         sodipodi:cx="410.96533"
         sodipodi:cy="323.89438"
         sodipodi:rx="5.9742045"
         sodipodi:ry="5.9742045"
         sodipodi:start="0"
         sodipodi:end="6.2831285"
         sodipodi:arc-type="slice"
         d="m 416.93954,323.89438 a 5.9742045,5.9742045 0 0 1 -5.97412,5.9742 5.9742045,5.9742045 0 0 1 -5.97429,-5.97403 5.9742045,5.9742045 0 0 1 5.97395,-5.97438 5.9742045,5.9742045 0 0 1 5.97446,5.97387 l -5.97421,3.4e-4 z" />
      <path
         style="fill:#ff0000;stroke:none;stroke-width:0.993478;-inkscape-stroke:none"
         id="path3"
         sodipodi:type="arc"
         sodipodi:cx="309.85947"
         sodipodi:cy="329.93198"
         sodipodi:rx="5.9742045"
         sodipodi:ry="5.9742045"
         sodipodi:start="0"
         sodipodi:end="6.2831285"
         sodipodi:arc-type="slice"
         d="m 315.83367,329.93198 a 5.9742045,5.9742045 0 0 1 -5.97412,5.9742 5.9742045,5.9742045 0 0 1 -5.97429,-5.97403 5.9742045,5.9742045 0 0 1 5.97395,-5.97438 5.9742045,5.9742045 0 0 1 5.97446,5.97387 l -5.9742,3.4e-4 z" />
      <path
         style="fill:#ff0000;stroke:none;stroke-width:0.993478;-inkscape-stroke:none"
         id="path4"
         sodipodi:type="arc"
         sodipodi:cx="263.62863"
         sodipodi:cy="351.75864"
         sodipodi:rx="5.9742045"
         sodipodi:ry="5.9742045"
         sodipodi:start="0"
         sodipodi:end="6.2831285"
         sodipodi:arc-type="slice"
         d="m 269.60284,351.75864 a 5.9742045,5.9742045 0 0 1 -5.97412,5.9742 5.9742045,5.9742045 0 0 1 -5.97429,-5.97403 5.9742045,5.9742045 0 0 1 5.97395,-5.97438 5.9742045,5.9742045 0 0 1 5.97446,5.97387 l -5.97421,3.4e-4 z" />
      <path
         style="fill:#ff0000;stroke:none;stroke-width:0.993478;-inkscape-stroke:none"
         id="path5"
         sodipodi:type="arc"
         sodipodi:cx="221.50208"
         sodipodi:cy="378.17603"
         sodipodi:rx="5.9742045"
         sodipodi:ry="5.9742045"
         sodipodi:start="0"
         sodipodi:end="6.2831285"
         sodipodi:arc-type="slice"
         d="m 227.47628,378.17603 a 5.9742045,5.9742045 0 0 1 -5.97412,5.9742 5.9742045,5.9742045 0 0 1 -5.97429,-5.97403 5.9742045,5.9742045 0 0 1 5.97395,-5.97438 5.9742045,5.9742045 0 0 1 5.97446,5.97387 l -5.9742,3.4e-4 z" />
      <path
         style="fill:#ff0000;stroke:none;stroke-width:0.993478;-inkscape-stroke:none"
         id="path6"
         sodipodi:type="arc"
         sodipodi:cx="185.65889"
         sodipodi:cy="405.35016"
         sodipodi:rx="5.9742045"
         sodipodi:ry="5.9742045"
         sodipodi:start="0"
         sodipodi:end="6.2831285"
         sodipodi:arc-type="slice"
         d="m 191.63309,405.35016 a 5.9742045,5.9742045 0 0 1 -5.97412,5.9742 5.9742045,5.9742045 0 0 1 -5.97428,-5.97403 5.9742045,5.9742045 0 0 1 5.97395,-5.97438 5.9742045,5.9742045 0 0 1 5.97445,5.97387 l -5.9742,3.4e-4 z" />
      <path
         style="fill:#ff0000;stroke:none;stroke-width:0.993478;-inkscape-stroke:none"
         id="path7"
         sodipodi:type="arc"
         sodipodi:cx="151.20297"
         sodipodi:cy="438.88968"
         sodipodi:rx="5.9742045"
         sodipodi:ry="5.9742045"
         sodipodi:start="0"
         sodipodi:end="6.2831285"
         sodipodi:arc-type="slice"
         d="m 157.17718,438.88968 a 5.9742045,5.9742045 0 0 1 -5.97412,5.9742 5.9742045,5.9742045 0 0 1 -5.97429,-5.97403 5.9742045,5.9742045 0 0 1 5.97395,-5.97438 5.9742045,5.9742045 0 0 1 5.97446,5.97387 l -5.97421,3.4e-4 z" />
      <path
         style="fill:#ff0000;stroke:none;stroke-width:0.993478;-inkscape-stroke:none"
         id="path8"
         sodipodi:type="arc"
         sodipodi:cx="455.64517"
         sodipodi:cy="356.0293"
         sodipodi:rx="5.9742045"
         sodipodi:ry="5.9742045"
         sodipodi:start="0"
         sodipodi:end="6.2831285"
         sodipodi:arc-type="slice"
         d="m 461.61938,356.0293 a 5.9742045,5.9742045 0 0 1 -5.97412,5.9742 5.9742045,5.9742045 0 0 1 -5.97429,-5.97403 5.9742045,5.9742045 0 0 1 5.97395,-5.97438 5.9742045,5.9742045 0 0 1 5.97446,5.97387 l -5.97421,3.4e-4 z" />
      <path
         style="fill:#ff0000;stroke:none;stroke-width:0.993478;-inkscape-stroke:none"
         id="path9"
         sodipodi:type="arc"
         sodipodi:cx="494.22437"
         sodipodi:cy="392.52365"
         sodipodi:rx="5.9742045"
         sodipodi:ry="5.9742045"
         sodipodi:start="0"
         sodipodi:end="6.2831285"
         sodipodi:arc-type="slice"
         d="m 500.19857,392.52365 a 5.9742045,5.9742045 0 0 1 -5.97412,5.97421 5.9742045,5.9742045 0 0 1 -5.97429,-5.97404 5.9742045,5.9742045 0 0 1 5.97395,-5.97437 5.9742045,5.9742045 0 0 1 5.97446,5.97386 l -5.9742,3.4e-4 z" />
    </g>
    <path
       style="fill:none;fill-rule:evenodd;stroke:#000000;stroke-width:2;stroke-linecap:butt;stroke-linejoin:miter;stroke-miterlimit:4;stroke-dasharray:none;stroke-opacity:1;marker-start:url(#Arrow2Mstart);marker-end:url(#Arrow2Mend)"
       d="m 145.71429,278.07649 0,262.85714 418.96098,0"
       id="path3336"
       inkscape:connector-curvature="0" />
    <path
       style="fill:none;fill-rule:evenodd;stroke:#ff0000;stroke-width:1.53093751;stroke-linecap:butt;stroke-linejoin:miter;stroke-miterlimit:4;stroke-dasharray:none;stroke-opacity:1"
       d="m 139.40105,452.33159 c 0,0 89.10364,-107.35663 220.14146,-139.37132 63.07998,-15.41147 160.57221,110.79479 160.57221,110.79479"
       id="path4462"
       inkscape:connector-curvature="0"
       sodipodi:nodetypes="csc" />
    <path
       style="fill:none;fill-rule:evenodd;stroke:#000000;stroke-width:2;stroke-linecap:butt;stroke-linejoin:miter;stroke-miterlimit:4;stroke-dasharray:none;stroke-dashoffset:0;stroke-opacity:1"
       d="m 360.75,540.71994 0,-227.28432"
       id="path4514"
       inkscape:connector-curvature="0"
       sodipodi:nodetypes="cc" />
    <path
       style="fill:none;fill-rule:evenodd;stroke:#000000;stroke-width:2;stroke-linecap:butt;stroke-linejoin:miter;stroke-miterlimit:4;stroke-dasharray:6, 2;stroke-dashoffset:0;stroke-opacity:1"
       d="m 310.5,540.21486 0,-209.13312"
       id="path4516"
       inkscape:connector-curvature="0"
       sodipodi:nodetypes="cc" />
    <path
       style="fill:none;fill-rule:evenodd;stroke:#000000;stroke-width:2;stroke-linecap:butt;stroke-linejoin:miter;stroke-miterlimit:4;stroke-dasharray:6, 2;stroke-dashoffset:0;stroke-opacity:1"
       d="m 410.5,539.20471 0,-215.66757"
       id="path4518"
       inkscape:connector-curvature="0"
       sodipodi:nodetypes="cc" />
    <path
       style="fill:none;fill-rule:evenodd;stroke:#000000;stroke-width:1px;stroke-linecap:butt;stroke-linejoin:miter;stroke-opacity:1;marker-start:url(#marker4676);marker-end:url(#marker4728)"
       d="m 310.87445,563.88038 49.49747,0"
       id="path4674"
       inkscape:connector-curvature="0" />
    <path
       inkscape:connector-curvature="0"
       id="path4792"
       d="m 362.64477,563.88038 47.47716,0"
       style="fill:none;fill-rule:evenodd;stroke:#000000;stroke-width:1px;stroke-linecap:butt;stroke-linejoin:miter;stroke-opacity:1;marker-start:url(#marker4794);marker-end:url(#marker4852)"
       sodipodi:nodetypes="cc" />
    <text
       xml:space="preserve"
       style="font-style:normal;font-weight:normal;line-height:0%;font-family:sans-serif;letter-spacing:0px;word-spacing:0px;fill:#000000;fill-opacity:1;stroke:none;stroke-width:1px;stroke-linecap:butt;stroke-linejoin:miter;stroke-opacity:1"
       x="356.34192"
       y="555.77521"
       id="text5912"><tspan
         sodipodi:role="line"
         id="tspan5914"
         x="356.34192"
         y="555.77521"
         style="font-size:15px;line-height:1.25">x</tspan></text>
    <text
       id="text5916"
       y="556.28027"
       x="290.42944"
       style="font-style:normal;font-weight:normal;line-height:0%;font-family:sans-serif;letter-spacing:0px;word-spacing:0px;fill:#000000;fill-opacity:1;stroke:none;stroke-width:1px;stroke-linecap:butt;stroke-linejoin:miter;stroke-opacity:1"
       xml:space="preserve"><tspan
         style="font-size:15px;line-height:1.25"
         y="556.28027"
         x="290.42944"
         id="tspan5918"
         sodipodi:role="line">x−Δx</tspan></text>
    <text
       xml:space="preserve"
       style="font-style:normal;font-weight:normal;line-height:0%;font-family:sans-serif;letter-spacing:0px;word-spacing:0px;fill:#000000;fill-opacity:1;stroke:none;stroke-width:1px;stroke-linecap:butt;stroke-linejoin:miter;stroke-opacity:1"
       x="390.6871"
       y="555.77521"
       id="text5920"><tspan
         sodipodi:role="line"
         id="tspan5922"
         x="390.6871"
         y="555.77521"
         style="font-size:15px;line-height:1.25">x+Δx</tspan></text>
    <text
       id="text5928"
       y="578.75616"
       x="324.52213"
       style="font-style:normal;font-weight:normal;line-height:0%;font-family:sans-serif;letter-spacing:0px;word-spacing:0px;fill:#000000;fill-opacity:1;stroke:none;stroke-width:1px;stroke-linecap:butt;stroke-linejoin:miter;stroke-opacity:1"
       xml:space="preserve"><tspan
         style="font-size:15px;line-height:1.25"
         y="578.75616"
         x="324.52213"
         id="tspan5930"
         sodipodi:role="line">Δx</tspan></text>
    <text
       xml:space="preserve"
       style="font-style:normal;font-weight:normal;line-height:0%;font-family:sans-serif;letter-spacing:0px;word-spacing:0px;fill:#000000;fill-opacity:1;stroke:none;stroke-width:1px;stroke-linecap:butt;stroke-linejoin:miter;stroke-opacity:1"
       x="376.03992"
       y="578.75616"
       id="text5932"><tspan
         sodipodi:role="line"
         id="tspan5934"
         x="376.03992"
         y="578.75616"
         style="font-size:15px;line-height:1.25">Δx</tspan></text>
    <path
       style="fill:none;fill-rule:evenodd;stroke:#000000;stroke-width:1px;stroke-linecap:butt;stroke-linejoin:miter;stroke-opacity:1;marker-end:url(#Arrow1Mend)"
       d="M 210,456.64792 178.57143,414.50506"
       id="path5936"
       inkscape:connector-curvature="0" />
    <text
       xml:space="preserve"
       style="font-style:normal;font-weight:normal;line-height:0%;font-family:sans-serif;letter-spacing:0px;word-spacing:0px;fill:#000000;fill-opacity:1;stroke:none;stroke-width:1px;stroke-linecap:butt;stroke-linejoin:miter;stroke-opacity:1"
       x="210"
       y="470.21936"
       id="text6012"><tspan
         sodipodi:role="line"
         id="tspan6014"
         x="210"
         y="470.21936"
         style="font-size:15px;line-height:1.25">f(x)</tspan></text>
    <path
       style="fill:#00ccff;fill-rule:evenodd;stroke:#0000d4;stroke-width:2;stroke-linecap:butt;stroke-linejoin:miter;stroke-miterlimit:4;stroke-dasharray:none;stroke-opacity:1"
       d="M 267.94297,334.39629 453.30595,321.76937"
       id="path6016"
       inkscape:connector-curvature="0"
       sodipodi:nodetypes="cc" />
    <path
       style="fill:#008000;fill-rule:evenodd;stroke:#2aff2a;stroke-width:2;stroke-linecap:butt;stroke-linejoin:miter;stroke-miterlimit:4;stroke-dasharray:none;stroke-opacity:1"
       d="M 393.45441,300.30364 280.06479,343.99273"
       id="path6018"
       inkscape:connector-curvature="0"
       sodipodi:nodetypes="cc" />
    <path
       style="fill:none;fill-rule:evenodd;stroke:#00ccff;stroke-width:2;stroke-linecap:butt;stroke-linejoin:miter;stroke-miterlimit:4;stroke-dasharray:none;stroke-opacity:1"
       d="m 305.82369,298.7884 146.21958,35.86042"
       id="path6020"
       inkscape:connector-curvature="0"
       sodipodi:nodetypes="cc" />
    <path
       style="fill:none;fill-rule:evenodd;stroke:#000000;stroke-width:1px;stroke-linecap:butt;stroke-linejoin:miter;stroke-opacity:1;marker-end:url(#marker6030)"
       d="m 468.21429,343.07649 c -1.78572,0 -22.5,-10 -22.5,-10"
       id="path6022"
       inkscape:connector-curvature="0" />
    <text
       xml:space="preserve"
       style="font-style:normal;font-weight:normal;line-height:0%;font-family:sans-serif;letter-spacing:0px;word-spacing:0px;fill:#000000;fill-opacity:1;stroke:none;stroke-width:1px;stroke-linecap:butt;stroke-linejoin:miter;stroke-opacity:1"
       x="473.92856"
       y="352.36221"
       id="text6112"><tspan
         sodipodi:role="line"
         id="tspan6114"
         x="473.92856"
         y="352.36221"
         style="font-size:15px;line-height:1.25">forward-difference</tspan></text>
    <path
       style="fill:none;fill-rule:evenodd;stroke:#000000;stroke-width:1px;stroke-linecap:butt;stroke-linejoin:miter;stroke-opacity:1;marker-end:url(#marker6124)"
       d="m 420.71429,287.3622 -2.14286,36.42858"
       id="path6116"
       inkscape:connector-curvature="0" />
    <text
       id="text6212"
       y="277.36221"
       x="366.07141"
       style="font-style:normal;font-weight:normal;line-height:0%;font-family:sans-serif;letter-spacing:0px;word-spacing:0px;fill:#000000;fill-opacity:1;stroke:none;stroke-width:1px;stroke-linecap:butt;stroke-linejoin:miter;stroke-opacity:1"
       xml:space="preserve"><tspan
         style="font-size:15px;line-height:1.25"
         y="277.36221"
         x="366.07141"
         id="tspan6214"
         sodipodi:role="line">central-difference</tspan></text>
    <path
       style="fill:none;fill-rule:evenodd;stroke:#000000;stroke-width:1px;stroke-linecap:butt;stroke-linejoin:miter;stroke-opacity:1;marker-end:url(#marker6224)"
       d="m 280.71429,297.36221 45.71428,27.14285"
       id="path6216"
       inkscape:connector-curvature="0"
       sodipodi:nodetypes="cc" />
    <text
       xml:space="preserve"
       style="font-style:normal;font-weight:normal;line-height:0%;font-family:sans-serif;letter-spacing:0px;word-spacing:0px;fill:#000000;fill-opacity:1;stroke:none;stroke-width:1px;stroke-linecap:butt;stroke-linejoin:miter;stroke-opacity:1"
       x="172.14284"
       y="293.07651"
       id="text6318"><tspan
         sodipodi:role="line"
         id="tspan6320"
         x="172.14284"
         y="293.07651"
         style="font-size:15px;line-height:1.25">backward-difference</tspan></text>
  </g>
</svg>
