<?xml version="1.0" encoding="UTF-8"?>
<svg xmlns="http://www.w3.org/2000/svg" xmlns:xlink="http://www.w3.org/1999/xlink" width="216pt" height="216pt" viewBox="0 0 216 216" version="1.1">
<defs>
<clipPath id="clip1">
  <path d="M 30.914062 5.480469 L 210.519531 5.480469 L 210.519531 184.6875 L 30.914062 184.6875 Z M 30.914062 5.480469 "/>
</clipPath>
<clipPath id="clip2">
  <path d="M 30.914062 78 L 210.519531 78 L 210.519531 80 L 30.914062 80 Z M 30.914062 78 "/>
</clipPath>
<clipPath id="clip3">
  <path d="M 152 5.480469 L 154 5.480469 L 154 184.6875 L 152 184.6875 Z M 152 5.480469 "/>
</clipPath>
<clipPath id="clip4">
  <path d="M 30.914062 77 L 155 77 L 155 184.6875 L 30.914062 184.6875 Z M 30.914062 77 "/>
</clipPath>
<clipPath id="clip5">
  <path d="M 30.914062 77 L 155 77 L 155 184.6875 L 30.914062 184.6875 Z M 30.914062 77 "/>
</clipPath>
<clipPath id="clip6">
  <path d="M 152 78 L 154 78 L 154 184.6875 L 152 184.6875 Z M 152 78 "/>
</clipPath>
<clipPath id="clip7">
  <path d="M 30.914062 78 L 154 78 L 154 80 L 30.914062 80 Z M 30.914062 78 "/>
</clipPath>
</defs>
<g id="surface6">
<rect x="0" y="0" width="216" height="216" style="fill:rgb(100%,100%,100%);fill-opacity:1;stroke:none;"/>
<rect x="0" y="0" width="216" height="216" style="fill:rgb(99.215686%,96.470588%,89.019608%);fill-opacity:1;stroke:none;"/>
<path style="fill:none;stroke-width:1.066978;stroke-linecap:round;stroke-linejoin:round;stroke:rgb(99.215686%,96.470588%,89.019608%);stroke-opacity:1;stroke-miterlimit:10;" d="M 0 216 L 216 216 L 216 0 L 0 0 Z M 0 216 "/>
<g clip-path="url(#clip1)" clip-rule="nonzero">
<path style="fill-rule:nonzero;fill:rgb(99.215686%,96.470588%,89.019608%);fill-opacity:1;stroke-width:1.066978;stroke-linecap:round;stroke-linejoin:round;stroke:rgb(99.215686%,96.470588%,89.019608%);stroke-opacity:1;stroke-miterlimit:10;" d="M 30.914062 184.6875 L 210.519531 184.6875 L 210.519531 5.480469 L 30.914062 5.480469 Z M 30.914062 184.6875 "/>
</g>
<g clip-path="url(#clip2)" clip-rule="nonzero">
<path style="fill:none;stroke-width:1.066978;stroke-linecap:butt;stroke-linejoin:round;stroke:rgb(87.45098%,86.666667%,81.568627%);stroke-opacity:1;stroke-miterlimit:10;" d="M 30.914062 78.792969 L 210.519531 78.792969 "/>
</g>
<g clip-path="url(#clip3)" clip-rule="nonzero">
<path style="fill:none;stroke-width:1.066978;stroke-linecap:butt;stroke-linejoin:round;stroke:rgb(87.45098%,86.666667%,81.568627%);stroke-opacity:1;stroke-miterlimit:10;" d="M 152.992188 184.6875 L 152.992188 5.480469 "/>
</g>
<g clip-path="url(#clip4)" clip-rule="nonzero">
<path style="fill:none;stroke-width:2.133957;stroke-linecap:butt;stroke-linejoin:round;stroke:rgb(0%,0%,100%);stroke-opacity:1;stroke-miterlimit:10;" d="M 20.09375 192.832031 L 152.992188 78.792969 "/>
</g>
<path style="fill-rule:nonzero;fill:rgb(0%,0%,100%);fill-opacity:1;stroke-width:2.133957;stroke-linecap:butt;stroke-linejoin:round;stroke:rgb(0%,0%,100%);stroke-opacity:1;stroke-miterlimit:10;" d="M 148.21875 92.375 L 152.992188 78.792969 L 138.839844 81.449219 Z M 148.21875 92.375 "/>
<g clip-path="url(#clip5)" clip-rule="nonzero">
<path style="fill:none;stroke-width:2.133957;stroke-linecap:butt;stroke-linejoin:round;stroke:rgb(0%,0%,100%);stroke-opacity:1;stroke-miterlimit:10;" d="M 20.09375 192.832031 L 152.992188 78.792969 "/>
</g>
<path style="fill-rule:nonzero;fill:rgb(0%,0%,100%);fill-opacity:1;stroke-width:2.133957;stroke-linecap:butt;stroke-linejoin:round;stroke:rgb(0%,0%,100%);stroke-opacity:1;stroke-miterlimit:10;" d="M 148.21875 92.375 L 152.992188 78.792969 L 138.839844 81.449219 Z M 148.21875 92.375 "/>
<path style=" stroke:none;fill-rule:nonzero;fill:rgb(39.607843%,48.235294%,51.372549%);fill-opacity:1;" d="M 165.433594 56.101562 L 163.492188 53.152344 L 165.359375 53.152344 L 166.527344 55.070312 L 167.707031 53.152344 L 169.574219 53.152344 L 167.609375 56.101562 L 169.664062 59.179688 L 167.792969 59.179688 L 166.527344 57.113281 L 165.253906 59.179688 L 163.390625 59.179688 Z M 165.433594 56.101562 "/>
<path style=" stroke:none;fill-rule:nonzero;fill:rgb(39.607843%,48.235294%,51.372549%);fill-opacity:1;" d="M 173.050781 54.914062 L 173.050781 54.113281 L 178.03125 54.113281 L 178.03125 54.914062 Z M 173.050781 57.125 L 173.050781 56.316406 L 178.03125 56.316406 L 178.03125 57.125 Z M 174.941406 52.3125 Z M 174.941406 52.3125 "/>
<path style=" stroke:none;fill-rule:nonzero;fill:rgb(39.607843%,48.235294%,51.372549%);fill-opacity:1;" d="M 182.402344 40.382812 L 186.9375 40.382812 L 186.9375 48.261719 L 182.402344 48.261719 Z M 182.964844 47.703125 L 186.375 47.703125 L 186.375 40.941406 L 182.964844 40.941406 Z M 182.964844 47.703125 "/>
<path style=" stroke:none;fill-rule:nonzero;fill:rgb(39.607843%,48.235294%,51.372549%);fill-opacity:1;" d="M 182.402344 63.230469 L 186.9375 63.230469 L 186.9375 71.109375 L 182.402344 71.109375 Z M 182.964844 70.550781 L 186.375 70.550781 L 186.375 63.789062 L 182.964844 63.789062 Z M 182.964844 70.550781 "/>
<path style=" stroke:none;fill-rule:nonzero;fill:rgb(39.607843%,48.235294%,51.372549%);fill-opacity:1;" d="M 182.402344 55.546875 L 186.9375 55.546875 L 186.9375 63.425781 L 182.402344 63.425781 Z M 182.964844 62.867188 L 186.375 62.867188 L 186.375 56.109375 L 182.964844 56.109375 Z M 182.964844 62.867188 "/>
<path style=" stroke:none;fill-rule:nonzero;fill:rgb(39.607843%,48.235294%,51.372549%);fill-opacity:1;" d="M 182.402344 48.0625 L 186.9375 48.0625 L 186.9375 55.945312 L 182.402344 55.945312 Z M 182.964844 55.382812 L 186.375 55.382812 L 186.375 48.625 L 182.964844 48.625 Z M 182.964844 55.382812 "/>
<path style=" stroke:none;fill-rule:nonzero;fill:rgb(39.607843%,48.235294%,51.372549%);fill-opacity:1;" d="M 190.328125 45.890625 L 188.285156 42.996094 L 189.390625 42.996094 L 190.914062 45.230469 L 192.425781 42.996094 L 193.519531 42.996094 L 191.476562 45.890625 L 193.632812 48.917969 L 192.527344 48.917969 L 190.914062 46.554688 L 189.28125 48.917969 L 188.1875 48.917969 Z M 190.328125 45.890625 "/>
<path style=" stroke:none;fill-rule:nonzero;fill:rgb(39.607843%,48.235294%,51.372549%);fill-opacity:1;" d="M 196.507812 50.988281 L 195.84375 50.988281 L 195.84375 47.160156 L 195.847656 47.121094 L 195.847656 46.976562 L 195.851562 46.9375 L 195.851562 46.828125 L 195.855469 46.792969 L 195.855469 46.71875 L 195.859375 46.683594 L 195.859375 46.578125 L 195.863281 46.546875 L 195.863281 46.445312 L 195.867188 46.414062 L 195.867188 46.378906 L 195.871094 46.347656 L 195.871094 46.261719 L 195.875 46.234375 L 195.875 46.179688 L 195.863281 46.195312 L 195.839844 46.21875 L 195.824219 46.230469 L 195.816406 46.242188 L 195.78125 46.277344 L 195.773438 46.289062 L 195.761719 46.296875 L 195.753906 46.308594 L 195.742188 46.316406 L 195.703125 46.355469 L 195.691406 46.363281 L 195.671875 46.382812 L 195.660156 46.390625 L 195.640625 46.410156 L 195.628906 46.417969 L 195.621094 46.429688 L 195.609375 46.4375 L 195.566406 46.480469 L 195.554688 46.488281 L 195.53125 46.511719 L 195.519531 46.519531 L 195.503906 46.53125 L 195.492188 46.542969 L 195.476562 46.554688 L 195.449219 46.582031 L 195.417969 46.605469 L 194.859375 47.0625 L 194.496094 46.597656 L 195.941406 45.472656 L 196.507812 45.472656 Z M 196.507812 50.988281 "/>
<path style=" stroke:none;fill-rule:nonzero;fill:rgb(39.607843%,48.235294%,51.372549%);fill-opacity:1;" d="M 190.328125 64.832031 L 188.285156 61.9375 L 189.390625 61.9375 L 190.914062 64.167969 L 192.425781 61.9375 L 193.519531 61.9375 L 191.476562 64.832031 L 193.632812 67.855469 L 192.527344 67.855469 L 190.914062 65.492188 L 189.28125 67.855469 L 188.1875 67.855469 Z M 190.328125 64.832031 "/>
<path style=" stroke:none;fill-rule:nonzero;fill:rgb(39.607843%,48.235294%,51.372549%);fill-opacity:1;" d="M 197.628906 69.925781 L 194.1875 69.925781 L 194.1875 69.335938 L 195.507812 67.898438 L 195.566406 67.839844 L 195.621094 67.78125 L 195.671875 67.722656 L 195.726562 67.664062 L 195.777344 67.605469 L 195.828125 67.550781 L 195.875 67.496094 L 195.921875 67.445312 L 195.96875 67.390625 L 196.015625 67.339844 L 196.058594 67.289062 L 196.101562 67.242188 L 196.140625 67.191406 L 196.183594 67.140625 L 196.21875 67.089844 L 196.257812 67.042969 L 196.292969 66.992188 L 196.328125 66.945312 L 196.359375 66.894531 L 196.390625 66.847656 L 196.421875 66.796875 L 196.453125 66.75 L 196.480469 66.703125 L 196.507812 66.652344 L 196.554688 66.558594 L 196.578125 66.507812 L 196.617188 66.414062 L 196.632812 66.363281 L 196.648438 66.316406 L 196.664062 66.265625 L 196.675781 66.214844 L 196.6875 66.160156 L 196.695312 66.109375 L 196.710938 66 L 196.714844 65.945312 L 196.714844 65.746094 L 196.710938 65.703125 L 196.707031 65.664062 L 196.699219 65.621094 L 196.695312 65.582031 L 196.683594 65.546875 L 196.675781 65.507812 L 196.664062 65.472656 L 196.652344 65.441406 L 196.640625 65.40625 L 196.59375 65.3125 L 196.574219 65.28125 L 196.535156 65.226562 L 196.511719 65.203125 L 196.492188 65.175781 L 196.445312 65.128906 L 196.417969 65.105469 L 196.394531 65.085938 L 196.339844 65.046875 L 196.3125 65.03125 L 196.28125 65.011719 L 196.25 65 L 196.21875 64.984375 L 196.15625 64.960938 L 196.121094 64.949219 L 196.015625 64.925781 L 195.980469 64.921875 L 195.941406 64.917969 L 195.90625 64.914062 L 195.867188 64.910156 L 195.824219 64.910156 L 195.683594 64.917969 L 195.550781 64.933594 L 195.484375 64.949219 L 195.421875 64.964844 L 195.296875 65.003906 L 195.234375 65.03125 L 195.175781 65.058594 L 195.121094 65.085938 L 195.0625 65.117188 L 194.898438 65.222656 L 194.734375 65.339844 L 194.683594 65.382812 L 194.628906 65.429688 L 194.246094 64.980469 L 194.277344 64.953125 L 194.304688 64.925781 L 194.335938 64.898438 L 194.371094 64.875 L 194.402344 64.847656 L 194.433594 64.824219 L 194.46875 64.796875 L 194.5 64.773438 L 194.675781 64.65625 L 194.710938 64.636719 L 194.75 64.613281 L 194.789062 64.59375 L 194.824219 64.574219 L 194.902344 64.535156 L 194.941406 64.519531 L 194.984375 64.5 L 195.023438 64.484375 L 195.066406 64.46875 L 195.105469 64.457031 L 195.148438 64.441406 L 195.191406 64.429688 L 195.234375 64.414062 L 195.277344 64.402344 L 195.320312 64.394531 L 195.367188 64.382812 L 195.410156 64.371094 L 195.457031 64.363281 L 195.5 64.355469 L 195.546875 64.347656 L 195.6875 64.335938 L 195.738281 64.332031 L 195.90625 64.332031 L 195.976562 64.335938 L 196.042969 64.339844 L 196.113281 64.347656 L 196.179688 64.355469 L 196.304688 64.378906 L 196.367188 64.394531 L 196.425781 64.414062 L 196.488281 64.433594 L 196.542969 64.453125 L 196.601562 64.476562 L 196.65625 64.5 L 196.757812 64.554688 L 196.808594 64.585938 L 196.855469 64.617188 L 196.941406 64.6875 L 196.984375 64.726562 L 197.0625 64.804688 L 197.132812 64.890625 L 197.195312 64.984375 L 197.222656 65.03125 L 197.25 65.082031 L 197.320312 65.246094 L 197.339844 65.300781 L 197.371094 65.417969 L 197.394531 65.542969 L 197.402344 65.605469 L 197.410156 65.738281 L 197.410156 65.871094 L 197.402344 65.996094 L 197.394531 66.058594 L 197.386719 66.117188 L 197.375 66.179688 L 197.359375 66.238281 L 197.34375 66.300781 L 197.328125 66.359375 L 197.289062 66.476562 L 197.265625 66.53125 L 197.21875 66.648438 L 197.191406 66.707031 L 197.164062 66.761719 L 197.132812 66.820312 L 197.101562 66.875 L 197.066406 66.933594 L 197.035156 66.992188 L 197 67.046875 L 196.921875 67.15625 L 196.882812 67.214844 L 196.84375 67.269531 L 196.800781 67.328125 L 196.753906 67.382812 L 196.710938 67.441406 L 196.664062 67.496094 L 196.613281 67.550781 L 196.566406 67.609375 L 196.515625 67.667969 L 196.464844 67.722656 L 196.363281 67.839844 L 196.308594 67.898438 L 196.257812 67.960938 L 196.203125 68.019531 L 196.144531 68.082031 L 196.089844 68.140625 L 195.03125 69.269531 L 195.03125 69.300781 L 197.628906 69.300781 Z M 197.628906 69.925781 "/>
<path style=" stroke:none;fill-rule:nonzero;fill:rgb(39.607843%,48.235294%,51.372549%);fill-opacity:1;" d="M 199.121094 40.382812 L 203.65625 40.382812 L 203.65625 48.261719 L 199.121094 48.261719 Z M 199.683594 47.703125 L 203.09375 47.703125 L 203.09375 40.941406 L 199.683594 40.941406 Z M 199.683594 47.703125 "/>
<path style=" stroke:none;fill-rule:nonzero;fill:rgb(39.607843%,48.235294%,51.372549%);fill-opacity:1;" d="M 199.121094 63.230469 L 203.65625 63.230469 L 203.65625 71.109375 L 199.121094 71.109375 Z M 199.683594 70.550781 L 203.09375 70.550781 L 203.09375 63.789062 L 199.683594 63.789062 Z M 199.683594 70.550781 "/>
<path style=" stroke:none;fill-rule:nonzero;fill:rgb(39.607843%,48.235294%,51.372549%);fill-opacity:1;" d="M 199.121094 55.546875 L 203.65625 55.546875 L 203.65625 63.425781 L 199.121094 63.425781 Z M 199.683594 62.867188 L 203.09375 62.867188 L 203.09375 56.109375 L 199.683594 56.109375 Z M 199.683594 62.867188 "/>
<path style=" stroke:none;fill-rule:nonzero;fill:rgb(39.607843%,48.235294%,51.372549%);fill-opacity:1;" d="M 199.121094 48.0625 L 203.65625 48.0625 L 203.65625 55.945312 L 199.121094 55.945312 Z M 199.683594 55.382812 L 203.09375 55.382812 L 203.09375 48.625 L 199.683594 48.625 Z M 199.683594 55.382812 "/>
<g clip-path="url(#clip6)" clip-rule="nonzero">
<path style="fill:none;stroke-width:1.066978;stroke-linecap:butt;stroke-linejoin:round;stroke:rgb(0%,0%,0%);stroke-opacity:1;stroke-dasharray:4.267913,4.267913;stroke-miterlimit:10;" d="M 152.992188 274.292969 L 152.992188 78.792969 "/>
</g>
<g clip-path="url(#clip7)" clip-rule="nonzero">
<path style="fill:none;stroke-width:1.066978;stroke-linecap:butt;stroke-linejoin:round;stroke:rgb(0%,0%,0%);stroke-opacity:1;stroke-dasharray:4.267913,4.267913;stroke-miterlimit:10;" d="M -74.835938 78.792969 L 152.992188 78.792969 "/>
</g>
<path style="fill:none;stroke-width:0.853583;stroke-linecap:butt;stroke-linejoin:round;stroke:rgb(0%,0%,0%);stroke-opacity:1;stroke-miterlimit:10;" d="M 30.914062 184.6875 L 30.914062 5.480469 "/>
<path style=" stroke:none;fill-rule:nonzero;fill:rgb(0%,0%,0%);fill-opacity:1;" d="M 20.363281 77.996094 L 18.882812 75.898438 L 19.683594 75.898438 L 20.789062 77.515625 L 21.882812 75.898438 L 22.675781 75.898438 L 21.195312 77.996094 L 22.757812 80.1875 L 21.957031 80.1875 L 20.789062 78.476562 L 19.605469 80.1875 L 18.8125 80.1875 Z M 20.363281 77.996094 "/>
<path style=" stroke:none;fill-rule:nonzero;fill:rgb(0%,0%,0%);fill-opacity:1;" d="M 25.65625 81.6875 L 23.164062 81.6875 L 23.164062 81.261719 L 24.121094 80.21875 L 24.277344 80.046875 L 24.3125 80.007812 L 24.347656 79.964844 L 24.386719 79.925781 L 24.417969 79.886719 L 24.453125 79.851562 L 24.484375 79.8125 L 24.546875 79.742188 L 24.578125 79.703125 L 24.6875 79.5625 L 24.804688 79.386719 L 24.84375 79.316406 L 24.859375 79.28125 L 24.878906 79.246094 L 24.894531 79.210938 L 24.90625 79.175781 L 24.921875 79.140625 L 24.957031 79.035156 L 24.972656 78.957031 L 24.980469 78.921875 L 24.988281 78.84375 L 24.992188 78.800781 L 24.992188 78.761719 L 24.996094 78.71875 L 24.992188 78.6875 L 24.992188 78.65625 L 24.988281 78.625 L 24.988281 78.597656 L 24.984375 78.566406 L 24.976562 78.539062 L 24.972656 78.511719 L 24.964844 78.488281 L 24.957031 78.460938 L 24.949219 78.4375 L 24.9375 78.410156 L 24.925781 78.386719 L 24.917969 78.367188 L 24.902344 78.34375 L 24.890625 78.320312 L 24.878906 78.300781 L 24.847656 78.261719 L 24.796875 78.210938 L 24.777344 78.195312 L 24.761719 78.179688 L 24.742188 78.164062 L 24.722656 78.152344 L 24.699219 78.136719 L 24.679688 78.125 L 24.65625 78.117188 L 24.632812 78.105469 L 24.613281 78.097656 L 24.585938 78.089844 L 24.539062 78.074219 L 24.511719 78.070312 L 24.488281 78.0625 L 24.460938 78.058594 L 24.433594 78.058594 L 24.40625 78.054688 L 24.296875 78.054688 L 24.246094 78.058594 L 24.199219 78.0625 L 24.148438 78.070312 L 24.101562 78.078125 L 24.054688 78.089844 L 24.007812 78.105469 L 23.964844 78.121094 L 23.835938 78.179688 L 23.796875 78.203125 L 23.753906 78.226562 L 23.714844 78.253906 L 23.675781 78.277344 L 23.636719 78.304688 L 23.597656 78.335938 L 23.558594 78.363281 L 23.480469 78.425781 L 23.203125 78.101562 L 23.226562 78.082031 L 23.246094 78.0625 L 23.269531 78.042969 L 23.292969 78.027344 L 23.339844 77.988281 L 23.363281 77.972656 L 23.386719 77.953125 L 23.414062 77.9375 L 23.4375 77.917969 L 23.464844 77.902344 L 23.488281 77.886719 L 23.515625 77.867188 L 23.570312 77.835938 L 23.597656 77.824219 L 23.652344 77.792969 L 23.679688 77.78125 L 23.710938 77.769531 L 23.738281 77.757812 L 23.769531 77.746094 L 23.796875 77.734375 L 23.859375 77.710938 L 23.921875 77.695312 L 23.953125 77.683594 L 23.984375 77.675781 L 24.015625 77.671875 L 24.046875 77.664062 L 24.082031 77.65625 L 24.113281 77.652344 L 24.148438 77.644531 L 24.179688 77.640625 L 24.214844 77.636719 L 24.25 77.636719 L 24.285156 77.632812 L 24.457031 77.632812 L 24.507812 77.636719 L 24.554688 77.644531 L 24.605469 77.648438 L 24.652344 77.660156 L 24.695312 77.667969 L 24.742188 77.679688 L 24.785156 77.691406 L 24.871094 77.722656 L 24.949219 77.753906 L 24.988281 77.773438 L 25.023438 77.796875 L 25.058594 77.816406 L 25.09375 77.839844 L 25.125 77.867188 L 25.15625 77.890625 L 25.21875 77.945312 L 25.246094 77.976562 L 25.269531 78.007812 L 25.296875 78.039062 L 25.320312 78.070312 L 25.339844 78.105469 L 25.363281 78.140625 L 25.378906 78.179688 L 25.398438 78.214844 L 25.414062 78.253906 L 25.429688 78.296875 L 25.445312 78.335938 L 25.46875 78.421875 L 25.476562 78.464844 L 25.484375 78.511719 L 25.488281 78.554688 L 25.492188 78.601562 L 25.496094 78.652344 L 25.496094 78.792969 L 25.492188 78.839844 L 25.484375 78.882812 L 25.480469 78.929688 L 25.472656 78.972656 L 25.4375 79.101562 L 25.421875 79.144531 L 25.410156 79.1875 L 25.394531 79.226562 L 25.355469 79.3125 L 25.339844 79.351562 L 25.316406 79.394531 L 25.296875 79.4375 L 25.273438 79.476562 L 25.25 79.519531 L 25.222656 79.558594 L 25.199219 79.601562 L 25.144531 79.679688 L 25.113281 79.722656 L 25.085938 79.761719 L 25.054688 79.804688 L 25.023438 79.84375 L 24.988281 79.886719 L 24.957031 79.925781 L 24.921875 79.96875 L 24.886719 80.007812 L 24.847656 80.050781 L 24.8125 80.089844 L 24.777344 80.132812 L 24.582031 80.347656 L 24.539062 80.394531 L 23.773438 81.210938 L 23.773438 81.234375 L 25.65625 81.234375 Z M 25.65625 81.6875 "/>
<path style="fill:none;stroke-width:1.066978;stroke-linecap:butt;stroke-linejoin:round;stroke:rgb(87.45098%,86.666667%,81.568627%);stroke-opacity:1;stroke-miterlimit:10;" d="M 28.175781 78.792969 L 30.914062 78.792969 "/>
<path style="fill:none;stroke-width:0.853583;stroke-linecap:butt;stroke-linejoin:round;stroke:rgb(0%,0%,0%);stroke-opacity:1;stroke-miterlimit:10;" d="M 30.914062 184.6875 L 210.519531 184.6875 "/>
<path style="fill:none;stroke-width:1.066978;stroke-linecap:butt;stroke-linejoin:round;stroke:rgb(87.45098%,86.666667%,81.568627%);stroke-opacity:1;stroke-miterlimit:10;" d="M 152.992188 187.425781 L 152.992188 184.6875 "/>
<path style=" stroke:none;fill-rule:nonzero;fill:rgb(0%,0%,0%);fill-opacity:1;" d="M 151.03125 191.714844 L 149.550781 189.617188 L 150.351562 189.617188 L 151.457031 191.234375 L 152.550781 189.617188 L 153.34375 189.617188 L 151.863281 191.714844 L 153.425781 193.90625 L 152.625 193.90625 L 151.457031 192.195312 L 150.273438 193.90625 L 149.480469 193.90625 Z M 151.03125 191.714844 "/>
<path style=" stroke:none;fill-rule:nonzero;fill:rgb(0%,0%,0%);fill-opacity:1;" d="M 155.511719 195.410156 L 155.03125 195.410156 L 155.03125 192.5 L 155.035156 192.476562 L 155.035156 192.367188 L 155.039062 192.34375 L 155.039062 192.238281 L 155.042969 192.214844 L 155.042969 192.117188 L 155.046875 192.09375 L 155.046875 192.027344 L 155.050781 192.003906 L 155.050781 191.925781 L 155.042969 191.933594 L 155.035156 191.945312 L 155.023438 191.953125 L 155.015625 191.960938 L 155.007812 191.972656 L 154.96875 192.011719 L 154.960938 192.015625 L 154.957031 192.023438 L 154.933594 192.046875 L 154.925781 192.050781 L 154.910156 192.066406 L 154.902344 192.070312 L 154.886719 192.085938 L 154.882812 192.09375 L 154.875 192.097656 L 154.84375 192.128906 L 154.835938 192.132812 L 154.8125 192.15625 L 154.800781 192.164062 L 154.785156 192.179688 L 154.773438 192.1875 L 154.753906 192.207031 L 154.742188 192.214844 L 154.722656 192.234375 L 154.316406 192.566406 L 154.054688 192.230469 L 155.101562 191.410156 L 155.511719 191.410156 Z M 155.511719 195.410156 "/>
</g>
</svg>
